<svg xmlns="http://www.w3.org/2000/svg" width="1920" height="1080" viewBox="0 0 1920 1080"><defs><style>.cls-1{opacity:0.4;}.cls-2{fill:#1d7c18;}.cls-3{fill:#87dd80;}.cls-4{fill:#878484;}.cls-18,.cls-5{fill:none;stroke-linecap:round;stroke-miterlimit:10;}.cls-5{stroke:#1d7c18;stroke-width:45px;}.cls-6{fill:#195914;}.cls-7{fill:#184914;}.cls-8{fill:#fff;}.cls-9{fill:#32c956;}.cls-10{fill:#7a1818;}.cls-11{fill:#440e0e;}.cls-12{fill:#b72929;}.cls-13{fill:#490f0f;}.cls-14{fill:#420b0b;}.cls-15{fill:#f9f9f9;}.cls-16{fill:#4c0f0f;}.cls-17{fill:#5b0b0b;}.cls-18{stroke:#7a1818;stroke-width:29px;}.cls-19{fill:#175612;}.cls-20{fill:#165611;}.cls-21{opacity:0.2;}.cls-22{fill:#3fa9f5;}.cls-23{fill:#4d4d4d;}.cls-24{fill:gray;}.cls-25{fill:#29abe2;}</style></defs><title>bear-models</title><g id="Layer_3" data-name="Layer 3"><ellipse class="cls-1" cx="1728" cy="319.28" rx="149" ry="40.72"/><ellipse class="cls-1" cx="1345" cy="895.5" rx="419" ry="114.5"/><path class="cls-2" d="M1221,826c1.76-66.19-56-150.8-13.69-149.67s58.28,56.48,56.51,122.67c-.85,32.26,6.8,62.38,1,87-8,34-42.21,30.6-63.89,30-17.38-.47-92.18,16.23-93.93-5-1.65-20,12-41,31-45C1156.62,862.08,1220.54,843.14,1221,826Z"/><ellipse class="cls-2" cx="1339.5" cy="553.83" rx="249.5" ry="226.94"/><ellipse class="cls-3" cx="1292" cy="564.17" rx="144" ry="176.67"/><circle class="cls-2" cx="1257.5" cy="711.5" r="9.5"/><path class="cls-4" d="M985.58,596.56c.95,5,16.43,6.35,34.59,3s24.6,28.49,23.66,23.45-8.91-45.07-27.07-41.68S984.64,591.52,985.58,596.56Z"/><path class="cls-4" d="M952.48,683.51c12.27-27.93,9.28-18.1,14.66-41.81s7.55-43.42,4.83-44-11,28.13-14.66,41.81C951,662.87,952.59,662,952.48,683.51Z"/><path class="cls-4" d="M990.24,687c.87-30.5,1.79-20.26-2.14-44.25s-9.34-43.08-12.09-42.63.42,30.19,2.14,44.26C981.1,668.48,982.24,667.05,990.24,687Z"/><path class="cls-4" d="M1036.89,671.52C1026.74,642.75,1031.27,652,1019,631s-24.2-36.84-26.6-35.43,11.24,28,17.91,40.52C1021.69,657.48,1022.24,655.74,1036.89,671.52Z"/><path class="cls-4" d="M1011.1,681.12c-3.64-30.29-1.22-20.3-8.64-43.45s-15.59-41.23-18.24-40.38,4.86,29.8,8.64,43.46C999.32,664.11,1000.24,662.53,1011.1,681.12Z"/><path class="cls-5" d="M1176.5,413.5s-13.32-11.41-92-36c-88-27.5-143.62,24-156,79C913.53,523,981,607.91,981,607.91"/><path class="cls-2" d="M1399,142.71c0,1.47-2.13,7.7-2.3,9.13A37.48,37.48,0,1,1,1359.48,110c2.61,0,3.67,2.9,6.13,3.41s3.1,8.51,5.45,9.54c1.9.83,7.14-5.89,8.86-4.77s-1.49,4.77,0,6.13,12.77-5.48,6.81,1.36c-1.16,1.34-3.62,7.31-2.72,8.86.79,1.38,17.81-10,10.07-1.48-2.58,2.84-6.45,7.74-6,9.66C1388.79,145.55,1399,139.66,1399,142.71Z"/><circle class="cls-2" cx="1251" cy="163" r="43"/><ellipse class="cls-6" cx="1314" cy="267.5" rx="69" ry="114.5"/><ellipse class="cls-2" cx="1310.74" cy="256.5" rx="65.74" ry="114.5"/><path class="cls-3" d="M1382.59,340.54c-.72,39.58-148.6,36.89-147.88-2.69s34.41-71.06,75.24-70.32S1383.31,301,1382.59,340.54Z"/><path class="cls-7" d="M1370,322c0,11.3-9.45,23.76-25.92,27.49C1333,352,1325.86,344,1312,344c-11.48,0-24,8-36.5,7.45-19.71-.87-31.5-16.87-31.5-29.45,0-11.74,8.34-24.52,26-22,14,2,26,1,39,1s29.31-2.41,40-2C1375,300,1370,310.26,1370,322Z"/><ellipse class="cls-8" cx="1273.84" cy="237.91" rx="22.84" ry="32.05"/><circle cx="1281" cy="259.73" r="7.5"/><path class="cls-7" d="M1296.68,237.91s-9.88,8.18-22.5,8.18S1251,240,1251,237.91c0-23.18,10.23-32,22.84-32S1296.68,220.21,1296.68,237.91Z"/><ellipse class="cls-8" cx="1327.03" cy="239.95" rx="22.84" ry="32.05"/><circle cx="1323.28" cy="233.14" r="10.23"/><path class="cls-7" d="M1349.87,237.57c2.72,4.43-9.89-14.66-22.5-14.66s-25.23,17-23.19,14.66c0-16.38,10.23-29.66,22.85-29.66S1349.87,221.19,1349.87,237.57Z"/><path d="M1324,280c0,5.52-7,15-14.5,15s-13.5-9.48-13.5-15,6-5,13.5-5S1324,274.48,1324,280Z"/><path class="cls-3" d="M1277.13,149.48c8.43,13.63-40.91,44.12-49.33,30.5a29,29,0,1,1,49.33-30.5Z"/><path class="cls-3" d="M1371.7,166.66c-7.2,9.89-43-16.16-35.82-26a22.15,22.15,0,0,1,35.82,26Z"/><path class="cls-9" d="M1366.89,332c-.53-.57-4.23,4.06-10.39,4.26-5.3.18-6.43-3.16-11.68-2.84-5.09.32-5.16,3.54-10.38,4.26-6.81.95-8.7-4.27-14.28-2.84-5.26,1.35-5.3,6.45-10.38,7.1-4.29.55-5.58-2.92-10.38-2.84-4.05.08-6.93,2.62-10.38,5.68a35.83,35.83,0,0,0-11.68,18.46c-.54,2.2-.36,8.09,0,19.87.27,8.86.56,12.7,1.3,12.78,1.22.13,2.66-10.07,3.89-9.94,1.73.19.2,20.41,3.89,21.3,2.15.52,4-6,6.49-5.68,5,.64,4,27.42,9.09,28.39,4.79.91,9.08-21.87,19.46-22.71,5.69-.46,9.5,6,11.68,4.26,3.76-2.92-6.29-22.81-2.59-25.56,2.19-1.63,7.2,4.31,9.08,2.84,2.21-1.72-8.84-12.83-6.49-22.71,1.29-5.39,4.13-7.87,16.87-15.62C1361.69,343.37,1369.48,334.85,1366.89,332Z"/><rect class="cls-3" x="1259.18" y="200.41" width="34.09" height="10.23" transform="translate(137.64 -406.54) rotate(19.11)"/><rect class="cls-3" x="1304.87" y="200.41" width="34.09" height="10.23" transform="matrix(0.92, -0.4, 0.4, 0.92, 28.53, 547.37)"/><path class="cls-4" d="M1643.25,591.56c-.94,5-16.43,6.35-34.59,3S1584.06,623,1585,618s8.91-45.07,27.07-41.68S1644.19,586.52,1643.25,591.56Z"/><path class="cls-4" d="M1676.35,678.51c-12.27-27.93-9.28-18.1-14.66-41.81s-7.55-43.42-4.83-44,11,28.13,14.66,41.81C1677.84,657.87,1676.25,657,1676.35,678.51Z"/><path class="cls-4" d="M1638.59,682c-.86-30.5-1.78-20.26,2.14-44.25s9.35-43.08,12.09-42.63-.41,30.19-2.14,44.26C1647.73,663.48,1646.59,662.05,1638.59,682Z"/><path class="cls-4" d="M1591.94,666.52c10.16-28.77,5.62-19.55,17.91-40.52s24.2-36.84,26.61-35.43-11.25,28-17.91,40.52C1607.14,652.48,1606.59,650.74,1591.94,666.52Z"/><path class="cls-4" d="M1617.74,676.12c3.63-30.29,1.21-20.3,8.63-43.45s15.59-41.23,18.24-40.38-4.86,29.8-8.64,43.46C1629.51,659.11,1628.59,657.53,1617.74,676.12Z"/><path class="cls-5" d="M1452.33,408.5s48.49,12.59,127.17-12c88-27.5,168.62,70,181,125,15,66.51-112.65,81.41-112.65,81.41"/><path class="cls-2" d="M1437.16,842c2-74.88-63.31-170.59-15.48-169.31s65.92,63.89,63.92,138.76c-1,36.49,7.69,70.56,1.13,98.42-9,38.46-47.75,34.61-72.27,34-19.67-.52-104.27,18.37-106.26-5.68-1.86-22.62,13.58-46.38,35.07-50.91C1364.34,882.78,1436.64,861.36,1437.16,842Z"/><ellipse class="cls-1" cx="176" cy="303.87" rx="129" ry="21.13"/><ellipse class="cls-10" cx="181.84" cy="162.71" rx="47.21" ry="91.23"/><circle class="cls-10" cx="129.5" cy="47.15" r="17.61"/><circle class="cls-10" cx="201.84" cy="45.87" r="17.61"/><ellipse class="cls-11" cx="166.15" cy="70.53" rx="45.61" ry="36.65"/><ellipse class="cls-10" cx="166.15" cy="67.16" rx="45.61" ry="36.65"/><path class="cls-12" d="M137.74,90.85c-.14,13.61,57.41,14.18,57.55.58s-12.64-24.76-28.53-24.92S137.87,77.25,137.74,90.85Z"/><path class="cls-11" d="M139.74,90.37c0,3.61,8.5,7.77,13.77,9,3.54.8,6.12-2.88,10.56-2.88,3.67,0,8.16,4,12.16,3.84,6.31-.28,16.33-4.61,16.33-8.64,0-3.76-.43-13.61-6.08-12.81-4.48.64-17.27,3.84-21.45,3.84s-11.94-4-15.36-3.84C141.34,79.16,139.74,86.61,139.74,90.37Z"/><path d="M159.59,74c0,1.77,2.25,4.8,4.64,4.8s4.32-3,4.32-4.8-1.93-1.6-4.32-1.6S159.59,72.27,159.59,74Z"/><path class="cls-12" d="M196,39.31c-2.7,4.36,13.09,14.12,15.79,9.76A9.28,9.28,0,1,0,196,39.31Z"/><path class="cls-12" d="M121.67,51.77c3,4.15,18-6.77,15-10.92a9.29,9.29,0,0,0-15,10.92Z"/><ellipse class="cls-8" cx="175.43" cy="59.32" rx="10.72" ry="15.04"/><circle cx="173.83" cy="62.04" r="6.24"/><ellipse class="cls-8" cx="148.55" cy="59.32" rx="10.72" ry="15.04"/><circle cx="147.75" cy="61.56" r="5.76"/><path class="cls-13" d="M137.82,58.2c-1.28,2.08,4.64-6.88,10.57-6.88s11.84,8,10.88,6.88c0-7.69-4.8-13.93-10.72-13.93S137.82,50.51,137.82,58.2Z"/><path class="cls-14" d="M164.71,58.2c-1.28,2.08,4.64-6.88,10.56-6.88s11.85,8,10.89,6.88c0-7.69-4.8-13.93-10.73-13.93S164.71,50.51,164.71,58.2Z"/><rect class="cls-12" x="166.95" y="41.71" width="16" height="4.8" transform="translate(354.71 28.51) rotate(160.89)"/><rect class="cls-12" x="142.62" y="40.11" width="16" height="4.8" transform="translate(271.56 141.86) rotate(-156.36)"/><circle class="cls-10" cx="147.26" cy="62.04" r="2.72"/><circle class="cls-10" cx="173.67" cy="61.88" r="2.24"/><polygon class="cls-15" points="143.9 80.44 151.48 94.89 150.86 86.56 153.19 79.48 150.31 78.84 148.38 78.84 145.82 79.48 143.9 80.44"/><polygon class="cls-15" points="189.68 79.8 181.74 94.25 182.36 85.92 180.07 80.12 182.96 79.48 186.16 78.84 187.12 78.84 187.76 78.84 188.72 79.16 189.68 79.8"/><polygon class="cls-15" points="178.02 80.48 172.95 90.39 173.35 85.13 171.75 81.72 178.02 80.48"/><polygon class="cls-15" points="154.47 79.8 161 90.07 160.61 84.81 162.47 82.36 154.47 79.8"/><polygon class="cls-15" points="176.23 100.29 169.59 89.96 169.85 95.23 166.95 97.09 169.19 98.05 170.47 98.69 172.07 99.33 174.63 100.29 176.23 100.29"/><polygon class="cls-15" points="154.14 99.39 158.12 89 158.29 94.26 160.87 97.09 158.63 98.05 157.35 98.69 156.71 99.01 155.43 99.33 154.14 99.39"/><path class="cls-4" d="M103.34,214.65c4,15.72,2.91,15.11,2.75,29.51-7.91-18.82-6-12.21-9.35-28.13"/><path class="cls-4" d="M94.09,216.3c-.9,18.64-1.85,17.61-6.86,33.4-2.4-23.35-2.52-15.45-.87-34.08"/><path class="cls-4" d="M80.2,205.48c-8.81,12.82-9,11.67-19.51,20.67,8.54-17.6,5-12.06,14.33-24.54"/><path class="cls-4" d="M85.46,214.17C77.7,230.76,77.22,229.47,66.8,242c6.51-22.11,3.45-15,11.89-31.29"/><path class="cls-4" d="M94.15,202c-.56,3,7.68,7,18.39,9s7.46,20.91,8,17.95,4.71-26.7-6-28.7S94.7,199,94.15,202Z"/><path class="cls-4" d="M274.82,151.35c0,2-5.94,3.68-13.28,3.68S254,167.94,254,165.91s.18-18.24,7.52-18.24S274.82,149.31,274.82,151.35Z"/><path class="cls-4" d="M293.29,182.07c-6.83-10-4.94-6.39-8.77-15.25s-6.12-16.4-5.11-16.84,6.34,10.18,8.78,15.25C292.36,173.9,291.68,173.67,293.29,182.07Z"/><path class="cls-4" d="M281.62,185.4c-2.56-11.84-2.18-7.78-2.39-17.43s.5-17.5,1.6-17.52,2,11.81,2.4,17.43C283.83,177.49,283.29,177,281.62,185.4Z"/><path class="cls-4" d="M260.27,184.35c1.86-12,.77-8,4-17.12s6.76-16.15,7.8-15.77-2.34,11.76-4,17.12C265.18,177.77,264.84,177.13,260.27,184.35Z"/><path class="cls-4" d="M271,186.22c-.79-12.09-1-8,.2-17.59s3.07-17.23,4.17-17.1.28,12-.2,17.6C274.39,178.72,273.92,178.17,271,186.22Z"/><path class="cls-16" d="M72.84,199.2c13.77-40.65,16-40.65,33.29-62.1,22.32-27.69,41.24-28.35,47.06-13.12s-41,15.54-41.73,51.09C110,250.42,67.61,214.64,72.84,199.2Z"/><path class="cls-13" d="M290.6,152.72c20-47.78-.83-62.69-36.22-59.23s-56.18,5.71-54.59,21.93,59.64-9.23,62,26.26C265.08,191,284.32,167.76,290.6,152.72Z"/><path class="cls-10" d="M292.33,150.72c20-47.79-.83-62.7-36.22-59.24s-61.14,8.86-59.55,25.09,64.6-12.39,67,23.1C266.81,189,286.05,165.75,292.33,150.72Z"/><path class="cls-10" d="M69.79,198.24c13.76-40.65,16-40.65,33.29-62.1,22.32-27.69,49.12-27.81,54.94-12.59s-48.91,15-49.61,50.56C106.92,249.46,64.56,213.68,69.79,198.24Z"/><path class="cls-10" d="M121.09,307.78c55.38-10.89,40.33,15.36,45.1-27.23,3.95-35.35-.72-60.92-16.93-59.2s10.85,71.82-24.33,66.58C109.89,285.69,105.1,310.92,121.09,307.78Z"/><ellipse class="cls-12" cx="173.62" cy="177.43" rx="27.48" ry="60.18"/><path class="cls-10" d="M238.56,310c-55.37-10.89-40.33,15.36-45.09-27.23-3.95-35.35.72-60.92,16.93-59.2s-10.85,71.82,24.32,66.58C249.77,287.87,254.56,313.1,238.56,310Z"/><circle class="cls-17" cx="172.07" cy="221.29" r="3.52"/><path class="cls-12" d="M218.78,301.39c10,0,18.9,5.51,18.9,8.36-3.63-.37-8.72-1.46-18.89-2.55-10,0-13.8-.36-18.52.73C200.24,305.09,208.75,301.39,218.78,301.39Z"/><path class="cls-12" d="M140.87,299.21c-10,0-18.89,5.51-18.89,8.36,3.63-.37,8.71-1.46,18.88-2.55,10,0,13.81-.36,18.53.73C159.42,302.91,150.91,299.21,140.87,299.21Z"/><ellipse class="cls-1" cx="512.27" cy="971.39" rx="321.27" ry="52.61"/><ellipse class="cls-10" cx="527.8" cy="619.82" rx="117.59" ry="227.2"/><circle class="cls-10" cx="438.08" cy="221.58" r="32.32"/><path class="cls-10" d="M512.59,218.58c0,20.13,7,36.32,27.12,36.32a36.45,36.45,0,0,0,0-72.9C519.58,182,512.59,198.45,512.59,218.58Z"/><ellipse class="cls-11" cx="491.28" cy="339.95" rx="61.65" ry="111.59"/><ellipse class="cls-10" cx="491.28" cy="329.68" rx="61.65" ry="111.59"/><path class="cls-12" d="M405,416.48c-.41,41.42,174.81,43.18,175.23,1.76s-38.47-75.39-86.86-75.87S405.39,375.06,405,416.48Z"/><path class="cls-11" d="M411.08,415c0,11,25.86,23.65,41.91,27.28,10.8,2.45,18.65-8.77,32.16-8.77,11.19,0,24.85,12.23,37,11.7,19.2-.85,49.7-14.05,49.7-26.32,0-11.43-1.3-41.44-18.51-39-13.65,1.95-52.59,11.7-65.3,11.7s-36.36-12.1-46.78-11.7C416,380.89,411.08,403.57,411.08,415Z"/><path d="M471.51,365.3c0,5.38,6.86,14.62,14.13,14.62s13.16-9.24,13.16-14.62-5.89-4.87-13.16-4.87S471.51,359.92,471.51,365.3Z"/><path class="cls-12" d="M524,211c-5.58,9,27.11,29.24,32.69,20.21A19.22,19.22,0,0,0,524,211Z"/><path class="cls-12" d="M426.16,239.84c5.53,7.62,33.1-12.43,27.56-20.05a17,17,0,0,0-27.56,20.05Z"/><ellipse class="cls-8" cx="518.17" cy="313.97" rx="25.96" ry="36.42"/><circle cx="514.3" cy="320.55" r="15.11"/><ellipse class="cls-8" cx="453.09" cy="313.97" rx="25.96" ry="36.42"/><circle cx="451.15" cy="319.39" r="13.95"/><path class="cls-13" d="M427.13,311.26c-3.1,5,11.24-16.66,25.57-16.66S481.37,314,479,311.26c0-18.62-11.62-33.71-26-33.71S427.13,292.64,427.13,311.26Z"/><path class="cls-14" d="M492.21,311.26c-3.09,5,11.24-16.66,25.57-16.66s28.67,19.37,26.35,16.66c0-18.62-11.63-33.71-26-33.71S492.21,292.64,492.21,311.26Z"/><rect class="cls-12" x="497.64" y="271.35" width="38.74" height="11.62" transform="translate(1096.27 369.77) rotate(160.89)"/><rect class="cls-12" x="438.75" y="267.48" width="38.74" height="11.62" transform="translate(768.2 707.36) rotate(-156.36)"/><circle class="cls-10" cx="449.99" cy="320.55" r="6.59"/><circle class="cls-10" cx="513.91" cy="320.17" r="5.42"/><polygon class="cls-15" points="423.75 384.79 446.83 428.79 444.94 403.43 452.02 381.87 443.25 379.92 437.4 379.92 429.6 381.87 423.75 384.79"/><polygon class="cls-15" points="563.12 382.84 538.95 426.84 540.84 401.48 533.88 383.82 542.65 381.87 552.4 379.92 555.33 379.92 557.27 379.92 560.2 380.89 563.12 382.84"/><polygon class="cls-15" points="527.62 384.92 512.2 415.07 513.4 399.07 508.54 388.69 527.62 384.92"/><polygon class="cls-15" points="455.92 382.84 475.81 414.1 474.62 398.1 480.28 390.64 455.92 382.84"/><polygon class="cls-15" points="522.19 445.22 501.96 413.78 502.77 429.81 493.93 435.47 500.75 438.4 504.65 440.35 509.52 442.3 517.32 445.22 522.19 445.22"/><polygon class="cls-15" points="454.92 442.46 467.02 410.83 467.55 426.87 475.41 435.47 468.59 438.4 464.69 440.35 462.74 441.32 458.84 442.3 454.92 442.46"/><path class="cls-4" d="M754,654.15c0,3.76-11,6.8-24.53,6.8s-13.89,23.85-13.89,20.1.34-33.7,13.89-33.7S754,650.4,754,654.15Z"/><path class="cls-4" d="M789.58,712.36c-12.62-18.47-9.13-11.79-16.21-28.15s-11.29-30.29-9.42-31.1,11.7,18.8,16.21,28.16C787.86,697.29,786.6,696.86,789.58,712.36Z"/><path class="cls-4" d="M762.84,720c-4.74-21.86-4-14.36-4.43-32.19s.93-32.3,3-32.35,3.77,21.82,4.42,32.19C766.92,705.39,765.91,704.51,762.84,720Z"/><path class="cls-4" d="M727.12,715.1c3.44-22.1,1.41-14.85,7.44-31.62S747,653.67,749,654.36s-4.32,21.71-7.44,31.62C736.18,702.94,735.55,701.76,727.12,715.1Z"/><path class="cls-4" d="M747,718.55c-1.46-22.33-1.86-14.8.37-32.49s5.68-31.82,7.7-31.56.52,22.13-.36,32.49C753.2,704.7,752.32,703.68,747,718.55Z"/><path class="cls-10" d="M392.52,985.1C478,960,450.14,1014.08,462,908c9.84-88,41.05-142.42.68-138.14s27,178.87-60.59,165.82C364.62,930.1,353.57,996.54,392.52,985.1Z"/><ellipse class="cls-12" cx="507.35" cy="656.49" rx="68.43" ry="149.87"/><circle class="cls-17" cx="503.49" cy="765.71" r="8.77"/><path class="cls-18" d="M595.56,480.43s9.73,8.95,66.94-8.93c64-20,125,30,134,70,10.88,48.37-35,113-35,113"/><path class="cls-4" d="M286.58,672.24c.68,3.66,11.94,4.62,25.15,2.15s17.89,20.72,17.21,17.06-6.48-32.78-19.69-30.31S285.9,668.58,286.58,672.24Z"/><path class="cls-4" d="M262.51,735.47c8.92-20.31,6.74-13.16,10.66-30.4s5.49-31.58,3.51-32-8,20.46-10.66,30.41C261.43,720.47,262.58,719.82,262.51,735.47Z"/><path class="cls-4" d="M290,738c.63-22.18,1.31-14.74-1.55-32.18s-6.79-31.32-8.79-31,.3,22,1.55,32.18C283.32,724.54,284.15,723.5,290,738Z"/><path class="cls-4" d="M323.89,726.75c-7.39-20.92-4.08-14.21-13-29.47s-17.6-26.78-19.35-25.76,8.18,20.38,13,29.47C312.84,716.55,313.24,715.28,323.89,726.75Z"/><path class="cls-4" d="M305.13,733.74c-2.64-22-.88-14.77-6.28-31.6s-11.33-30-13.26-29.36,3.53,21.67,6.28,31.6C296.57,721.37,297.24,720.22,305.13,733.74Z"/><path class="cls-18" d="M449.17,500.43S431.9,458,382.23,491.5c-57.73,39-137.63,24.57-163.73,70-27,47,65,113,65,113"/><path class="cls-10" d="M661.66,998.54c-96.53-28.35-65.06,32.72-78.46-87.07-11.11-99.41-46.35-160.83-.76-156s-30.52,202,68.42,187.25C693.17,936.42,705.65,1011.46,661.66,998.54Z"/><path class="cls-2" d="M1700.81,271.2c-.61-22.59-12.79-40.59-27.22-40.21s-19.89,19.28-19.29,41.87c.3,11-2.32,21.29-.34,29.69,2.73,11.61,14.41,10.45,21.81,10.25,5.93-.16,46.16,5.86,46.76-1.4.56-6.82-5.43-19.77-11.91-21.13S1701,277.05,1700.81,271.2Z"/><path class="cls-2" d="M1766.67,265.06c-.6-22.59-12.78-40.59-27.21-40.21s-19.89,19.28-19.29,41.87c.29,11-2.32,21.29-.34,29.69,2.73,11.6,14.41,10.44,21.81,10.25,5.93-.16,46.16,5.86,46.76-1.4.56-6.82-5.43-19.77-11.92-21.14S1766.83,270.91,1766.67,265.06Z"/><path class="cls-2" d="M1766.67,265.06c-.6-22.59-12.78-40.59-27.21-40.21s-19.89,19.28-19.29,41.87c.29,11-2.32,21.29-.34,29.69,2.73,11.6,14.41,10.44,21.81,10.25,5.93-.16,46.16,5.86,46.76-1.4.56-6.82-5.43-19.77-11.92-21.14S1766.83,270.91,1766.67,265.06Z"/><ellipse class="cls-2" cx="1777.89" cy="179.13" rx="23.56" ry="64.44" transform="translate(57.66 662.67) rotate(-21.45)"/><path class="cls-19" d="M1758.35,192.87c13,33.12,36.88,55.45,39.92,42.79,3.42-14.27,4.84-25.25-7.85-58-12.85-33.18-22.36-53.56-34.47-48.8S1745.34,159.75,1758.35,192.87Z"/><ellipse class="cls-2" cx="1702.88" cy="180.32" rx="85.15" ry="77.45"/><ellipse class="cls-3" cx="1719.09" cy="183.84" rx="49.15" ry="60.3"/><ellipse class="cls-20" cx="1631.06" cy="191.03" rx="72.75" ry="26.6" transform="translate(1099 1744.66) rotate(-77.78)"/><ellipse class="cls-2" cx="1629.42" cy="190.67" rx="72.75" ry="26.6" transform="translate(1098.07 1742.78) rotate(-77.78)"/><circle class="cls-2" cx="1730.86" cy="234.13" r="3.24"/><path class="cls-2" d="M1645.71,55.8c0,.74,1.07,3.86,1.15,4.58a18.77,18.77,0,1,0,18.65-21c-1.31,0-1.84,1.45-3.08,1.71s-1.55,4.26-2.73,4.77c-1,.42-3.57-2.95-4.43-2.38s.75,2.39,0,3.07-6.4-2.75-3.42.68c.59.67,1.82,3.66,1.37,4.44s-8.92-5-5-.75c1.29,1.43,3.22,3.88,3,4.84C1650.83,57.22,1645.71,54.27,1645.71,55.8Z"/><circle class="cls-2" cx="1741.61" cy="55.8" r="18.77"/><ellipse class="cls-6" cx="1703.56" cy="82.25" rx="48.63" ry="39.08"/><ellipse class="cls-2" cx="1703.56" cy="78.5" rx="48.63" ry="39.08"/><path class="cls-3" d="M1738.67,102.92c-.24,13.38-56,12.37-55.8-1s12.94-24,28.34-23.72S1738.92,89.54,1738.67,102.92Z"/><path class="cls-7" d="M1694.08,98.39c0,3.31,2.77,7,7.6,8,3.24.74,5.34-1.61,9.4-1.61,3.36,0,7,2.35,10.69,2.18,5.78-.25,9.23-4.94,9.23-8.62,0-3.44-2.44-7.19-7.62-6.45-4.1.59-7.6.29-11.42.29s-8.59-.7-11.72-.58C1692.62,91.94,1694.08,95,1694.08,98.39Z"/><ellipse class="cls-8" cx="1722.67" cy="69.79" rx="11.43" ry="16.04"/><circle cx="1719.09" cy="80.72" r="3.75"/><path class="cls-7" d="M1711.24,69.79a19.65,19.65,0,0,0,11.26,4.1c6.32,0,11.61-3.07,11.61-4.1,0-11.6-5.12-16-11.44-16S1711.24,60.94,1711.24,69.79Z"/><ellipse class="cls-8" cx="1696.05" cy="70.82" rx="11.43" ry="16.04"/><circle cx="1697.93" cy="67.41" r="5.12"/><path class="cls-7" d="M1684.62,69.62c-1.37,2.22,5-7.33,11.26-7.33s12.63,8.53,11.6,7.33c0-8.2-5.11-14.84-11.43-14.84S1684.62,61.42,1684.62,69.62Z"/><path d="M1704.92,86.08c0,1.62,2.07,4.4,4.25,4.4s4-2.78,4-4.4-1.77-1.46-4-1.46S1704.92,84.46,1704.92,86.08Z"/><path class="cls-3" d="M1735.42,48.8c-2.87,4.65,14,15.06,16.84,10.41a9.9,9.9,0,1,0-16.84-10.41Z"/><path class="cls-3" d="M1656.14,62.09c3.21,4.42,19.22-7.22,16-11.64a9.89,9.89,0,1,0-16,11.64Z"/><path class="cls-9" d="M1695,101.32c.15-.17,1.23,1.19,3,1.25,1.55.05,1.88-.93,3.42-.83s1.51,1,3,1.24c2,.28,2.55-1.25,4.18-.83s1.56,1.89,3,2.08c1.26.16,1.63-.86,3-.83,1.19,0,2,.77,3,1.66a10.52,10.52,0,0,1,3.42,5.41,36.44,36.44,0,0,1,0,5.82c-.08,2.6-.16,3.72-.38,3.75s-.78-3-1.14-2.91c-.51.05-.06,6-1.14,6.24-.63.15-1.17-1.76-1.9-1.67-1.46.19-1.16,8-2.66,8.32s-2.66-6.41-5.71-6.65c-1.66-.14-2.78,1.74-3.42,1.24-1.1-.85,1.85-6.68.76-7.48-.64-.48-2.11,1.26-2.66.83s2.59-3.76,1.9-6.66c-.37-1.58-1.21-2.3-4.94-4.57C1696.52,104.65,1694.24,102.15,1695,101.32Z"/><rect class="cls-3" x="1712.95" y="51.02" width="17.06" height="5.12" transform="translate(3365.61 -459.44) rotate(160.89)"/><rect class="cls-3" x="1690.08" y="51.02" width="17.06" height="5.12" transform="translate(3233.16 783.86) rotate(-156.36)"/><path class="cls-2" d="M191.53,788.22c-.11.49-1.3,2.41-1.46,2.87a13.21,13.21,0,1,1-9.78-16.76c.9.2,1.06,1.25,1.87,1.6s.45,3.07,1.18,3.59,2.89-1.42,3.4-.91-.86,1.47-.45,2,4.8-.86,2.25,1c-.5.36-1.78,2.16-1.58,2.74s6.87-2,3.57.27c-1.09.75-2.78,2.09-2.76,2.77C187.8,788.39,191.75,787.2,191.53,788.22Z"/><ellipse class="cls-2" cx="132.79" cy="841.5" rx="32.72" ry="42.13" transform="translate(-717.61 790.76) rotate(-77.62)"/><ellipse class="cls-2" cx="125.53" cy="773.73" rx="12.78" ry="13.23" transform="translate(-657.13 730.43) rotate(-77.62)"/><ellipse class="cls-6" cx="147.85" cy="797.07" rx="26.61" ry="34.27" transform="translate(-662.39 770.57) rotate(-77.62)"/><ellipse class="cls-2" cx="148.4" cy="794.58" rx="26.61" ry="34.27" transform="translate(-659.52 769.14) rotate(-77.62)"/><path class="cls-7" d="M153.81,810.87c-.56,2.57-3.41,4.91-7.46,4.91-2.73,0-4-2.19-7.26-2.9-2.7-.6-6,.58-9-.19-4.58-1.22-6.55-5.46-5.93-8.31.59-2.67,3.19-5.14,7.21-3.66a62.94,62.94,0,0,0,9.11,2.24c3.06.67,7,1,9.49,1.61C156.08,806.14,154.39,808.21,153.81,810.87Z"/><ellipse class="cls-8" cx="136.52" cy="785.9" rx="10.92" ry="8.06" transform="translate(-660.38 750.72) rotate(-77.62)"/><ellipse cx="137.39" cy="793.71" rx="2.56" ry="2.65" transform="translate(-667.32 757.71) rotate(-77.62)"/><path class="cls-7" d="M144.39,787.63a14.17,14.17,0,0,1-8.35,1c-4.35-.95-7.54-3.8-7.39-4.48,1.69-7.71,5.86-9.89,10.21-8.94S145.68,781.74,144.39,787.63Z"/><ellipse class="cls-8" cx="154.69" cy="790.6" rx="10.92" ry="8.06" transform="translate(-650.7 772.16) rotate(-77.62)"/><ellipse cx="153.89" cy="788.05" rx="3.49" ry="3.61" transform="translate(-648.82 769.38) rotate(-77.62)"/><path class="cls-7" d="M162.73,791.54c.62,1.68-2.33-5.63-6.68-6.59s-9.93,3.77-9.06,3.13c1.2-5.45,5.69-9.1,10-8.15S163.93,786.08,162.73,791.54Z"/><path d="M147.21,799.43c-.27,1.26-2.4,3-4.15,2.66s-2.7-2.85-2.43-4.1,1.67-.83,3.42-.44S147.49,798.18,147.21,799.43Z"/><path class="cls-3" d="M130.81,770c1.3,3.53-11.81,7.91-13.11,4.38a6.61,6.61,0,0,1,4.2-8.58A7.12,7.12,0,0,1,130.81,770Z"/><path class="cls-3" d="M183.43,790.83c-2.86,2.46-12.17-7.71-9.31-10.16a7.12,7.12,0,0,1,9.83.64A6.59,6.59,0,0,1,183.43,790.83Z"/><path class="cls-9" d="M152.58,813c-.1-.16-1.2.7-2.65.43-1.26-.24-1.36-1-2.61-1.25s-1.39.54-2.65.43c-1.64-.13-1.83-1.42-3.21-1.38s-1.56,1.19-2.79,1.08c-1-.1-1.17-.95-2.3-1.18a4.08,4.08,0,0,0-2.72.75,8.32,8.32,0,0,0-3.66,3.59,27.88,27.88,0,0,0-1,4.51c-.38,2-.5,2.91-.33,3s1.12-2.15,1.41-2.06-1,4.64-.15,5c.48.23,1.24-1.16,1.81-1,1.13.4-.44,6.43.71,6.92s3.23-4.5,5.71-4.16c1.36.19,1.93,1.85,2.53,1.57,1-.47-.34-5.5.66-5.93.6-.26,1.48,1.35,2,1.11s-1.44-3.37-.4-5.49c.57-1.16,1.37-1.57,4.75-2.67C150.79,815.3,153.05,813.76,152.58,813Z"/><polygon class="cls-3" points="143.92 779.86 133.64 773.71 135.5 770.74 145.78 776.89 143.92 779.86"/><polygon class="cls-3" points="161.69 779.37 149.93 781.56 149.2 778.13 160.96 775.94 161.69 779.37"/><g class="cls-21"><path class="cls-22" d="M185.83,835.51c-15.23,36.75-49.42,57.77-76.38,47S73,833.11,88.22,796.36c8.68-21,13.74-35.49,29.9-43.23,12.17-5.84,32.59-2.81,44.17,1.83,11.32,4.54,32.37,14.25,37,26.39C205.68,798.11,194.67,814.19,185.83,835.51Z"/></g><path class="cls-23" d="M230.55,901.08C191,903.8,169.79,908.84,109,884.46s-79.92-49.1-98.79-71.74Z"/><path class="cls-24" d="M231.32,901l-.77.05L10.22,812.72l-.45-.54c35.31-.27,61.14-8,122.32,16.57S215.65,881,231.32,901Z"/><ellipse class="cls-25" cx="33.15" cy="829.86" rx="2.01" ry="7.26" transform="translate(-749.68 552.49) rotate(-68.2)"/><ellipse class="cls-25" cx="61.28" cy="841.5" rx="2.56" ry="13.49" transform="translate(-742.68 585.5) rotate(-68.17)"/><ellipse class="cls-25" cx="94.87" cy="855.33" rx="3.35" ry="15.22" transform="translate(-734.45 625.5) rotate(-68.18)"/><ellipse class="cls-25" cx="164.91" cy="883.29" rx="2.78" ry="12.45" transform="translate(-716.4 708.11) rotate(-68.18)"/><ellipse class="cls-25" cx="197.23" cy="895.66" rx="2.01" ry="8.3" transform="translate(-707.59 745.99) rotate(-68.19)"/><ellipse class="cls-25" cx="129.54" cy="869.24" rx="3.35" ry="15.22" transform="translate(-725.57 666.43) rotate(-68.18)"/></g></svg>
