<svg xmlns="http://www.w3.org/2000/svg" width="360" height="501" viewBox="0 0 360 501"><defs><style>.cls-1{opacity:0.4;}.cls-2{fill:#7a1818;}.cls-3{fill:#440e0e;}.cls-4{fill:#b72929;}.cls-5{fill:#fff;}.cls-6{fill:#490f0f;}.cls-7{fill:#420b0b;}.cls-8{fill:#f9f9f9;}.cls-9{fill:#878484;}.cls-10{fill:#5b0b0b;}.cls-11{fill:none;stroke:#7a1818;stroke-linecap:round;stroke-miterlimit:10;stroke-width:9px;}.cls-12{fill:#4c4c4c;}</style></defs><title>evil-bear</title><g id="Layer_4" data-name="Layer 4"><ellipse class="cls-1" cx="196.86" cy="475.79" rx="152.65" ry="25"/><ellipse class="cls-2" cx="194.44" cy="264.27" rx="69.94" ry="135.13" transform="translate(-12.12 9.36) rotate(-2.67)"/><circle class="cls-2" cx="130.08" cy="30.15" r="19.23"/><path class="cls-2" d="M174.27,26.3c.55,12,5.16,21.38,17.12,20.83a21.68,21.68,0,0,0-2-43.31C177.41,4.37,173.71,14.34,174.27,26.3Z"/><ellipse class="cls-3" cx="164.97" cy="99" rx="36.67" ry="66.37" transform="translate(-4.44 7.81) rotate(-2.67)"/><ellipse class="cls-2" cx="164.69" cy="92.9" rx="36.67" ry="66.37" transform="translate(-4.16 7.79) rotate(-2.67)"/><path class="cls-4" d="M115.82,146.87c.9,24.62,105.06,20.8,104.16-3.82S195,99.33,166.27,100.38,114.92,122.25,115.82,146.87Z"/><path class="cls-3" d="M119.41,145.82c.31,6.54,16,13.34,25.66,15.05,6.48,1.16,10.84-5.73,18.86-6.1,6.65-.31,15.1,6.57,22.33,5.92,11.39-1,29.14-9.73,28.8-17-.32-6.79-1.93-24.58-12.08-22.64-8.06,1.53-30.92,8.4-38.47,8.76s-21.94-6.18-28.12-5.65C121.36,125.42,119.09,139,119.41,145.82Z"/><path d="M153.93,114.61c.15,3.2,4.49,8.5,8.8,8.3s7.56-5.86,7.41-9-3.63-2.74-7.95-2.53S153.78,111.42,153.93,114.61Z"/><path class="cls-4" d="M180.85,21.46c-3.06,5.52,16.92,16.62,20,11.1a11.43,11.43,0,0,0-20-11.1Z"/><path class="cls-4" d="M123.5,41.33C127,45.7,142.83,33,139.32,28.66A10.13,10.13,0,1,0,123.5,41.33Z"/><ellipse class="cls-5" cx="180.23" cy="82.82" rx="15.44" ry="21.66" transform="translate(-3.67 8.5) rotate(-2.67)"/><circle cx="178.11" cy="86.84" r="8.99"/><ellipse class="cls-5" cx="141.56" cy="84.63" rx="15.44" ry="21.66" transform="translate(-3.79 6.7) rotate(-2.67)"/><circle cx="140.56" cy="87.9" r="8.29"/><path class="cls-6" d="M126.07,83.74c-1.71,3.07,6.21-10.21,14.72-10.61s17.57,10.71,16.12,9.16c-.52-11.05-7.84-19.7-16.36-19.3S125.55,72.68,126.07,83.74Z"/><path class="cls-7" d="M164.73,81.93C163,85,170.94,71.72,179.46,71.32S197,82,195.57,80.49c-.51-11.06-7.83-19.7-16.35-19.31S164.22,70.87,164.73,81.93Z"/><rect class="cls-4" x="167" y="57.53" width="23.04" height="6.91" transform="translate(366.92 51.36) rotate(158.21)"/><rect class="cls-4" x="131.9" y="56.86" width="23.04" height="6.91" transform="translate(255.77 167.97) rotate(-159.03)"/><circle class="cls-2" cx="139.9" cy="88.62" r="3.92"/><circle class="cls-2" cx="177.87" cy="86.62" r="3.23"/><polygon class="cls-8" points="126.1 127.52 141.03 153.02 139.21 138 142.81 125 137.54 124.08 134.07 124.25 129.49 125.62 126.1 127.52"/><polygon class="cls-8" points="208.85 122.49 195.71 149.3 196.13 134.18 191.5 123.88 196.66 122.48 202.4 121.05 204.13 120.97 205.29 120.92 207.06 121.42 208.85 122.49"/><polygon class="cls-8" points="187.81 124.71 179.49 143.06 179.75 133.51 176.58 127.48 187.81 124.71"/><polygon class="cls-8" points="145.15 125.47 157.84 143.49 156.69 134.01 159.85 129.43 145.15 125.47"/><polygon class="cls-8" points="186.26 160.69 173.37 142.57 174.29 152.07 169.2 155.68 173.33 157.23 175.7 158.28 178.65 159.3 183.36 160.82 186.26 160.69"/><polygon class="cls-8" points="146.21 160.92 152.53 141.79 153.29 151.3 158.19 156.2 154.22 158.12 151.96 159.39 150.83 160.02 148.54 160.71 146.21 160.92"/><path class="cls-9" d="M329.78,278.39c.1,2.23-6.34,4.34-14.39,4.72s-7.59,14.55-7.69,12.32-.73-20,7.32-20.4S329.68,276.16,329.78,278.39Z"/><path class="cls-9" d="M352.54,312c-8-10.63-5.75-6.76-10.41-16.28s-7.55-17.68-6.46-18.22,7.47,10.85,10.41,16.29C351.1,303.08,350.34,302.86,352.54,312Z"/><path class="cls-9" d="M336.86,317.27c-3.42-12.86-2.78-8.43-3.52-19s-.35-19.22.87-19.31,2.84,12.86,3.52,19C338.88,308.47,338.26,308,336.86,317.27Z"/><path class="cls-9" d="M315.5,315.35c1.44-13.23.43-8.86,3.55-19s6.59-18.06,7.75-17.7-2,13-3.55,19C320.55,307.87,320.15,307.18,315.5,315.35Z"/><path class="cls-9" d="M327.42,316.84c-1.49-13.22-1.52-8.74-.69-19.31s2.49-19.06,3.7-19,.92,13.13.69,19.31C330.71,308.44,330.16,307.86,327.42,316.84Z"/><path class="cls-2" d="M124.21,485.05c50.08-17.29,35,15.62,39.13-47.74,3.41-52.57,20.44-85.75-3.43-82.09s21,105.52-31.39,100.2C106.1,453.14,101.38,492.93,124.21,485.05Z"/><ellipse class="cls-4" cx="183.31" cy="286.63" rx="40.7" ry="89.14" transform="matrix(1, -0.05, 0.05, 1, -13.18, 8.87)"/><circle class="cls-10" cx="184.04" cy="351.62" r="5.22"/><path class="cls-11" d="M230.83,179.57s6,5.05,39.52-7.16c37.47-13.66,75.1,14.35,81.56,37.87,7.81,28.43-17.66,68.11-17.66,68.11"/><path class="cls-12" d="M52.58,302.11c.51,2.15,7.22,2.41,15,.58s11.2,11.81,10.7,9.66-4.76-19.3-12.54-17.46S52.07,300,52.58,302.11Z"/><path class="cls-12" d="M40,340.34c4.74-12.31,3.64-8,5.49-18.35s2.38-18.92,1.2-19.13-4.17,12.37-5.49,18.36C39,331.46,39.64,331,40,340.34Z"/><path class="cls-12" d="M56.41,341.11c-.24-13.19.37-8.79-1.81-19.08s-4.91-18.42-6.09-18.17.79,13,1.82,19.08C52.09,333.27,52.55,332.63,56.41,341.11Z"/><path class="cls-12" d="M76.26,333.46c-5-12.22-2.82-8.33-8.56-17.15s-11.2-15.42-12.21-14.76,5.43,11.87,8.56,17.14C69.41,327.7,69.61,326.94,76.26,333.46Z"/><path class="cls-12" d="M65.31,338.13c-2.19-13-.94-8.75-4.61-18.6S53.13,302,52,302.45s2.71,12.78,4.61,18.6C59.88,331,60.24,330.32,65.31,338.13Z"/><path class="cls-11" d="M144.41,195.52s-11.44-24.76-40-3.45C71.17,216.84,23.3,210.49,9.06,238.2c-14.74,28.68,41.75,65.34,41.75,65.34"/><path class="cls-2" d="M284.48,485.56c-58.14-14.16-37.75,21.25-49-49.55-9.36-58.75-32-94.27-4.78-92.66S218.14,464.2,276.51,452.7C301.48,447.78,311,492,284.48,485.56Z"/></g></svg>
