<svg xmlns="http://www.w3.org/2000/svg" width="1920" height="1080" viewBox="0 0 1920 1080"><defs><style>.cls-1{fill:#594b35;}.cls-2{fill:#c1a574;}.cls-10,.cls-3,.cls-9{fill:none;}.cls-10,.cls-3{stroke:#548e54;}.cls-15,.cls-3,.cls-9{stroke-miterlimit:10;}.cls-3{stroke-width:23px;}.cls-4{fill:#548e54;}.cls-5{fill:#2e4c2e;}.cls-6{fill:#3481ce;}.cls-7{fill:#21527a;}.cls-15,.cls-8{fill:#efd1ac;}.cls-9{stroke:#3481ce;stroke-linecap:round;stroke-width:15px;}.cls-10{stroke-linejoin:round;stroke-width:22px;}.cls-11{fill:#36ccbe;}.cls-12{fill:#222e38;}.cls-13{fill:#a50f2c;}.cls-14{fill:#fff;}.cls-15{stroke:#bca08b;stroke-width:5px;}.cls-16{fill:#f2e96d;}.cls-17{fill:#afa651;}.cls-18{fill:#1d7c18;}.cls-19{fill:#195914;}.cls-20{fill:#87dd80;}.cls-21{fill:#184914;}.cls-22{fill:#32c956;}.cls-23{fill:#7a1818;}.cls-24{fill:#440e0e;}.cls-25{fill:#b72929;}.cls-26{fill:#f9f9f9;}.cls-27{fill:#490f0f;}.cls-28{fill:#c9bc5f;}.cls-29{fill:#827623;}</style></defs><title>final-victory</title><g id="Layer_6" data-name="Layer 6"><rect class="cls-1" x="269.3" y="86" width="1323.62" height="920" rx="223.81"/><rect class="cls-2" x="301" y="107" width="1256" height="873" rx="223.81"/><path class="cls-3" d="M916,760.89s-30.25-3.46-58,11.81c-56.54,31.12-18.19,96.77-35.26,136.47"/><rect class="cls-4" x="901.07" y="725.59" width="97.25" height="44.45" rx="5.94" transform="translate(-41.63 56.13) rotate(-3.31)"/><path class="cls-5" d="M947.53,760.24l8.71-.51c30.74-1.78,51.3-28.76,49.54-59.06L1004.44,673c-1.76-30.3-25.41-52.37-56.15-50.59l-8.71.5c-30.74,1.78-43.2,26.29-41.44,56.59l-6.48,28.16C893.41,738,916.79,762,947.53,760.24Z"/><rect class="cls-6" x="886.02" y="613.85" width="120.23" height="139.52" rx="60.11" transform="translate(1930.19 1311.4) rotate(176.69)"/><rect class="cls-7" x="960.95" y="616.12" width="1.55" height="44.5" transform="translate(2100.82 825.18) rotate(155.74)"/><ellipse class="cls-7" cx="945.5" cy="617.56" rx="9.48" ry="3.48" transform="translate(-58.18 99.9) rotate(-5.87)"/><ellipse class="cls-8" cx="945.44" cy="617.39" rx="7.82" ry="2.79" transform="translate(-34.1 55.67) rotate(-3.31)"/><circle class="cls-7" cx="951.51" cy="624.97" r="1.35"/><circle class="cls-7" cx="963.44" cy="652.23" r="1.35"/><circle class="cls-7" cx="960.36" cy="645.42" r="1.35"/><circle class="cls-7" cx="957.3" cy="639" r="1.35"/><circle class="cls-7" cx="954.59" cy="631.78" r="1.35"/><rect class="cls-8" x="1079.08" y="526.92" width="6.15" height="18.59" transform="translate(154.18 -236.73) rotate(13.43)"/><path class="cls-8" d="M1092.38,532.44l.85-7.15a3.44,3.44,0,0,0-.31-1.87l-4.77-10a3.37,3.37,0,0,0-2-1.75l-4.71-1.6a3.39,3.39,0,0,0-4.42,2.56L1073.79,529a3.39,3.39,0,0,0,2.67,4l11.87,2.37A3.42,3.42,0,0,0,1092.38,532.44Z"/><rect class="cls-8" x="1084.21" y="525.54" width="15.49" height="5.29" rx="0.77" transform="translate(1903.39 -373.44) rotate(106.17)"/><rect class="cls-8" x="1085.84" y="515.77" width="12.26" height="4.48" rx="0.65" transform="translate(1044.92 -689.68) rotate(62.39)"/><path class="cls-9" d="M1080.23,542.05s-6.75,22.08-19.66,41.27c-26.3,39.08-45.3,41-69.39,52.4"/><path class="cls-10" d="M989.48,755s32.15,3.14,56.19,20.39c49,35.15-9.81,78.89-4,113.11"/><path class="cls-11" d="M840.33,910.92,789,910.21c-.49-14.69,10.6-26.43,24.77-26.24,4.83.07,25.65-2.45,26.07,2.22C840.89,897.47,840,901.25,840.33,910.92Z"/><polygon class="cls-12" points="788.69 913.19 841.01 914.07 840.88 909.98 788.56 909.1 788.69 913.19"/><path class="cls-11" d="M1026,906.17l53.12-4.52c.06-11.28-11.78-19.42-26.45-18.17-5,.43-26.63.11-26.93,3.72C1025,895.92,1026,898.74,1026,906.17Z"/><polygon class="cls-12" points="1079.52 903.91 1025.36 908.64 1025.37 905.5 1079.53 900.77 1079.52 903.91"/><rect class="cls-8" x="771.45" y="579.53" width="6.15" height="18.59" transform="translate(1747.46 589.44) rotate(142.79)"/><path class="cls-8" d="M763.65,589.5,760,583.3a3.45,3.45,0,0,1-.47-1.83l.34-11.06A3.44,3.44,0,0,1,761,568l3.66-3.35a3.41,3.41,0,0,1,5.09.55l9.58,13.66a3.41,3.41,0,0,1-.83,4.74l-9.92,7A3.41,3.41,0,0,1,763.65,589.5Z"/><rect class="cls-8" x="754.57" y="582.79" width="15.49" height="5.29" rx="0.77" transform="translate(721.66 -374.88) rotate(50.05)"/><rect class="cls-8" x="752.07" y="573.88" width="12.26" height="4.48" rx="0.65" transform="translate(1383.75 -141.85) rotate(93.84)"/><path class="cls-9" d="M778.64,593.39s15.08,17.49,34.62,29.84c39.83,25.17,58,19.32,84.63,20"/><path class="cls-8" d="M911.68,466.46c-5.34,66.7,1.1,116.88,24.65,125.48,1.67.61,5,8.33,6.9,8.52,3,.29,4.16-7.81,6.65-9.58,15.82-11.2,21-61.94,11.82-127.95-1.08-7.83-4.86-12.22-5.45-19.61-.71-8.81,1.48-42.12.37-50.2-6.47-47.29-10.85-52.09-24.52-51.61-12.75.45-17,10.52-20.77,53.16-.79,8.81,6,33.59,5.76,43.38C916.86,447.58,912.48,456.42,911.68,466.46Z"/><path class="cls-8" d="M898,448c-9.4,42.81,18.06,116.93,44.59,116S990,487.87,977,446s-10.46,41.07-37,42S907,407,898,448Z"/><path class="cls-13" d="M901.71,456.06c1.4,39.8,19.18,103.82,42.91,103S974.39,495.16,973,455.37s-7,41.79-30.75,42.62S900.32,416.27,901.71,456.06Z"/><ellipse class="cls-14" cx="945.51" cy="400.44" rx="8.92" ry="24.04" transform="translate(-13.46 33.41) rotate(-2.01)"/><ellipse class="cls-14" cx="923.19" cy="400.89" rx="8.92" ry="24.04" transform="translate(-13.49 32.63) rotate(-2.01)"/><path class="cls-15" d="M935.43,437.46c11.67.62,21.25-1,21.38-3.53s-9.22-5.15-20.89-5.76Z"/><path d="M946.82,417.2c-2.52,0-5.43-6-5.74-14.85a32.33,32.33,0,0,1,1.28-10.88c.9-2.72,2.16-4.3,3.46-4.35h0c2.58,0,5.48,6,5.79,14.86a32,32,0,0,1-1.28,10.87c-.9,2.72-2.16,4.31-3.45,4.35Z"/><path d="M945.88,387.62c2.23,0,4.94,6.15,5.23,14.37a31.78,31.78,0,0,1-1.25,10.7c-.82,2.48-1.94,4-3,4-2.24,0-5-6.14-5.24-14.37s2-14.63,4.26-14.71h0m0-1h-.08c-3.18.11-5.52,7.16-5.22,15.74s3.08,15.34,6.24,15.34h.07c3.19-.11,5.52-7.16,5.22-15.74s-3.08-15.34-6.23-15.34Z"/><path d="M923.67,418.09c-2.51,0-5.42-6-5.73-14.86a32,32,0,0,1,1.28-10.87c.9-2.72,2.16-4.31,3.46-4.35h0c2.57,0,5.48,6,5.79,14.85a32.33,32.33,0,0,1-1.28,10.88c-.9,2.72-2.16,4.3-3.46,4.35Z"/><path d="M922.74,388.51c2.23,0,4.94,6.14,5.23,14.37s-2,14.63-4.3,14.71-4.94-6.15-5.23-14.37a31.78,31.78,0,0,1,1.25-10.7c.82-2.48,1.94-4,3-4h0m0-1h-.08c-3.18.11-5.52,7.16-5.22,15.74s3.08,15.34,6.23,15.34h.08c3.18-.11,5.52-7.16,5.22-15.74s-3.08-15.34-6.23-15.34Z"/><rect class="cls-16" x="935.39" y="369.17" width="17.06" height="5.52" transform="translate(1880.72 761.46) rotate(-178.93)"/><rect class="cls-16" x="912.08" y="370.18" width="17.06" height="5.43" transform="translate(1877.51 639.21) rotate(173.5)"/><rect class="cls-8" x="940.06" y="591.74" width="8.53" height="25.79" transform="translate(1909.27 1175.78) rotate(177.99)"/><path class="cls-16" d="M933,356.13c-4.08,9.57,16.84,9.6,37.22,18.29,13.62,5.8,19.3,22.18,27.89,19.76,3.29-3.42,3.83-5.29,5.19-8.46,1.52-3.57,3-5.84,1.38-10.43-4.65-7.46-16.85-11.17-29-17.87C955,348.09,937.1,346.57,933,356.13Z"/><path class="cls-16" d="M930.36,352.94c-.46,10.39,19.13,3.07,41.27,4.06,14.79.65,25.85,14,33,8.71,1.88-4.35,1.73-6.29,1.89-9.74.17-3.88.75-6.52-2.37-10.25-7-5.35-19.69-4.54-33.42-6.56C948.13,337.69,930.82,342.55,930.36,352.94Z"/><path class="cls-16" d="M929.05,350.63c2.8,8.63,16.59-3.33,35-9.27,12.3-4,25.42,3.57,29.69-2.95.22-4.14-.5-5.68-1.42-8.55-1-3.23-1.37-5.57-5.07-7.66-7.33-2.25-17.49,2.29-29.33,4.83C938.94,332.73,926.26,342,929.05,350.63Z"/><path class="cls-16" d="M925.47,350.05c5.65,7.11,14.37-8.94,29.51-21,10.12-8,25.06-5.57,26.77-13.18-1.26-3.95-2.46-5.14-4.34-7.5-2.11-2.65-3.23-4.73-7.43-5.4-7.65.47-15.57,8.29-25.77,14.82C928.44,329.82,919.82,342.94,925.47,350.05Z"/><path class="cls-17" d="M934.41,353c4.24,7.44-12.86,9.45-28.71,18.49-10.59,6.05-13.67,20-20.93,18.82-3-2.48-3.64-4-5-6.42-1.59-2.78-3-4.5-2.12-8.41,3.09-6.53,12.71-10.73,22-17.37C915.65,348.46,930.16,345.51,934.41,353Z"/><path class="cls-17" d="M936.28,350.08c1.36,8.46-15.36,4.34-33.37,7.25-12,1.94-19.82,13.91-26.21,10.27-2-3.38-2-5-2.47-7.79-.51-3.16-1.24-5.26,1-8.61,5.2-5,15.68-5.59,26.71-8.54C920.29,339.3,934.91,341.63,936.28,350.08Z"/><path class="cls-17" d="M937,348.57c-1.46,7.33-13.88-1.14-29.5-4.25-10.44-2.08-20.46,5.34-24.57.41a15.61,15.61,0,0,1,.35-7.13c.55-2.73.6-4.68,3.42-6.75,5.78-2.53,14.52.21,24.45,1.16C927.16,334.87,938.41,341.24,937,348.57Z"/><path class="cls-17" d="M939.83,347.76c-4,6.35-12.6-5.94-26.14-14.34-9-5.61-21-2.18-23.15-8.24a15.54,15.54,0,0,1,2.84-6.55c1.47-2.37,2.19-4.17,5.56-5.12,6.31-.34,13.53,5.29,22.49,9.67C935.47,331.5,943.77,341.4,939.83,347.76Z"/><path class="cls-16" d="M938,352.49c4.24,7.43-12.86,9.44-28.71,18.49-10.59,6-13.67,20-20.93,18.82-3-2.48-3.64-4-5.05-6.43-1.58-2.77-3-4.49-2.12-8.4,3.09-6.54,12.72-10.73,22-17.37C919.22,348,933.73,345.05,938,352.49Z"/><path class="cls-16" d="M938.48,350.28c1.37,8.46-15.35,4.34-33.37,7.25-12,1.94-19.81,13.91-26.2,10.27-2-3.38-2-5-2.47-7.79-.51-3.16-1.24-5.26,1-8.61,5.19-5,15.67-5.59,26.71-8.54C922.5,339.5,937.12,341.83,938.48,350.28Z"/><path class="cls-16" d="M940.52,348.11c-1.46,7.33-13.88-1.14-29.5-4.25-10.44-2.09-20.45,5.33-24.57.41a15.45,15.45,0,0,1,.36-7.13c.54-2.74.59-4.68,3.41-6.75,5.78-2.53,14.52.21,24.45,1.16C930.74,334.41,942,340.78,940.52,348.11Z"/><path class="cls-16" d="M942,348c-3.94,6.35-12.6-5.94-26.13-14.34-9-5.61-21-2.18-23.15-8.24a15.54,15.54,0,0,1,2.83-6.55c1.47-2.37,2.2-4.18,5.57-5.12,6.3-.35,13.52,5.29,22.49,9.67C937.67,331.69,946,341.6,942,348Z"/><path d="M693.41,292.45l2.16-1q-1.43-15.24-2.39-30.58-3.27-35.16-4.29-70.82,13.4-3.57,26.82-6.58-1.86,36-1.14,71.58.85,24.32,2.86,48.4-15.81,7.78-31.18,16.55-16-17.2-32.86-33.77-26.5-25-55.18-48.34Q611.38,228,625,218.69q24.09,24.19,46.53,49.57Q682.67,280.22,693.41,292.45Z"/><path d="M742.14,179c-1.08-3.6-.19-7.39,2.76-11.35a21.45,21.45,0,0,1,12-8c5-1.35,9.1-1.33,12.25,0s5.21,4.05,6.2,8.09,0,7.94-2.9,11.75A20.87,20.87,0,0,1,761,187.12c-4.72,1.3-8.75,1.18-12.13-.4A12,12,0,0,1,742.14,179Zm36.43,15.53q3.85,20.66,7.88,41.26,6,18.9,11.81,37.83Q786.5,278.74,775,284.35q-4.77-19.92-9.39-39.9-6.79-19.14-13.73-38.26Q765.09,200.07,778.57,194.5Z"/><path d="M851.84,201.49c-6,.84-10.43,3.32-13.12,7.33s-3.39,9.64-2.16,16.83,3.8,12.7,7.65,16.57,8.72,5.36,14.7,4.53a18.7,18.7,0,0,0,8.68-3.67,29.5,29.5,0,0,0,6.17-5.81l1.85-2.91q5.34,3.84,10.54,7.76c-.33.59-.74,1.42-1.22,2.48a46.23,46.23,0,0,1-3.68,5.77,55.8,55.8,0,0,1-6.25,7.52,42,42,0,0,1-8.76,6.49,32.54,32.54,0,0,1-11.66,4.09c-9.2,1.39-17.2-.65-24.33-6.26s-11.94-13.7-14.18-24.48a48.63,48.63,0,0,1,7.34-38.14c7.91-12,19-19,32.44-20.72a50.82,50.82,0,0,1,12.51,0,56.82,56.82,0,0,1,13,3.19q-6.5,11-12.49,22.08A29,29,0,0,0,851.84,201.49Z"/><path d="M913.94,179.23q-.36-9.16-.73-18.34,14.64-2.77,29.5-4.91-1.47,11.36-2.84,22.73,12.86,0,25.71.48-1.43,6.85-2.82,13.72-11.85-.42-23.71-.39-.49,17.6-.92,35.19,0,7.92,1.78,10.52c1.16,1.75,3.27,2.61,6.35,2.64a61.58,61.58,0,0,0,12.38-1.6q.39,6,.76,12c-8.51,5.9-15.69,8.93-21.9,9A21.24,21.24,0,0,1,922,254.35c-4.15-4-6.41-9.23-6.69-15.85q.18-9.45.41-18.89-.63-13.29-1.27-26.58-7.17.28-14.34.73.72-7,1.48-13.92Q907.78,179.48,913.94,179.23Z"/><path d="M999.49,191.17c10.51-9.07,22.66-12.76,35.78-10.87s22.74,7.07,28.61,15.06,7.49,17.48,5.2,28.36c-3,14.51-9.94,25.61-20.06,33.7s-21.11,11.21-33.51,9.57c-10.21-1.34-18.25-5.67-24.5-13.26s-9.18-16.61-8.45-27.26C983.53,212.15,989,200.26,999.49,191.17Zm45.75,36.91c2.82-16-2.55-25.3-16.2-27.23-14.19-1.95-22.1,5-23.64,20.18-.83,7.93.42,14.32,3.64,19.2a18.8,18.8,0,0,0,13.81,8.56c6,.84,10.88-.46,14.68-4S1043.92,235.71,1045.24,228.08Z"/><path d="M1102,199q13.08,1.06,26.24,2.66c-1.2,8.66-2.75,16.75-4.57,24.29,16.63-11.54,31-15.08,41.91-11.15q-5.58,12-11.09,23.93c-7.57-2.71-13.78-4.14-18.54-4.45a39.06,39.06,0,0,0-15.52,2.48l-1.74,5.8q-4.62,19.27-9.37,38.51-12.76-1.66-25.47-2.76,6.18-19.53,12.51-39A222.81,222.81,0,0,0,1102,199Z"/><path d="M1147.15,333.48q15.9-14.49,32.93-28.16.5-18.44.18-37-1.5-22.85-4.37-45.86,14.16,3.16,28.31,7-.73,19.23-2.2,38.29-.45,9.15-1.08,18.27l2.37,1.12q4.83-4.5,9.75-8.94,15.59-15.07,32-29.53,11.43,7.34,22.58,15.15a782.82,782.82,0,0,0-69,51.93q-16.56,15.19-32.13,31.11Q1157,340,1147.15,333.48Z"/><path class="cls-18" d="M1381.71,664c-1.17.71-5.09,5.39-6.15,6.21a34.78,34.78,0,1,0,51.1,9.46c-1.25-2.07-4.07-1.52-5.65-3.23s-8.25,1.63-10.19.25c-1.57-1.1,1.25-8.49-.47-9.32s-3.07,3.48-4.87,2.95-1.78-12.77-4.35-4.76c-.51,1.57-4.07,6.39-5.73,6.42-1.47,0-.59-19-3.66-8.71-1,3.41-3,8.84-4.79,9.39C1384.36,673.43,1384.13,662.49,1381.71,664Z"/><circle class="cls-18" cx="1436.68" cy="791.21" r="39.9"/><ellipse class="cls-19" cx="1323.46" cy="791.38" rx="106.25" ry="64.03" transform="translate(-218.54 799.3) rotate(-31.17)"/><ellipse class="cls-18" cx="1333.76" cy="788.69" rx="106.25" ry="61" transform="translate(-215.66 804.24) rotate(-31.17)"/><path class="cls-20" d="M1232.52,772c-31.08,19.58,42.08,135.7,73.16,116.11s39.9-61.45,19.7-93.52S1263.6,752.42,1232.52,772Z"/><path class="cls-21" d="M1253.29,773.09c-9,5.43-14.33,18.92-9.38,33.79,3.33,10,13.11,11.83,19.77,22.83,5.51,9.11,5.17,22.9,11.62,32.56,10.15,15.23,28.52,16.91,38.51,10.86,9.31-5.63,15.46-18.4,5-31.21-8.32-10.15-13.26-20.12-19.53-30.48s-12.16-24.43-17.62-32.72C1268.35,758.56,1262.61,767.46,1253.29,773.09Z"/><path d="M1308.73,789.44c-4.39,2.66-8.53,12.8-5,18.72s14,6.17,18.4,3.51,1.06-7.2-2.52-13.12S1313.11,786.79,1308.73,789.44Z"/><path class="cls-20" d="M1434.86,764c-14.86-.14-15.37,53.68-.51,53.82a26.91,26.91,0,0,0,.51-53.82Z"/><path class="cls-20" d="M1375.8,697.14c-4.39,10.46,33.49,26.38,37.89,15.92a20.55,20.55,0,0,0-37.89-15.92Z"/><path class="cls-22" d="M1246.83,780.38c.71.14-1.19,5.3,1.61,10.29,2.41,4.29,5.6,3.59,7.86,7.91s-.32,5.8,1.61,10.28c2.52,5.87,7.57,4.86,9.11,10,1.45,4.82-2.57,7.3-.65,11.65,1.63,3.67,5,3,7.24,6.88,1.89,3.25,1.25,6.76.48,11a33.3,33.3,0,0,1-9,18.14c-1.5,1.48-6.26,4.17-15.79,9.54-7.16,4-10.34,5.66-10.76,5.11-.69-.91,6.71-7,6-7.87-1-1.28-16.3,9.65-18.78,7.14-1.44-1.46,2.84-6.06,1.39-7.88-2.89-3.63-23.67,10-26.91,6.43-3-3.37,13-17.72,8.69-26.37-2.37-4.73-9.29-4.67-9-7.23.51-4.38,21.12-6,21.53-10.21.25-2.53-6.87-3.65-6.61-5.85.3-2.58,14.43.86,21.15-5.76,3.66-3.6,4.26-7,4.29-20.89C1240.31,790,1243.33,779.68,1246.83,780.38Z"/><rect class="cls-20" x="1374.99" y="786.85" width="31.64" height="9.49" transform="translate(1954.85 2289.21) rotate(-140.28)"/><rect class="cls-20" x="1353.05" y="750.58" width="31.64" height="9.49" transform="translate(799.43 2211.37) rotate(-97.53)"/><rect class="cls-21" x="1314" y="755" width="44" height="10" transform="translate(106.95 -163) rotate(7.27)"/><rect class="cls-21" x="1314" y="753" width="44" height="10" transform="translate(2324.03 -418.12) rotate(100.46)"/><rect class="cls-21" x="1340" y="805" width="44" height="10" transform="translate(113.49 -165.89) rotate(7.27)"/><rect class="cls-21" x="1340" y="803" width="44" height="10" transform="translate(2403.92 -384.61) rotate(100.46)"/><ellipse class="cls-23" cx="460.1" cy="669.05" rx="39.48" ry="35.41" transform="translate(-316.15 907.28) rotate(-72.55)"/><path class="cls-23" d="M416.25,748.36c19.35,10.76,31.07,27,20,48.87s-35.73,30.87-55.08,20.11-26.07-37.21-15-59.07S396.89,737.6,416.25,748.36Z"/><ellipse class="cls-24" cx="544.64" cy="790.1" rx="74.96" ry="122.8" transform="translate(-412.43 860.08) rotate(-59.6)"/><ellipse class="cls-23" cx="534.77" cy="784.61" rx="74.96" ry="122.8" transform="translate(-412.57 848.85) rotate(-59.6)"/><path class="cls-25" d="M665.68,737.27c40,21.69-54.61,212.94-94.66,191.25s-51.32-82.08-25.18-134.89S625.63,715.58,665.68,737.27Z"/><path class="cls-24" d="M660.9,743.12c10.58,5.88,8.52,40.73,3.19,60.1-3.59,13-18.69,15.57-26.12,30.24-6.15,12.15-1.9,33.53-9.12,46.48-11.37,20.4-40.84,46.47-52.63,39.91-11-6.11-39.12-23.57-27.29-41,9.37-13.77,40.15-50.85,47.15-64.66s8.36-46,14.48-57.06C625.43,730.18,649.9,737,660.9,743.12Z"/><path d="M579.89,782.18c5.17,2.87,10.28,15.27,6.28,23.16s-16.11,9.35-21.29,6.47-1.44-9,2.55-16.89S574.71,779.3,579.89,782.18Z"/><path class="cls-25" d="M402.64,756.71c11.75-1.23,13.2,45.08,1.45,46.32s-21.6-8.13-22-20.92S390.89,758,402.64,756.71Z"/><path class="cls-25" d="M484.22,665.86c4.27,10.08-30.16,29.3-34.44,19.22s0-22.56,9.48-27.87S480,655.77,484.22,665.86Z"/><polygon class="cls-25" points="490.53 772.99 458.21 805.97 449.75 795.96 482.07 762.99 490.53 772.99"/><polygon class="cls-25" points="507.48 695.35 502.9 742.19 490.11 741.56 494.69 694.72 507.48 695.35"/><polygon class="cls-26" points="624.89 740.73 654.49 789.31 631.15 773.7 606.53 769.86 609.48 759.29 612.7 752.94 618.86 745.52 624.89 740.73"/><polygon class="cls-26" points="546.38 891.05 601.97 888.32 576.54 876.81 563.39 859.82 556.7 868.3 549.46 877.85 547.86 881.02 546.78 883.14 546.11 886.83 546.38 891.05"/><polygon class="cls-26" points="567.89 853.61 605.36 852.98 589.32 845.72 582.01 834.9 567.89 853.61"/><polygon class="cls-26" points="605.33 774.62 624.44 812.93 609.71 803.08 599.43 805.25 605.33 774.62"/><polygon class="cls-26" points="628.85 879.94 609.75 841.16 624.72 850.61 635.02 844.03 634.08 853 633.81 858.28 633.01 864.61 631.53 874.64 628.85 879.94"/><polygon class="cls-26" points="663.2 805.4 626.13 801.64 641.26 810.78 645.21 823.92 651.77 818.07 655.78 814.88 657.79 813.28 660.88 809.57 663.2 805.4"/><rect class="cls-27" x="506.24" y="731.98" width="51.57" height="11" transform="translate(-365.65 592.2) rotate(-45)"/><rect class="cls-27" x="506.24" y="728.98" width="51.57" height="11" transform="translate(388.86 1630.03) rotate(-135)"/><rect class="cls-27" x="474.42" y="799.74" width="51.57" height="11" transform="translate(-154.98 120.15) rotate(-11.87)"/><rect class="cls-27" x="476.05" y="797.23" width="51.57" height="11" transform="translate(-180.45 1458.99) rotate(-101.87)"/><path class="cls-28" d="M525.92,194a30.75,30.75,0,0,0-24.34,10.38,97.08,97.08,0,0,0-80.3-.67,30.83,30.83,0,1,0-39.7,47,51.56,51.56,0,0,0-.76,8.82c0,35.46,35.77,64.2,79.89,64.2s79.9-28.74,79.9-64.2a51.54,51.54,0,0,0-.62-8A30.82,30.82,0,0,0,525.92,194Z"/><path class="cls-29" d="M515,212.93c-5,7.44,21.92,25.64,26.95,18.2A16.26,16.26,0,0,0,515,212.93Z"/><path class="cls-29" d="M384,229.51c5,7.47,32-10.58,27-18a16.26,16.26,0,1,0-27,18Z"/><circle cx="426" cy="241.61" r="7.6"/><rect x="435.5" y="235.91" width="69.01" height="11.4" rx="5.7"/><circle cx="426" cy="261.87" r="7.6"/><rect x="436.76" y="256.17" width="69.01" height="11.4" rx="5.7"/><circle cx="426" cy="282.13" r="7.6"/><rect x="436.76" y="276.43" width="69.01" height="11.4" rx="5.7"/><path class="cls-28" d="M1481.36,201.29a35,35,0,0,0-27.66,11.8,110.4,110.4,0,0,0-91.28-.76,35,35,0,1,0-45.13,53.44,59.47,59.47,0,0,0-.86,10c0,40.3,40.66,73,90.81,73s90.82-32.67,90.82-73a59.24,59.24,0,0,0-.7-9.07,35,35,0,0,0-16-65.44Z"/><path class="cls-29" d="M1468.93,222.78c-5.71,8.46,24.92,29.15,30.63,20.69a18.48,18.48,0,0,0-30.63-20.69Z"/><path class="cls-29" d="M1320,241.63c5.66,8.49,36.4-12,30.74-20.52A18.48,18.48,0,1,0,1320,241.63Z"/><path d="M1472.86,274.81c0,23.05-69.11,37.42-99.32,37.42-16.27,0,68.55-15.07,69.81-37.42,1.08-19.14-74.38-30.95-60.45-30.95C1413.11,243.86,1472.86,251.75,1472.86,274.81Z"/><polygon points="1397.29 258.24 1363.15 241.49 1402.16 232.23 1397.29 258.24"/></g></svg>
