<svg xmlns="http://www.w3.org/2000/svg" width="110" height="103" viewBox="0 0 110 103"><defs><style>.cls-1{fill:#e8e8e8;}</style></defs><title>frontpage-settings-button</title><g id="Layer_2" data-name="Layer 2"><path class="cls-1" d="M106.5,60.52v-18H96.21a42.19,42.19,0,0,0-3.64-10.17l8.63-7.82L89.09,11.12l-8,7.24A42,42,0,0,0,64,10.29V0H46V10.29A41.8,41.8,0,0,0,30.17,17.4L21.83,9.07,9.07,21.82l9.1,9.1a42,42,0,0,0-4.38,11.56H3.5v18H13.79a41.73,41.73,0,0,0,5.58,13.55L10.24,83.2,23,96l9.06-9.06A42,42,0,0,0,46,92.71V103H64V92.71a41.68,41.68,0,0,0,15.14-6.64l9.93,9L101.2,81.7l-9.8-8.88a41.7,41.7,0,0,0,4.81-12.3ZM55,68.67A17.17,17.17,0,1,1,72.17,51.5,17.17,17.17,0,0,1,55,68.67Z"/></g></svg>
