<svg xmlns="http://www.w3.org/2000/svg" width="1920" height="1080" viewBox="0 0 1920 1080"><defs><style>.cls-1{fill:#594b35;}.cls-2{fill:#c1a574;}.cls-3{fill:#548e54;}.cls-4{fill:#2e4c2e;}.cls-5{fill:#3481ce;}.cls-6{fill:#21527a;}.cls-14,.cls-7{fill:#efd1ac;}.cls-8,.cls-9{fill:none;}.cls-8{stroke:#3481ce;stroke-linecap:round;stroke-width:15px;}.cls-14,.cls-8{stroke-miterlimit:10;}.cls-9{stroke:#548e54;stroke-linejoin:round;stroke-width:22px;}.cls-10{fill:#36ccbe;}.cls-11{fill:#222e38;}.cls-12{fill:#a50f2c;}.cls-13{fill:#fff;}.cls-14{stroke:#bca08b;stroke-width:5px;}.cls-15{fill:#f2e96d;}.cls-16{fill:#afa651;}.cls-17{fill:#7a1818;}.cls-18{fill:#440e0e;}.cls-19{fill:#b72929;}.cls-20{fill:#490f0f;}.cls-21{fill:#420b0b;}.cls-22{fill:#f9f9f9;}.cls-23{fill:#1d7c18;}.cls-24{fill:#195914;}.cls-25{fill:#87dd80;}.cls-26{fill:#184914;}.cls-27{fill:#32c956;}</style></defs><title>gameover-screen</title><g id="Layer_6" data-name="Layer 6"><rect class="cls-1" x="317.3" y="59" width="1323.62" height="920" rx="223.81"/><rect class="cls-2" x="351" y="78" width="1256" height="873" rx="223.81"/><rect class="cls-3" x="536.66" y="785.35" width="97.25" height="44.45" rx="5.94" transform="translate(-299.58 347.42) rotate(-26.59)"/><path class="cls-4" d="M589.92,821.28l7.8-3.9c27.53-13.79,35.76-46.69,22.17-73.83l-12.16-24.86c-13.59-27.15-44-38.07-71.57-24.29l-7.8,3.9c-27.53,13.79-29.29,41.23-15.71,68.37l5.18,28.42C531.42,822.23,562.39,835.07,589.92,821.28Z"/><rect class="cls-5" x="498.24" y="681.68" width="120.23" height="139.52" rx="60.11" transform="translate(1394.01 1173.47) rotate(153.41)"/><rect class="cls-6" x="554.02" y="681.48" width="1.55" height="44.5" transform="translate(1448.5 769.49) rotate(132.46)"/><ellipse class="cls-6" cx="531.67" cy="691.03" rx="9.48" ry="3.48" transform="translate(-269.24 346.44) rotate(-29.15)"/><ellipse class="cls-7" cx="531.55" cy="690.89" rx="7.82" ry="2.79" transform="translate(-253.04 311.02) rotate(-26.59)"/><circle class="cls-6" cx="540.12" cy="695.46" r="1.35"/><circle class="cls-6" cx="561.85" cy="715.79" r="1.35"/><circle class="cls-6" cx="556.33" cy="710.75" r="1.35"/><circle class="cls-6" cx="550.98" cy="706.05" r="1.35"/><circle class="cls-6" cx="545.64" cy="700.5" r="1.35"/><rect class="cls-7" x="543.74" y="578.76" width="6.15" height="18.59" transform="translate(-179.53 930.46) rotate(-72.32)"/><path class="cls-7" d="M543.81,577.58l-7.07-1.38a3.3,3.3,0,0,0-1.89.17l-10.31,4a3.38,3.38,0,0,0-1.89,1.84l-1.94,4.57a3.41,3.41,0,0,0,2.22,4.61L539,595.86a3.4,3.4,0,0,0,4.18-2.37l3.24-11.67A3.39,3.39,0,0,0,543.81,577.58Z"/><rect class="cls-7" x="531.78" y="575.04" width="15.49" height="5.29" rx="0.77" transform="translate(235.43 -151.93) rotate(20.42)"/><rect class="cls-7" x="523.25" y="574.68" width="12.26" height="4.48" rx="0.65" transform="translate(-185.38 257.24) rotate(-23.36)"/><path class="cls-8" d="M552.49,590.4s21.52,8.37,39.69,22.66c37,29.12-19.37,67.15-9.83,92"/><path class="cls-9" d="M614.8,814.67s14.6,18.76,56.44-2.09c54-26.91,22.17,76.34,41.07,105.46"/><path class="cls-10" d="M704.83,940.51l47-25.14c-4.41-10.39-18.5-13.19-31.48-6.24-4.43,2.37-24.43,10.62-23.28,14.06C699.87,931.48,701.93,933.67,704.83,940.51Z"/><polygon class="cls-11" points="753.13 917.27 705.25 943.02 704.01 940.13 751.89 914.38 753.13 917.27"/><rect class="cls-7" x="432.08" y="633.85" width="6.15" height="18.59" transform="translate(551.33 1410.93) rotate(-154.52)"/><path class="cls-7" d="M429.57,633.79l3.83-6.11a3.44,3.44,0,0,1,1.41-1.26l10-4.77a3.41,3.41,0,0,1,2.64-.12l4.66,1.71a3.4,3.4,0,0,1,1.84,4.77l-7.74,14.78a3.41,3.41,0,0,1-4.59,1.44l-10.73-5.62A3.39,3.39,0,0,1,429.57,633.79Z"/><rect class="cls-7" x="424.82" y="628.09" width="15.49" height="5.29" rx="0.77" transform="translate(1181.49 475.59) rotate(112.74)"/><rect class="cls-7" x="432.83" y="620.57" width="12.26" height="4.48" rx="0.65" transform="translate(1089.7 1019.17) rotate(156.52)"/><path class="cls-8" d="M433,648.89s-8.63,21.42-10.63,44.46c-4.08,46.93,79.23,29.49,90.85,53.45"/><path class="cls-9" d="M624.78,809.66s23.7-21.94,52.56-28.46c58.82-13.28,52.46,59.74,81.93,78.09"/><path class="cls-10" d="M763.2,878l31.91-42.71c-8.4-7.54-22.35-4.09-31.16,7.7-3,4-17.61,20-15.11,22.61C754.88,871.88,757.67,873,763.2,878Z"/><polygon class="cls-11" points="797.08 836.41 764.64 880.04 762.3 877.95 794.74 834.32 797.08 836.41"/><path class="cls-7" d="M440.88,565.59c21.46,63.38,47.21,106.92,72.24,105.52,1.78-.1,7.93,5.66,9.7,5.1,2.89-.92.74-8.81,2.33-11.42,10.11-16.54-5.22-65.19-39.71-122.22-4.09-6.76-9.3-9.3-12.76-15.85-4.13-7.81-15.29-39.28-19.49-46.26-24.64-40.88-30.56-43.56-42.92-37.72-11.54,5.45-11.45,16.38,1.92,57,2.76,8.4,18.78,28.49,22.44,37.58C438.18,546.2,437.65,556.05,440.88,565.59Z"/><path class="cls-7" d="M542.49,632.77c-6.15-43.39-57.77-103.25-82.31-93.11s-17.78,87.89,9,122.59-4.55-42.14,20-52.28S548.38,674.33,542.49,632.77Z"/><path class="cls-12" d="M536.19,626.51C521,589.71,482,535.94,460,545s-5.56,70.26,9.65,107.06-8-41.61,13.92-50.68S551.41,663.32,536.19,626.51Z"/><ellipse class="cls-13" cx="445.88" cy="491.58" rx="8.92" ry="24.04" transform="translate(-167.26 237.58) rotate(-25.29)"/><ellipse class="cls-13" cx="425.55" cy="500.81" rx="8.92" ry="24.04" transform="translate(-173.15 229.78) rotate(-25.29)"/><path class="cls-14" d="M451.24,529.56c11-4,19.14-9.28,18.25-11.69s-10.5-1.08-21.47,3Z"/><path d="M455.29,510.37c-2.44,0-6.65-4.66-9.48-12.46-3.07-8.46-2.57-15.08-.17-16a1.93,1.93,0,0,1,.6-.1c2.44,0,6.65,4.66,9.48,12.46,3.06,8.46,2.56,15.08.17,15.94a1.73,1.73,0,0,1-.6.11Z"/><path d="M446.24,482.36c2.22,0,6.29,4.64,9,12.13a31.72,31.72,0,0,1,2.09,10.56c0,2.61-.62,4.38-1.62,4.74a1.27,1.27,0,0,1-.44.08c-2.21,0-6.29-4.64-9-12.13-2.84-7.83-2.59-14.54-.47-15.3a1.18,1.18,0,0,1,.43-.08m0-1a2.29,2.29,0,0,0-.78.14c-3,1.08-3,8.51-.12,16.58,2.68,7.41,7,12.79,9.94,12.79a2.29,2.29,0,0,0,.78-.14c3-1.08,3.05-8.51.13-16.58-2.69-7.41-6.95-12.79-9.95-12.79Z"/><path d="M432.45,518.43c-2.45,0-6.32-4.94-8.55-13.21a32.29,32.29,0,0,1-1.22-10.89c.26-2.85,1.13-4.68,2.38-5a1.74,1.74,0,0,1,.45-.06c2.46,0,6.33,4.95,8.56,13.22a32.26,32.26,0,0,1,1.22,10.88c-.27,2.86-1.14,4.69-2.39,5a1.68,1.68,0,0,1-.45.06Z"/><path d="M425.51,489.75c2.23,0,6,5.17,8.08,12.85a32,32,0,0,1,1.2,10.71c-.24,2.59-1,4.3-2,4.58a1.12,1.12,0,0,1-.32,0c-2.22,0-6-5.16-8.07-12.85a31.68,31.68,0,0,1-1.2-10.7c.24-2.59,1-4.31,2-4.59a1.75,1.75,0,0,1,.32,0m0-1a2.32,2.32,0,0,0-.58.08c-3.07.83-3.75,8.22-1.52,16.52,2.1,7.78,6,13.58,9,13.58a2.25,2.25,0,0,0,.58-.07c3.08-.83,3.76-8.23,1.52-16.52-2.1-7.78-6-13.59-9-13.59Z"/><rect class="cls-15" x="424.62" y="463.25" width="17.06" height="5.52" transform="translate(1010.29 733.75) rotate(157.79)"/><rect class="cls-15" x="403.59" y="473.4" width="17.06" height="5.43" transform="translate(1006.27 684.7) rotate(150.22)"/><rect class="cls-7" x="521.21" y="666.72" width="8.53" height="25.79" transform="translate(1290.92 1069.63) rotate(154.71)"/><path class="cls-15" d="M416.89,455.81c0,10.4,19.26,2.16,41.42,2.08,14.8-.05,26.49,12.76,33.42,7.14,1.68-4.45,1.44-6.37,1.42-9.83,0-3.88.45-6.55-2.85-10.13-7.22-5-19.88-3.59-33.69-4.95C433.91,439.73,416.86,445.41,416.89,455.81Z"/><path class="cls-15" d="M413.18,453.93c3.69,9.73,18.79-4.74,39.51-12.59,13.85-5.24,29.29,2.65,33.81-5,0-4.75-.9-6.47-2.12-9.7-1.37-3.63-1.88-6.29-6.22-8.48-8.52-2.15-19.89,3.61-33.29,7.19C423.48,432.89,409.5,444.2,413.18,453.93Z"/><path class="cls-15" d="M411.07,452.32c6,6.83,13.92-9.61,28.48-22.35,9.72-8.51,24.76-6.76,26.1-14.44-1.44-3.88-2.7-5-4.68-7.28-2.24-2.56-3.46-4.58-7.68-5.05-7.63.84-15.17,9-25,16C413.07,432,405.09,445.49,411.07,452.32Z"/><path class="cls-15" d="M407.55,453.2c8,4.3,9.66-13.88,18.82-30.92,6.12-11.38,20.81-15,19.38-22.68-2.71-3.14-4.29-3.75-6.95-5.18-3-1.61-4.84-3.07-9-2-6.84,3.46-11,13.77-17.81,23.8C402.29,433.45,399.55,448.9,407.55,453.2Z"/><path class="cls-16" d="M416.9,452.34c6.84,5.15-8.08,13.76-19.06,28.33-7.33,9.74-4.66,23.76-11.79,25.56-3.75-1.09-4.9-2.2-7.18-3.91-2.55-1.92-4.54-2.94-5.27-6.88.26-7.23,7.44-14.88,13.36-24.66C397.9,455.63,410.06,447.18,416.9,452.34Z"/><path class="cls-16" d="M417.49,449c4.6,7.23-12.39,10.06-27.79,19.85-10.29,6.54-12.7,20.61-20,19.79-3.14-2.34-3.83-3.78-5.35-6.18-1.72-2.7-3.22-4.34-2.52-8.29,2.78-6.68,12.19-11.33,21.16-18.4C398.54,445.38,412.89,441.74,417.49,449Z"/><path class="cls-16" d="M417.51,447.31c1.56,7.31-13.2,4.44-28.78,7.75-10.41,2.22-16.68,13-22.41,10.09a15.63,15.63,0,0,1-2.49-6.68c-.58-2.74-1.31-4.54.47-7.56,4.31-4.61,13.43-5.54,22.92-8.59C403.11,438.6,416,440,417.51,447.31Z"/><path class="cls-16" d="M419.83,445.43c-1.11,7.39-13.92-.48-29.67-2.85-10.53-1.58-20.18,6.31-24.52,1.59a15.51,15.51,0,0,1,0-7.14c.42-2.76.37-4.71,3.09-6.91,5.66-2.8,14.52-.48,24.48,0C409.4,432.21,420.94,438,419.83,445.43Z"/><path class="cls-15" d="M420,450.5c6.84,5.15-8.08,13.76-19.06,28.34-7.34,9.73-4.66,23.76-11.79,25.55-3.75-1.08-4.91-2.19-7.18-3.9-2.55-1.93-4.54-2.94-5.27-6.88.26-7.23,7.44-14.89,13.36-24.66C401,453.79,413.16,445.35,420,450.5Z"/><path class="cls-15" d="M419.59,448.28c4.6,7.22-12.39,10.05-27.79,19.84-10.29,6.54-12.7,20.61-20,19.79-3.13-2.33-3.82-3.78-5.35-6.18-1.71-2.7-3.22-4.34-2.52-8.29,2.78-6.68,12.19-11.33,21.16-18.4C400.65,444.69,415,441.05,419.59,448.28Z"/><path class="cls-15" d="M420.61,445.47c1.55,7.32-13.2,4.44-28.78,7.76-10.41,2.21-16.68,13-22.41,10.09a15.62,15.62,0,0,1-2.49-6.69c-.58-2.73-1.31-4.54.47-7.55,4.31-4.62,13.42-5.55,22.92-8.6C406.2,436.76,419.05,438.16,420.61,445.47Z"/><path class="cls-15" d="M421.93,444.74c-1.11,7.39-13.92-.48-29.67-2.85-10.52-1.58-20.17,6.31-24.52,1.59a15.49,15.49,0,0,1,0-7.14c.41-2.76.36-4.71,3.08-6.91,5.66-2.8,14.52-.48,24.48,0C411.5,431.52,423,437.34,421.93,444.74Z"/><path d="M740.63,227.88c-10,4.88-19.57,6-29.09,3.1s-17.27-9.14-23-19.24c-6.56-11.48-8.08-23.51-3.89-36.09s12.95-22.22,25.9-28.31A80.14,80.14,0,0,1,725.37,142a46.49,46.49,0,0,1,10.46-1.7l3.19.1q-.67,9.33-1.12,18.64a50.43,50.43,0,0,0-12.35.54A43.69,43.69,0,0,0,713,163.08c-7,3.35-11.56,8.22-13.6,14.42s-1.21,12.63,2.32,19.29c4.77,9,10.36,15,16.63,18.18s12.57,3.16,19.08,0a52.12,52.12,0,0,0,11.31-7.25q-3.83-8.5-7.67-17-7.92,3.58-15.77,7.4c-1.37-3.83-2.73-7.68-4.08-11.52Q736.11,179.4,751.3,173q3.21,9.28,6.48,18.55,4.47,9.41,8.91,18.83C756.45,218.46,747.9,224.35,740.63,227.88Z"/><path d="M788.62,201c-4-1.71-7-4.91-8.81-9.67s-1-9.79,2.55-15.08,8.92-9.15,16-11.48q4.33-1.44,8.68-2.8c-.2-.65-.4-1.3-.61-1.95q-1.75-5.62-5-6.87c-2.17-.82-5.66-.46-10.42,1.14a28.24,28.24,0,0,0-6.69,3.51,57.22,57.22,0,0,0-7.87,6.6q-3.49-3.78-7-7.52a66.21,66.21,0,0,1,11.46-11.06c4.77-3.71,9-6.12,12.54-7.27,14-4.51,22.74-.53,26,11.17l6.48,22.68c1.23,4.32,4.07,8.72,8.41,13.25q-5.76,4.41-11.37,8.94a70.35,70.35,0,0,1-7.54-8.51c-2.52,7.76-7,12.71-13.7,15A17.63,17.63,0,0,1,788.62,201ZM802.8,187.8c3.27-1.1,6.46-3.87,9.69-8.34q-1.2-3.84-2.41-7.69a54.05,54.05,0,0,0-11.25,2.13c-5.27,1.77-7.15,4.83-5.66,9.06a7.64,7.64,0,0,0,3.81,4.6A7.39,7.39,0,0,0,802.8,187.8Z"/><path d="M879.35,138.08c-1.39-1.63-4-2.08-7.93-1.34s-8.06,3-12.37,6.82c.62,2.86,1.23,5.72,1.85,8.58q3.69,13.67,7.32,27.35-8,3.24-15.78,6.69-2.73-14.37-5.4-28.77a177.28,177.28,0,0,0-9.74-27.35q7.77-3.53,15.66-6.85,2.43,6.62,4.23,13a47,47,0,0,1,3.55-5.62,39,39,0,0,1,7.06-6.81,23.73,23.73,0,0,1,10.76-5,14.75,14.75,0,0,1,10.22,1.59,14.37,14.37,0,0,1,6.37,8c6.23-9.13,13.47-14.17,21.26-15.05,4.87-.54,8.88.5,12,3.06s4.83,6.31,5.25,11.19q.18,6.74.38,13.49,2,14.31,3.91,28.64-8.31,2.22-16.51,4.69-1-15.51-2-31c-.62-5.5-1.56-9.11-2.85-10.82s-3.84-2.34-7.68-1.85-8,2.39-12.37,5.73c.27,3,.55,6,.82,9q2.88,14.17,5.69,28.35-8.18,2.73-16.22,5.71-2-15.42-3.93-30.83Q881.42,140.53,879.35,138.08Z"/><path d="M980.65,157.82a20,20,0,0,0,7.79-1.82,32.54,32.54,0,0,0,6.45-3.56l2.35-1.76q2.91,3.42,5.74,6.87a28.37,28.37,0,0,1-4.06,4.6,41.45,41.45,0,0,1-5.44,4.41,30.35,30.35,0,0,1-7.15,3.33,29.86,29.86,0,0,1-9.16,1.57,21.58,21.58,0,0,1-16.77-6.88c-4.5-4.73-7.06-10.94-7.51-18.71a37,37,0,0,1,8.19-26.18c6.13-7.63,13.76-11.54,22.54-11.58,6.75,0,12,1.7,15.62,5.07s5.34,8,5.16,14a44.32,44.32,0,0,1-2.33,12c-.9.81-1.8,1.63-2.69,2.46q-16.43,1-32.7,2.95C968.48,153.54,973.1,157.91,980.65,157.82Zm-.37-37.29a13,13,0,0,0-9.93,4.45A17.65,17.65,0,0,0,966,136q11.21-1.63,22.52-2.86a34.67,34.67,0,0,0,.42-4.57C989,123.2,986.08,120.48,980.28,120.53Z"/><path d="M1056.81,122.86c7-6.37,15-9,23.45-7.67s14.66,4.83,18.43,10.42,4.8,12.3,3.26,20.09c-2,10.39-6.62,18.45-13.42,24.34s-14.21,8.21-22.52,7a23.21,23.21,0,0,1-16.18-9.64c-4-5.49-5.72-12-5-19.58C1045.88,137.63,1049.76,129.24,1056.81,122.86Zm29.41,26.32c2-11.45-1.44-18-10.31-19.31-9.24-1.36-14.53,3.53-15.86,14.35-.7,5.65,0,10.22,2,13.72a12,12,0,0,0,9.06,6.13c4,.59,7.25-.36,9.81-2.9S1085.29,154.63,1086.22,149.18Z"/><path d="M1136.66,174.88l1.62.44q4.21-7.4,8.55-14.74,7.47-13.34,15.26-26.54,8.06,3.3,16,6.82-9.57,12.58-18.69,25.41-8.1,12.24-15.84,24.66-10.62-2.15-21.27-3.86-.06-15.07-.51-30.2-1.29-15.31-3-30.66,9.52.54,19.08,1.37-.3,13.56-.86,27.1Q1136.9,164.79,1136.66,174.88Z"/><path d="M1199.85,198.82a20.58,20.58,0,0,0,8,1.32,33.34,33.34,0,0,0,7.43-.79l2.88-.72c1,2.87,1.9,5.73,2.81,8.6a29.46,29.46,0,0,1-5.57,2.67,42,42,0,0,1-6.81,2,33.73,33.73,0,0,1-17.22-1.78,22,22,0,0,1-13.14-12.82c-2.43-6.1-2.47-12.83.06-20.19A36.72,36.72,0,0,1,1196,156c8.65-4.71,17.31-5.38,25.59-2,6.36,2.58,10.64,6.21,12.8,10.74s2,9.51-.45,14.93a43,43,0,0,1-6.75,10.16l-3.47,1.24q-15.89-5.45-31.9-9.92C1190,190.16,1192.71,196,1199.85,198.82Zm13.82-34.64a13.3,13.3,0,0,0-11,.28,17.57,17.57,0,0,0-8.27,8.53q11.14,2.79,22.27,6a32.25,32.25,0,0,0,2.13-4.07C1220.84,170,1219.15,166.37,1213.67,164.18Z"/><path d="M1256.33,173.62q8.37,2.31,16.74,4.86-3.12,8.82-6.59,16.37c12.67-6.16,22.61-7.16,29.23-3.39q-5.32,7.77-10.62,15.55a46.59,46.59,0,0,0-11.68-5,26.22,26.22,0,0,0-10.64,0l-2,3.85q-5.87,12.89-11.78,25.74-8.37-2.67-16.73-5.06,7.07-12.83,14.2-25.6A173.89,173.89,0,0,0,1256.33,173.62Z"/><path class="cls-17" d="M1264,953c-215,3-91,6-199,0-103,3,35-3-164,0-30.47-144.9,65.59-139.61,158.72-159.19S1233.53,808.1,1264,953Z"/><circle class="cls-17" cx="866.89" cy="364.64" r="72.28"/><path class="cls-17" d="M1029.52,327.81c8.17,44.26,30.11,77,74.38,68.87a81.51,81.51,0,1,0-29.57-160.31C1030.06,244.53,1021.35,283.54,1029.52,327.81Z"/><ellipse class="cls-18" cx="1031.9" cy="603.36" rx="137.87" ry="249.54" transform="translate(-92.34 197.22) rotate(-10.45)"/><ellipse class="cls-17" cx="1027.73" cy="580.77" rx="137.87" ry="249.54" transform="translate(-88.31 196.09) rotate(-10.45)"/><path class="cls-19" d="M873.15,806.67c15.89,91.26,401.94,24.05,386.06-67.2S1144,589.28,1037.42,607.84,857.27,715.42,873.15,806.67Z"/><path class="cls-18" d="M886,801c4.47,24.22,66.47,41.53,103.23,43,24.74,1,37.46-26.85,67.17-32.33,24.6-4.54,59.61,16.81,86.19,10.69,41.89-9.65,103.6-51.06,98.63-78-4.64-25.16-19.69-90.61-56.54-78.22-29.21,9.82-110.89,47-138.85,52.21S961,706.43,938.2,711.54C882.87,724,881.35,775.8,886,801Z"/><path d="M998.71,667.13c2.18,11.84,21,29.37,37,26.42s25.18-25.65,23-37.49-14.93-8.32-30.91-5.37S996.52,655.3,998.71,667.13Z"/><path class="cls-19" d="M1051.59,306.43c-8.61,22.11,71.48,53.3,80.09,31.18a43,43,0,1,0-80.09-31.18Z"/><path class="cls-19" d="M848.07,409.64c15.27,14.5,67.75-40.78,52.49-55.28a38.12,38.12,0,0,0-52.49,55.28Z"/><ellipse class="cls-13" cx="1080.49" cy="535.32" rx="58.04" ry="81.43" transform="translate(-79.19 204.91) rotate(-10.45)"/><circle cx="1062.43" cy="558.7" r="33.79"/><ellipse class="cls-13" cx="937.37" cy="561.72" rx="58.04" ry="81.43" transform="translate(-86.35 179.38) rotate(-10.45)"/><circle cx="918.2" cy="581.77" r="31.19"/><path class="cls-20" d="M879.19,566.29c-4.77,12.33,17.95-41.19,49.47-47s70.9,31,64.69,26c-7.55-40.94-39.23-69.41-70.75-63.59S871.64,525.35,879.19,566.29Z"/><path class="cls-21" d="M1022.31,539.88c-4.77,12.34,18-41.19,49.47-47s70.9,31,64.69,25.94c-7.55-40.93-39.23-69.4-70.75-63.58S1014.76,499,1022.31,539.88Z"/><rect class="cls-19" x="1019.69" y="441.86" width="86.63" height="25.99" transform="translate(2212.04 325.99) rotate(150.43)"/><rect class="cls-19" x="888.63" y="457.23" width="86.63" height="25.99" transform="translate(1732.01 1140.7) rotate(-166.81)"/><circle class="cls-17" cx="916.12" cy="584.79" r="14.73"/><circle class="cls-17" cx="1061.42" cy="558.01" r="12.13"/><polygon class="cls-22" points="901.6 729.37 970.2 816.76 955.75 761.75 962.57 711.48 942.49 710.75 929.63 713.12 913.27 720.57 901.6 729.37"/><polygon class="cls-22" points="1207.29 668.55 1171.99 775.1 1165.85 718.56 1143.39 682.55 1161.89 674.71 1182.53 666.47 1188.96 665.28 1193.24 664.49 1200.07 665.45 1207.29 668.55"/><polygon class="cls-22" points="1130.07 687.51 1108.39 760.08 1104.52 724.41 1089.64 703.55 1130.07 687.51"/><polygon class="cls-22" points="971.53 712.04 1027.97 772.71 1018.85 738 1028.28 719.3 971.53 712.04"/><polygon class="cls-22" points="1142.58 822.32 1085.34 761.39 1093.62 796.31 1076.47 812.35 1092.66 816.02 1102.02 818.72 1113.53 821.03 1131.86 824.3 1142.58 822.32"/><polygon class="cls-22" points="993.52 843.55 1007.31 769.08 1014.97 804.14 1035.75 819.87 1021.93 829.06 1014.15 834.93 1010.26 837.87 1002.08 841.59 993.52 843.55"/><path class="cls-23" d="M1607,728c-5,106-61.43,181.58-143.78,209.73S1396,951,1279,951c-25.54-74.7,9.38-255.61,91.73-283.77S1581.46,653.3,1607,728Z"/><path class="cls-23" d="M1397.09,362c.68,2,.68,11.3,1.11,13.3a53.1,53.1,0,1,1-69.09-39c3.5-1.2,6.26,2.2,9.79,1.75,3.69-.46,8.06,10,11.68,10.29,2.93.25,6.87-11.17,9.69-10.45s.18,7.08,2.81,8.22,14.6-13.2,9.76-1.3c-.95,2.34-1.5,11.46.41,13.13,1.69,1.48,19.27-21.61,12.82-6.6-2.15,5-5.1,13.33-3.6,15.69C1384.7,370.48,1395.69,357.9,1397.09,362Z"/><circle class="cls-23" cx="1207.98" cy="457.03" r="60.92"/><ellipse class="cls-24" cx="1340.34" cy="568.25" rx="97.76" ry="162.23" transform="translate(-111.76 464.18) rotate(-18.88)"/><ellipse class="cls-23" cx="1330.92" cy="555" rx="93.14" ry="162.23" transform="translate(-107.98 460.42) rotate(-18.88)"/><path class="cls-25" d="M1465.77,634.74c17.18,53.39-182.31,117.57-199.48,64.17s13.55-111,68.64-128.76S1448.6,581.34,1465.77,634.74Z"/><path class="cls-26" d="M1440.4,615.65c5.17,15.15-1.79,36.19-22.15,48.74-13.71,8.44-27,1-45.53,7.34-15.38,5.26-28.51,21.73-45.52,26.72-26.82,7.87-50-8.18-55.73-25.05-5.38-15.73,0-36.7,24.78-41.41,19.68-3.73,35.25-10.55,52.74-16.53s38.18-16.67,52.71-21C1437,583.86,1435,599.92,1440.4,615.65Z"/><ellipse class="cls-13" cx="1272.94" cy="546.99" rx="32.36" ry="45.4" transform="translate(-108.5 441.23) rotate(-18.88)"/><circle cx="1268.54" cy="575.96" r="10.63"/><path class="cls-26" d="M1303.56,536.52s-9.5,15.5-26.42,21.28-33.89,2.4-34.83-.34c-10.62-31.08-1-47.65,15.94-53.43S1295.45,512.79,1303.56,536.52Z"/><ellipse class="cls-13" cx="1345.17" cy="525.35" rx="32.36" ry="45.4" transform="translate(-97.62 463.44) rotate(-18.88)"/><circle cx="1327.85" cy="529.01" r="14.49"/><path class="cls-26" d="M1374.7,511.68c5.69,4.7-20-15.12-36.88-9.34s-26,34.42-24.36,30.28c-7.51-22,.11-44.45,17-50.23S1367.19,489.72,1374.7,511.68Z"/><path d="M1359.47,580.43c2.54,7.4-2.56,23.34-12.56,26.75s-22.44-6.51-25-13.92,5.81-9.47,15.8-12.89S1356.94,573,1359.47,580.43Z"/><path class="cls-25" d="M1236.82,426.93c17.53,14.41-34.63,77.91-52.16,63.5a41.09,41.09,0,0,1,52.16-63.5Z"/><path class="cls-25" d="M1371.47,406.62c-5.11,16.56-65.07-1.95-60-18.51a31.38,31.38,0,0,1,60,18.51Z"/><path class="cls-27" d="M1440.81,630.5c-1-.52-3.8,7.37-12,10.47-7,2.67-10.08-1.29-17,1.55-6.68,2.76-5.31,7.11-12,10.47-8.71,4.39-13.63-1.74-20.44,2.73-6.44,4.23-4.16,11.08-10.67,14.28-5.51,2.71-8.83-1.36-15.22,1-5.4,2-8.09,6.69-11.32,12.37-2.21,3.91-8.56,15.09-7.2,30.1.3,3.2,3.24,11,9.12,26.65,4.42,11.75,6.56,16.77,7.59,16.53,1.7-.38-1-14.71.67-15.11,2.4-.54,9.61,27.27,15,26.77,3.12-.29,2.61-9.88,6.09-10.59,7-1.42,17.88,35,25.2,33.9,6.84-1,2.14-33.48,15.68-39.37,7.42-3.22,15.46,3.63,17.61.35,3.71-5.63-18.88-27.68-15.19-33.07,2.19-3.19,11.63,2.48,13.48-.35,2.18-3.32-17.74-13.15-19.11-27.48-.75-7.81,1.93-12.45,15.46-28.67C1439.06,648.11,1445.59,633.12,1440.81,630.5Z"/><rect class="cls-25" x="1237.14" y="495.23" width="48.3" height="14.49" transform="translate(2.09 -5.21) rotate(0.24)"/><rect class="cls-25" x="1298.38" y="474.29" width="48.3" height="14.49" transform="translate(22.31 1020.41) rotate(-42.52)"/></g></svg>
