<svg xmlns="http://www.w3.org/2000/svg" width="1920" height="1080" viewBox="0 0 1920 1080"><defs><style>.cls-1{fill:#494949;}.cls-2{fill:#0e3d2d;}.cls-3{fill:#1b6d50;}.cls-4{fill:#238461;}</style></defs><title>gamescreen-front</title><g id="Layer_7" data-name="Layer 7"><rect class="cls-1" y="1008" width="1920" height="85"/><path class="cls-2" d="M1742.08,510.29s-25.9-24.72-50-15.89-30.61,14.12-47.09,11.77-37.07-7.07-53,.58-34.73,33.55-33.55,55.91-4.71,42.38-4.71,55.91-4.12,55.91,4.71,75.92S1522.82,986.89,1534,971s46.53,30.43,43,1,65.82-6,77,17,25.23,17.37,27-15,23-13.54,43,0,32.82-32.6,34-2,47,2,47,2-50-246.55-56.45-318.35S1752.67,535,1752.67,535Z"/><ellipse class="cls-3" cx="1544.5" cy="936.5" rx="33.5" ry="23.5"/><circle class="cls-3" cx="1583" cy="960" r="30"/><circle class="cls-3" cx="1599.5" cy="922.5" r="29.5"/><ellipse class="cls-3" cx="1662" cy="977.5" rx="33" ry="25.5"/><ellipse class="cls-3" cx="1656" cy="945" rx="51" ry="15"/><circle class="cls-3" cx="1732" cy="972" r="20"/><ellipse class="cls-3" cx="1741.5" cy="936.5" rx="33.5" ry="23.5"/><ellipse class="cls-3" cx="1775.5" cy="972" rx="31.5" ry="20"/><ellipse class="cls-3" cx="1818.55" cy="970.53" rx="23.9" ry="32.8" transform="translate(756.98 2737.49) rotate(-87.09)"/><circle class="cls-3" cx="1793" cy="934" r="28"/><ellipse class="cls-4" cx="1614.5" cy="984" rx="34.5" ry="17"/><ellipse class="cls-3" cx="1702" cy="968" rx="19" ry="28"/><ellipse class="cls-3" cx="1673" cy="960.5" rx="34" ry="17.5"/><ellipse class="cls-3" cx="1522.5" cy="969.5" rx="37.5" ry="24.5"/><ellipse class="cls-3" cx="1539.5" cy="945.5" rx="29.5" ry="22.5"/><circle class="cls-3" cx="1760" cy="932" r="39"/><ellipse class="cls-3" cx="1667" cy="941.5" rx="34" ry="28.5"/><ellipse class="cls-4" cx="1761" cy="974" rx="20" ry="9"/><ellipse class="cls-4" cx="1748" cy="963" rx="20" ry="9"/><ellipse class="cls-3" cx="1635" cy="955.5" rx="31" ry="24.5"/><ellipse class="cls-4" cx="1731.5" cy="955" rx="23.5" ry="8"/><circle class="cls-4" cx="1695.5" cy="960.5" r="11.5"/><ellipse class="cls-3" cx="1544.5" cy="976.5" rx="37.5" ry="24.5"/><ellipse class="cls-4" cx="1594" cy="960" rx="9" ry="13"/><ellipse class="cls-3" cx="1560" cy="966.5" rx="9" ry="17.5"/><ellipse class="cls-4" cx="1626" cy="970.5" rx="29" ry="19.5"/><ellipse class="cls-4" cx="1666" cy="972" rx="32" ry="14"/><ellipse class="cls-4" cx="1718" cy="968" rx="20" ry="9"/><ellipse class="cls-4" cx="1575.19" cy="967.5" rx="14.19" ry="20.5"/><ellipse class="cls-4" cx="1791" cy="969" rx="20" ry="9"/><ellipse class="cls-4" cx="1774.5" cy="961" rx="23.5" ry="8"/></g></svg>
