<svg xmlns="http://www.w3.org/2000/svg" width="910" height="640" viewBox="0 0 910 640"><defs><style>.cls-1{fill:#c9bc5f;}.cls-2{fill:#827623;}.cls-3{fill:#fff;stroke:#000;stroke-linejoin:round;stroke-width:5px;}</style></defs><title>indstillinger menu</title><g id="Layer_6" data-name="Layer 6"><path class="cls-1" d="M763.94,5.12A149.4,149.4,0,0,0,645.8,55.53C587.74,27.7,519.9,11.7,447.39,11.7c-69.62,0-135,14.75-191.44,40.57A149.69,149.69,0,1,0,63.2,280.5a253.49,253.49,0,0,0-3.67,42.85C59.53,495.47,233.19,635,447.39,635S835.26,495.47,835.26,323.35a253.6,253.6,0,0,0-3-38.74A149.69,149.69,0,0,0,763.94,5.12Z"/><path class="cls-2" d="M710.85,96.92c-24.4,36.13,106.43,124.47,130.83,88.34A78.93,78.93,0,1,0,710.85,96.92Z"/><path class="cls-2" d="M74.75,177.41C99,213.67,230.25,126,206.05,89.76a78.93,78.93,0,0,0-131.3,87.65Z"/><path d="M454.38,179.13a10.69,10.69,0,0,1,5.91,1.74,10.1,10.1,0,0,1,3.06-.51,20.27,20.27,0,0,1,3.61.41,4.32,4.32,0,0,1,3.11,2,4.9,4.9,0,0,1,.85,2.76,8.24,8.24,0,0,1-.7,3q.9,2.46-.9,6,2.4,5.94-.1,17.7-.62,2.88-1.21,5.53a47.53,47.53,0,0,0-1.4,8.8c0,1.1.08,2.7.25,4.81s.32,4.27.45,6.45.2,4.2.2,6-.18,3-.55,3.53a5.48,5.48,0,0,0-.8,2.36c-.17,1.05-.39,2.09-.65,3.12a8.93,8.93,0,0,1-1.11,2.61,1.73,1.73,0,0,1-1.75.92,2.21,2.21,0,0,1-1.3-.46,4.23,4.23,0,0,1-.46-.72,1.86,1.86,0,0,0-1.2-1.33,1.85,1.85,0,0,1-1.45-1.89,3.65,3.65,0,0,1,.4-2.15,2.5,2.5,0,0,0,.45-1.43,4.6,4.6,0,0,0-.3-1.59A2.86,2.86,0,0,0,457,245a3,3,0,0,1-1.8-1.23,10.28,10.28,0,0,1-1.2-2.2,8.31,8.31,0,0,1-.86-4.51,8.08,8.08,0,0,0-.15-3.68q-1.61-6.56-.2-9.93a3.46,3.46,0,0,0,.1-2.46,8.09,8.09,0,0,1-.3-3.68,29.84,29.84,0,0,0,.61-5.68c0-1.74-.44-2.61-1.31-2.61s-1.34,2.18-1.6,6.55c-.27,4.85-.69,7.71-1.26,8.6s-1.05,1.62-1.45,2.2a12.05,12.05,0,0,0-2.1,7,18.23,18.23,0,0,1-.15,3.22,8.19,8.19,0,0,0-.26,1.13,17.58,17.58,0,0,0-.5,4.5,10.54,10.54,0,0,1-1.5,5.94,4,4,0,0,0-.4,1.28,13.57,13.57,0,0,1-.6,2c-.67,1.64-1.54,2.44-2.61,2.41a3.27,3.27,0,0,1-2.46-1,7.17,7.17,0,0,1-1.35-2.3,18.8,18.8,0,0,1-.8-2.66,9.46,9.46,0,0,0-1-2.56c-.67-1.16-.51-3.55.5-7.16a11,11,0,0,0,.5-3.53,2.74,2.74,0,0,0-1.41-2.2c-.4-.28-.81-1.76-1.25-4.46s-.8-4.94-1.1-6.75-.59-3.46-.85-5c-.74-3.48-1.32-5.25-1.76-5.32a.62.62,0,0,0-.8.46,3.63,3.63,0,0,0-.05,1.38c.07.55.15,1.1.25,1.64a13.3,13.3,0,0,1,.2,1.54,9.18,9.18,0,0,1-.6,2.71,8.85,8.85,0,0,0-.15,4.55,22.56,22.56,0,0,1,.5,3.89,15.81,15.81,0,0,1-.3,2.92,9.23,9.23,0,0,0-.15,2.81c.1.82.18,1.57.25,2.26.13,1.7-.24,2.83-1.1,3.37a2.82,2.82,0,0,0-1.26,2.66,4.43,4.43,0,0,0,1.16,3,2.31,2.31,0,0,1,.8,2.2,6.39,6.39,0,0,1-.7,1.64,1.35,1.35,0,0,0-.3,1,2.88,2.88,0,0,1,0,1q-.21,2.46-3.81,4.5-2.91,1.64-4.82,1.28a4.79,4.79,0,0,1-2.8-1.38,2.69,2.69,0,0,1-.7-2.3,8.2,8.2,0,0,0,.05-2.36c-.1-.71-.17-1.45-.21-2.2s-.08-1.5-.15-2.25a11.87,11.87,0,0,0-.6-4.14,6.75,6.75,0,0,1-.6-2.2,15.07,15.07,0,0,1-.05-2.1c0-.65.08-1.25.15-1.79a3.62,3.62,0,0,0-.25-1.74,4.29,4.29,0,0,1-.05-2.36,7.82,7.82,0,0,0,.1-2.76,6.42,6.42,0,0,1,0-2.41c.17-.71.32-1.45.45-2.2.2-1.77-.17-3-1.1-3.58a6.81,6.81,0,0,1-2.16-2.81,10.27,10.27,0,0,1-.45-3.84,34.68,34.68,0,0,0,0-3.84,10.34,10.34,0,0,1,.55-3.58,14.42,14.42,0,0,0,.66-4.35c0-1.5-.05-2.8-.15-3.89s-.22-2.12-.36-3.07-.26-2-.4-3a14.85,14.85,0,0,1,.3-5.32,11,11,0,0,1,2.06-3.43,5,5,0,0,1,4.06-1.28q5.41.21,6.52-.51a5.23,5.23,0,0,1,5.21-.11,5,5,0,0,1,1.4.82c3.75,1,5.85,2.5,6.32,4.61q2,8.59,2,11.41a18.25,18.25,0,0,0,.15,3.33,3.62,3.62,0,0,0,.3.77,1.07,1.07,0,0,1,.15.56c0,.2-.07.75-.2,1.64a2.71,2.71,0,0,0,.3,2,1.4,1.4,0,0,0,1.15.72,1.67,1.67,0,0,0,1.25-.72,6.14,6.14,0,0,0,.95-3.22c.17-1.6.26-2.58.26-2.92a4,4,0,0,1,.35-1.69,5.6,5.6,0,0,0,.45-1.69,18.78,18.78,0,0,1,.3-1.94,6.28,6.28,0,0,1,1.3-3.68,14.7,14.7,0,0,1,2.11-1.8,3.42,3.42,0,0,0,1.4-2.2c.2-.95.42-1.84.65-2.66a9.67,9.67,0,0,1,1.05-2.35A5.5,5.5,0,0,1,454.38,179.13Z"/><path d="M494.58,195.2l-.5,23.24q0,15.45,4.21,14.63,3.61-.62,3.31-13c0-2.45.18-4,.55-4.76a9.37,9.37,0,0,0,.75-1.79,17.29,17.29,0,0,0,.2-5.42c-.13-1.43-.37-3.58-.7-6.45s-.64-5.82-.9-8.85-.4-5.79-.4-8.24.25-4,.75-4.61a2.86,2.86,0,0,1,1.9-1.07,8.84,8.84,0,0,1,2.41,0,16.84,16.84,0,0,1,2.41.46,7.79,7.79,0,0,0,1.9.3,7.92,7.92,0,0,0,1.81-.25c.7-.17,1.4-.31,2.1-.41a14.23,14.23,0,0,1,2-.15,2.62,2.62,0,0,1,1.75.71c.53.48,1,1.67,1.35,3.58a55.3,55.3,0,0,1,.81,6.76c.16,2.59.25,5.37.25,8.34s0,5.78-.1,8.45q-.41,8.79-.76,10.64a8.09,8.09,0,0,1-.85,2.66c-.33.55-.67,1.06-1,1.54-.67,1-.77,2.32-.3,4.09s.83,3.14,1.1,4.09a8.35,8.35,0,0,1,.1,4.61,10.41,10.41,0,0,0-.4,4q.49,5.22-1.2,7.47a8.22,8.22,0,0,1-2.51,2.15,13.16,13.16,0,0,0-5,4.71,3.36,3.36,0,0,1-1.91,1.95,4.41,4.41,0,0,1-1.8.05c-.8-.11-1.67-.21-2.61-.31l-2.7-.31a5.23,5.23,0,0,0-1.81,0,1.91,1.91,0,0,0-.9.62c-.27.3-.57.63-.9,1-1.81,1.84-3.68,1.64-5.62-.62l-1.15-1.38a6.16,6.16,0,0,0-1.05-1,7.28,7.28,0,0,0-1.36-.72,9.63,9.63,0,0,1-1.85-1.07q-4.32-2.67-5.42-8.6a66,66,0,0,1-1-7.42c-.27-3-.48-5-.65-5.78a8,8,0,0,0-1.25-2.71,8.49,8.49,0,0,1-1.31-2.77,7.4,7.4,0,0,1-.1-2.71c.14-1,.3-2,.51-3.28a32.78,32.78,0,0,0,.4-8.59,26.16,26.16,0,0,1-.15-5.73,7.75,7.75,0,0,0,.05-2.61,3.42,3.42,0,0,0-.66-1.08,3,3,0,0,1-.25-2.15,24.87,24.87,0,0,0,.2-3.17V191c.2-4.64.91-7.44,2.11-8.4a5.78,5.78,0,0,1,3.11-1.23,7.42,7.42,0,0,0,3.76-.92l2.05-1.33q5-2.87,6.22,4.1A80.51,80.51,0,0,1,494.58,195.2Z"/><path d="M563.4,195.61a2.58,2.58,0,0,1,.16,1.33,7.09,7.09,0,0,1-1.41,2.46,7.68,7.68,0,0,0-1.55,3.73,16.33,16.33,0,0,0-.15,3.28,13.38,13.38,0,0,1,0,2.2,3.24,3.24,0,0,1-2.41,3.07c-1.34.55-2.37.51-3.11-.1a7.09,7.09,0,0,1-1.8-2.41,21.18,21.18,0,0,1-1-2.56c-.24-.71-.62-1.1-1.16-1.17a2.43,2.43,0,0,0-2.15.3,14,14,0,0,0-1.15,1,4.52,4.52,0,0,1-1.66,1.12,7.27,7.27,0,0,0-1.35.62,2.3,2.3,0,0,0-.8,2.35q.39,3.18,6.91,9.62c.8.82,1.76,1.71,2.86,2.66a33.7,33.7,0,0,1,3.26,3.28,17.34,17.34,0,0,1,4,9.93,19.2,19.2,0,0,1-1.61,9.82q-1.61,3.38-3.81,4.4a4.86,4.86,0,0,0-2.3,2.41c-.4,1-.7,1.71-.9,2.15a2.44,2.44,0,0,1-1.26,1.12,4,4,0,0,1-2.15.36,9.54,9.54,0,0,1-2.26-.46,11.93,11.93,0,0,1-1.9-.82,5.41,5.41,0,0,0-1.41-.56,1.18,1.18,0,0,0-1,.36c-.33.3-.67.63-1,1-1,1-1.91,1.42-2.71,1.18a17,17,0,0,1-2.81-1.18,17.5,17.5,0,0,1-3.1-2.05q-5.42-4.29-3.71-8.8a10.7,10.7,0,0,1,2.45-4.2,3.84,3.84,0,0,1,2.16-1.22,1.73,1.73,0,0,1,1.75,1c.3.65.56,1.19.76,1.64a3.61,3.61,0,0,0,.7,1.07,4.34,4.34,0,0,0,1.25.82,5.69,5.69,0,0,0,1.86.51,3.74,3.74,0,0,0,3.8-2,7.83,7.83,0,0,0,1-4.92c-.47-3.2-1.14-4.57-2-4.09a2.78,2.78,0,0,1-2.7.05q-1.6-.66-1.71-1.74a11.29,11.29,0,0,0-.4-2.1,17.69,17.69,0,0,0-.7-1.94c-.6-1.57-1.14-2.42-1.61-2.56a8.77,8.77,0,0,0-2.15-.21,4.32,4.32,0,0,1-3-1.79,10.45,10.45,0,0,1-2.3-4.5c-.47-1.81-.87-3.38-1.21-4.71s-.63-2.37-.9-3.12a23.22,23.22,0,0,1-.7-2.36,26,26,0,0,1-.1-10,18.17,18.17,0,0,1,2.2-6.29,56.68,56.68,0,0,1,3.61-5.37,28.45,28.45,0,0,1,7-7.27q3.21-2,4.91-.41a3.87,3.87,0,0,0,3.26,1.07,17.55,17.55,0,0,0,2.76-.56l1.8-.41a6.67,6.67,0,0,1,3.46.1q1.76.53,3.16,3.48a19.2,19.2,0,0,0,1.45,2.67c.5.75,1,1.46,1.46,2.15a11.93,11.93,0,0,1,1.75,4,6.46,6.46,0,0,0,.7,2.3A8.23,8.23,0,0,1,563.4,195.61Z"/><path d="M591.93,198.68q-3.4.93-1.3,11.87a26.22,26.22,0,0,1,.75,5,16.2,16.2,0,0,1-.55,4.35,15.74,15.74,0,0,0-.61,3.79,16.77,16.77,0,0,1-.4,3.37,37.19,37.19,0,0,1-.05,4.35c-.1,1.47-.18,2.89-.25,4.25a36.57,36.57,0,0,0-.1,5.94,1.67,1.67,0,0,0,.65,1.17,5.82,5.82,0,0,0,1.06.46,2.64,2.64,0,0,1,1.7,1.33,6.46,6.46,0,0,1,.25,2.31,20.84,20.84,0,0,1-.35,3.12q-.9,3.89-2.51,5a2.3,2.3,0,0,1-1.85.41l-2.06-.41a9.06,9.06,0,0,0-5.81.62q-5.93,3.27-9.12,0a6.74,6.74,0,0,1-1.61-4.1c-.27-3.34-.08-5.49.55-6.44a5.62,5.62,0,0,1,1.61-1.79c.43-.24.82-.46,1.15-.67a1.78,1.78,0,0,0,1.1-1.74,9.34,9.34,0,0,1,.25-2c.17-.71.32-1.48.46-2.3a7.77,7.77,0,0,0-.51-4.91,7.21,7.21,0,0,1-1-3.69c.1-.95.18-1.8.25-2.55l.4-2.46a24.29,24.29,0,0,0-.1-5.07c-.2-1.39-.35-2.86-.45-4.4s-.13-3-.1-4.35.05-2.66.05-3.89c0-2.86-.28-4.57-.85-5.11a2.74,2.74,0,0,0-1.55-.88c-.47,0-.94-.05-1.41-.05-1.27.14-2.07-.06-2.4-.61a3.92,3.92,0,0,1-1.11-2.87,4.62,4.62,0,0,1,.65-2.66,5,5,0,0,0,.86-2.1,15.26,15.26,0,0,0,.2-2.5,11.27,11.27,0,0,0-.2-4,9.62,9.62,0,0,1-.56-1.74,7.66,7.66,0,0,1-.15-1.48q0-3,4.12-3.07c1.67-.07,3.37-.05,5.11,0a17,17,0,0,0,4.11-.15,34.06,34.06,0,0,1,8.37-.82,20.9,20.9,0,0,1,4.06.51q2.5,1,2.71,5.63c.06,1.43.1,2.93.1,4.5s.06,3.18.2,4.81C596,196.06,594.74,198.07,591.93,198.68Z"/><path d="M640.6,193.72a8.91,8.91,0,0,1,.2,2.45,17.56,17.56,0,0,1-.75,3.89,11.43,11.43,0,0,0-.45,4.51,11.23,11.23,0,0,0,.55,2.66,6.31,6.31,0,0,1,.45,1.58,5.3,5.3,0,0,1-3,5.63,24.19,24.19,0,0,0-4,2.2,13.24,13.24,0,0,1-3.45,1.8c-.27.81-.52,1.57-.76,2.25a3.07,3.07,0,0,1-1.15,1.58,1.86,1.86,0,0,1-1.8.21c-.67-.24-.94-1-.81-2.15a2.77,2.77,0,0,0-.55-2.46L624,216.8c-.3-.27-.59-.55-.85-.82a2.54,2.54,0,0,1-.6-1,4.31,4.31,0,0,1,.25-3.28,6.37,6.37,0,0,0,.8-2.15,8.89,8.89,0,0,0,0-1.53,11.07,11.07,0,0,1,0-3.48,2.76,2.76,0,0,0-.7-2.46,2.52,2.52,0,0,0-2.11-.92c-.77.07-1.4,1.12-1.9,3.17a51.07,51.07,0,0,0-1.16,7.63c-.26,3-.42,6.33-.45,9.87a86.33,86.33,0,0,0,.45,9.93q1,10.55,3.61,10.75a6.08,6.08,0,0,0,4-.77,8.11,8.11,0,0,0,2.21-2.2,15.25,15.25,0,0,0,1.25-2.3c.3-.72.65-1.15,1.05-1.28q4.21-1.44,5.92,1.74a8.21,8.21,0,0,1,.7,3.78,14,14,0,0,1-.35,3.64,9.24,9.24,0,0,1-.8,1.94c-.3.51-.59,1-.85,1.38a4.67,4.67,0,0,0-.61,1.59,3.85,3.85,0,0,1-.9,1.79,6.8,6.8,0,0,1-1.7,1.43,7.82,7.82,0,0,1-3.51,1.13q-5.52,0-8.22,2.05a4.91,4.91,0,0,1-3.41,1.33,5.06,5.06,0,0,1-3.41-1,12.68,12.68,0,0,0-2.41-1.84,3.43,3.43,0,0,1-1.75-2.3,4.69,4.69,0,0,0-.95-2.2,20.72,20.72,0,0,1-1.51-2.05,10.5,10.5,0,0,1-2.1-6.55c0-1.57,0-2.86.1-3.89a19.56,19.56,0,0,0,0-2.66,7.26,7.26,0,0,0-1.81-4.45,9.77,9.77,0,0,1-2.1-4c-.2-1.13-.39-2.19-.55-3.18a9.18,9.18,0,0,1,0-2.91c.13-1,.26-1.95.4-3a8.4,8.4,0,0,1,.75-2.66,3.85,3.85,0,0,0,.4-2.25,3.27,3.27,0,0,1,.2-1.85,15.64,15.64,0,0,0,.65-1.53,5.69,5.69,0,0,0-.2-4.45,10,10,0,0,1-1-3.53,8,8,0,0,1,.25-2.41c.2-.72.42-1.4.65-2a7.33,7.33,0,0,0,.35-2.5,14.41,14.41,0,0,1,.55-3.59,3.57,3.57,0,0,1,2.81-2.61c1.51-.37,2.36-.9,2.56-1.58s.43-1.4.7-2.15a5.53,5.53,0,0,1,1.91-2.51,9,9,0,0,1,4.66-1.84,10.93,10.93,0,0,1,4.41-.05,5.17,5.17,0,0,1,2.45,1.69,3.76,3.76,0,0,0,2.11,1.43,6.48,6.48,0,0,0,2.1-.05,16.2,16.2,0,0,1,10.43,2.25,5,5,0,0,1,2.41,3.17,25.72,25.72,0,0,0,1,3.07A11.72,11.72,0,0,1,640.6,193.72Z"/><path d="M411.07,307.74a10,10,0,0,1,5.81-3.68c1-.27,2-.51,3-.72a10.49,10.49,0,0,0,3.11-1.22c2-1.16,3.39-1.74,4.16-1.74a6.11,6.11,0,0,1,1.8.2,8.36,8.36,0,0,0,1.51.31,14.69,14.69,0,0,0,1.8.1,13.75,13.75,0,0,1,2.16.2q3.81.53,8,5.12a13.2,13.2,0,0,1,3.36,6.14,27.31,27.31,0,0,1,.55,6.25,21,21,0,0,0,.6,6.55,25.34,25.34,0,0,1,.9,3.27,8.43,8.43,0,0,1-.25,3.12,5,5,0,0,1-1.45,2.82,4.71,4.71,0,0,1-2.21,1,8.58,8.58,0,0,1-2.3.1c-.74-.06-1.34-.1-1.81-.1a1.07,1.07,0,0,0-.95.36c-.17.24-.35.5-.55.77-.47.48-1.37.51-2.71.1a6,6,0,0,1-3.31-2.61q-1.31-2-.3-5.17.3-1,.6-1.89a2.31,2.31,0,0,0,.1-1.49,1.94,1.94,0,0,0-1.9-1.53,3.53,3.53,0,0,0-2.61.82,6.68,6.68,0,0,0-1.95,3.53,9.24,9.24,0,0,0-.3,3,12,12,0,0,1,.15,1.94c0,.68,0,1.4.1,2.15a6.93,6.93,0,0,0,1.25,3.58,3,3,0,0,0,1.45,1,4.57,4.57,0,0,0,1.16.05c.36,0,.75-.05,1.15-.05a4.46,4.46,0,0,1,1.7.51l2.26,1a5.56,5.56,0,0,1,2.05,1.64,5,5,0,0,0,1.56,1.43l1.15.57c.33.17.65.32.95.46a1.65,1.65,0,0,1,.76,1,17,17,0,0,1,.6,8.29c-.14,1.16-.25,2.08-.35,2.76s-.19,1.28-.25,1.8-.14,1-.2,1.33a9.72,9.72,0,0,0-.11,1.68,12.65,12.65,0,0,1-1.35,6.45,8.46,8.46,0,0,1-2.76,3.07,10.6,10.6,0,0,0-1.8,1.23,3,3,0,0,0-.65,1,7.44,7.44,0,0,1-.75,1.34,6.42,6.42,0,0,1-3.51,2.45,17.5,17.5,0,0,1-5.57.77,28.46,28.46,0,0,1-4.56-.36,6,6,0,0,1-3-1.53,11.29,11.29,0,0,1-2.2-2.72c-.57-1-1-1.53-1.35-1.63a3.59,3.59,0,0,0-1.11-.16h-1.2a2.26,2.26,0,0,1-2.16-1,2.79,2.79,0,0,1-.4-1.84,11.43,11.43,0,0,0,.05-2.51c0-1.09,0-2.11.05-3.07a3.43,3.43,0,0,1,1.16-2.46,7.89,7.89,0,0,1,4.21-2,3.73,3.73,0,0,0,2.4-.72,7.91,7.91,0,0,0,.95-1.13,1.45,1.45,0,0,1,1-.61,3.14,3.14,0,0,1,1.35.1,2.05,2.05,0,0,1,1.71,2.05c0,1,0,2,.05,2.81a9.34,9.34,0,0,0,.35,2.31c.46,1.77,1.33,2.59,2.6,2.45s2.17-1.57,2.31-4.3v-4.4a8.06,8.06,0,0,0-4.51-7.37c-1.21-.68-2.38-1.33-3.51-1.94a16.6,16.6,0,0,1-3.21-2.25,13.4,13.4,0,0,1-4.31-7.06c-.6-2.67-1-4.39-1.3-5.17a5.07,5.07,0,0,0-.76-1.59,2.35,2.35,0,0,0-.75-.61,4.09,4.09,0,0,1-1.1-1.23,3.92,3.92,0,0,1-.5-3.58l1-3.43a10.71,10.71,0,0,0,.4-3c0-1.09-.05-2.17-.15-3.23s-.15-2.13-.15-3.22A11.47,11.47,0,0,1,411.07,307.74Z"/><path d="M466,377.09a4.33,4.33,0,0,1-1.11,1.53,1.72,1.72,0,0,1-1.85.1,3,3,0,0,1-1.65-1.27,7.94,7.94,0,0,1-.71-1.8c-.16-.64-.33-1.28-.5-1.89a3,3,0,0,0-.95-1.53,4.92,4.92,0,0,1-1.9-3.08,58.5,58.5,0,0,1-.66-8.8q0-5.12-.15-7.06a14.26,14.26,0,0,0-.35-2.87,1.91,1.91,0,0,0-.6-1.12c-.23-.14-.55-.31-.95-.51-.74-.34-1.27-1.55-1.61-3.64a36.42,36.42,0,0,1-.3-7.31,49.29,49.29,0,0,0-.9-13.51,35.65,35.65,0,0,1-.9-10.09,32.76,32.76,0,0,1,.9-6.7c.8-3,2.26-4.3,4.36-3.89a21.46,21.46,0,0,0,5,.51,11.83,11.83,0,0,0,3.05-.51c.81-.27,1.54-.54,2.21-.82a6.73,6.73,0,0,1,2.66-.36,10.34,10.34,0,0,1,3,.52c.91.3,1.82.59,2.76.87a17.35,17.35,0,0,0,5.81,1.12c1.41-.07,2.51-.15,3.31-.25a15.83,15.83,0,0,1,2.11-.16,4.8,4.8,0,0,1,3.16,1,3.7,3.7,0,0,1,1.45,2.25,10.83,10.83,0,0,1,.1,2.56,13.81,13.81,0,0,1-.9,4.24,8.6,8.6,0,0,0-.75,2.82,14.61,14.61,0,0,0,.05,2.2c.06.72.13,1.42.2,2.1a7.67,7.67,0,0,1-.15,2.2,5.44,5.44,0,0,1-1.26,2.35,12.12,12.12,0,0,1-2.3,2.1q-2.91,1.84-4.71,1.33a24.41,24.41,0,0,1-2.66-.87,10.82,10.82,0,0,0-1.66-.56,6.1,6.1,0,0,0-3.3-.11,3.27,3.27,0,0,0-2.21,1.54,3.89,3.89,0,0,0-.45,2.35,3.6,3.6,0,0,0,1.15,2.2,4.17,4.17,0,0,0,2.76,1.08,19.25,19.25,0,0,0,2.86,0c.73-.07,1.33-.1,1.8-.1a3.58,3.58,0,0,1,2.71,1.33q1.8,2.14-.3,6.45a13.33,13.33,0,0,0-.85,3c-.24,1.23-.52,2.44-.86,3.64a11.1,11.1,0,0,1-1.25,3c-.5.78-1.09,1.11-1.75,1a2.43,2.43,0,0,1-1.36-.62,4.55,4.55,0,0,0-.75-.71,1.67,1.67,0,0,0-1.8-.51q-1.61.4-1.86,2.91a34.57,34.57,0,0,0-.15,5c.07,1.63.15,3,.25,4.19a17.6,17.6,0,0,1,0,3.48,7.87,7.87,0,0,1-3,6,3.72,3.72,0,0,0-1.35,1.69C466.56,375.76,466.26,376.44,466,377.09Z"/><path d="M514.53,352.47l-4.31,8.09a7.52,7.52,0,0,1-2,5.52,3.15,3.15,0,0,1-2.1.93,10.18,10.18,0,0,0-.8,1.94c-.27.82-.57,1.71-.9,2.66a16.55,16.55,0,0,1-2.91,5.32q-3.62,4.1-5.52,1.44a7.18,7.18,0,0,1-1-2.15c-.47-1.57-.94-2.46-1.4-2.66s-.72-1.11-.55-2.31a9.91,9.91,0,0,1,1.35-3.68,18.53,18.53,0,0,0,1.8-4.45,12.62,12.62,0,0,1,1.46-3.64,6.43,6.43,0,0,0,.95-1.74,9.91,9.91,0,0,0,.3-1.38,10.27,10.27,0,0,1,1.4-3.27,11.34,11.34,0,0,0,1.61-4.1,31.79,31.79,0,0,1,2-6.75q1.61-3.18,2.31-4.3c-.54-.82-1-1.52-1.4-2.1s-.77-1.14-1.11-1.69a13.29,13.29,0,0,1-1.15-3.38,15,15,0,0,0-1.05-3.27,16.72,16.72,0,0,0-1.41-2.36A58.77,58.77,0,0,1,495,314.3a8.23,8.23,0,0,0-2.5-3.48q-4.62-3.9-2.51-7a3.18,3.18,0,0,1,2.71-1.74,7.89,7.89,0,0,1,3,.56,5.1,5.1,0,0,0,1.86.51,5.57,5.57,0,0,0,.85-.15,4.37,4.37,0,0,1,2.61-.26,6.59,6.59,0,0,0,2.45.05,11.78,11.78,0,0,0,1.76-.51,4.2,4.2,0,0,1,3.51-.1,2.57,2.57,0,0,1,1.6,2.25c.07,1,.08,2.3.05,3.84a8.18,8.18,0,0,0,1.25,5.37,28.76,28.76,0,0,1,2.36,5.07,8.68,8.68,0,0,0,.85,2.2c1.14-2.18,2.19-4.15,3.16-5.89a15.38,15.38,0,0,0,1.75-4.14,25.71,25.71,0,0,0,.41-2.87,25.63,25.63,0,0,1,.3-2.56,4.8,4.8,0,0,1,2.2-3.78q3.51-2.16,8,1.22a27.84,27.84,0,0,1,3.36-.2,14.53,14.53,0,0,1,3.16.31q3.3.7,3.51,3a3.36,3.36,0,0,1-.65,2.87,22.5,22.5,0,0,0-1.41,1.79,4.08,4.08,0,0,0-.45,2.2,4.73,4.73,0,0,1-3,4.51c-1.07.54-1.65,1.05-1.75,1.53s-.09.79.05.92c.4.41,0,1.2-1.1,2.36a21.66,21.66,0,0,0-2.66,3.17c-.64,1-1.22,1.91-1.76,2.86a21.47,21.47,0,0,1-2.9,4.2,3.82,3.82,0,0,0-1.56,3,6.85,6.85,0,0,0,1.16,4.09q1.1,2.36,2,4.56c.6,1.47.75,2.49.45,3.07a1.65,1.65,0,0,0-.25,1.33,5.18,5.18,0,0,0,.7,1.07,15.87,15.87,0,0,1,2.81,5A24,24,0,0,0,532,358.1c.6,1.09,1.16,2.19,1.7,3.28a45.4,45.4,0,0,1,4,13.71,3,3,0,0,1-1.9,3.38,4.25,4.25,0,0,1-3.66.2,4.53,4.53,0,0,1-2.86-2.91,7.8,7.8,0,0,0-1.76-3.07c-.63-.58-1.27-1.11-1.9-1.59a16.43,16.43,0,0,1-1.86-1.64A5.73,5.73,0,0,1,522.4,367c-.3-1-.69-2.15-1.15-3.38s-1-2.53-1.71-3.89A29.27,29.27,0,0,0,514.53,352.47Z"/><rect class="cls-3" x="305.89" y="178.59" width="74.11" height="75.66" rx="7.29"/><rect class="cls-3" x="306.66" y="302.33" width="74.11" height="75.66" rx="8.09"/><path d="M543.93,492.15c0,34.56-111.8,56.1-160.67,56.1-26.33,0,110.9-22.59,112.94-56.1,1.74-28.69-120.35-46.39-97.81-46.39C447.26,445.76,543.93,457.59,543.93,492.15Z"/><polygon points="421.67 467.31 366.44 442.21 429.55 428.33 421.67 467.31"/></g></svg>