<svg xmlns="http://www.w3.org/2000/svg" width="300" height="210" viewBox="0 0 300 210"><defs><style>.cls-1{fill:#c9bc5f;}.cls-2{fill:#827623;}</style></defs><title>Menu-button</title><g id="Layer_6" data-name="Layer 6"><path class="cls-1" d="M251.7,1.34a49.17,49.17,0,0,0-38.89,16.6A151.29,151.29,0,0,0,147.5,3.51a152,152,0,0,0-63,13.35A49.28,49.28,0,1,0,21,92a83.42,83.42,0,0,0-1.21,14.1c0,56.66,57.17,102.6,127.69,102.6s127.68-45.94,127.68-102.6a84.13,84.13,0,0,0-1-12.75,49.28,49.28,0,0,0-22.5-92Z"/><path class="cls-2" d="M234.22,31.56c-8,11.9,35,41,43.07,29.08a26,26,0,0,0-43.07-29.08Z"/><path class="cls-2" d="M24.82,58.06C32.79,70,76,41.14,68.05,29.21A26,26,0,0,0,24.82,58.06Z"/><circle cx="92.02" cy="77.39" r="12.14"/><rect x="107.2" y="68.28" width="110.3" height="18.21" rx="5.7"/><circle cx="92.02" cy="109.77" r="12.14"/><rect x="109.22" y="100.66" width="110.3" height="18.21" rx="5.7"/><circle cx="92.02" cy="142.15" r="12.14"/><rect x="109.22" y="133.04" width="110.3" height="18.21" rx="5.7"/></g></svg>
