<svg xmlns="http://www.w3.org/2000/svg" width="300" height="210" viewBox="0 0 300 210"><defs><style>.cls-1{fill:#c9bc5f;}.cls-2{fill:#827623;}</style></defs><title>play</title><g id="Layer_6" data-name="Layer 6"><path class="cls-1" d="M250.51,2.56A48.63,48.63,0,0,0,212.07,19,149.55,149.55,0,0,0,147.53,4.7,150,150,0,0,0,85.24,17.9a48.7,48.7,0,1,0-62.7,74.25,82.57,82.57,0,0,0-1.2,13.94c0,56,56.5,101.39,126.19,101.39s126.18-45.39,126.18-101.39a82.16,82.16,0,0,0-1-12.6A48.7,48.7,0,0,0,250.51,2.56Z"/><path class="cls-2" d="M233.23,32.42c-7.93,11.76,34.63,40.5,42.57,28.75a25.68,25.68,0,0,0-42.57-28.75Z"/><path class="cls-2" d="M26.29,58.61C34.17,70.41,76.88,41.89,69,30.1A25.68,25.68,0,0,0,26.29,58.61Z"/><polygon points="114.19 42.7 225.51 103.62 115.7 167.3 114.19 42.7"/></g></svg>
