<svg xmlns="http://www.w3.org/2000/svg" width="300" height="204.96" viewBox="0 0 300 204.96"><defs><style>.cls-1{fill:#c9bc5f;}.cls-2{fill:#827623;}</style></defs><title>settings-button</title><g id="Layer_6" data-name="Layer 6"><path class="cls-1" d="M250.51,0a48.6,48.6,0,0,0-38.44,16.4A149.55,149.55,0,0,0,147.53,2.18a150,150,0,0,0-62.29,13.2,48.7,48.7,0,1,0-62.7,74.25,82.57,82.57,0,0,0-1.2,13.94c0,56,56.5,101.39,126.19,101.39s126.18-45.4,126.18-101.39a82.29,82.29,0,0,0-1-12.61A48.69,48.69,0,0,0,250.51,0Z"/><path class="cls-2" d="M233.23,29.9c-7.93,11.76,34.63,40.5,42.57,28.74A25.68,25.68,0,0,0,233.23,29.9Z"/><path class="cls-2" d="M26.29,56.09C34.17,67.89,76.88,39.37,69,27.58A25.68,25.68,0,0,0,26.29,56.09Z"/><path d="M216.7,115.1V91.28H203.12a55.26,55.26,0,0,0-4.82-13.43l11.4-10.33-16-17.65-10.56,9.56a55.56,55.56,0,0,0-22.54-10.66V35.19H136.79V48.77a55.31,55.31,0,0,0-20.88,9.4l-11-11L88.06,64l12,12a55.41,55.41,0,0,0-5.79,15.26H80.7V115.1H94.28A55.36,55.36,0,0,0,101.65,133L89.6,145.05l16.84,16.84,12-12a55.47,55.47,0,0,0,18.39,7.68v13.58h23.82V157.61a55.46,55.46,0,0,0,20-8.77l13.1,11.88,16-17.65-12.94-11.73a55.48,55.48,0,0,0,6.36-16.24Zm-68,10.76a22.67,22.67,0,1,1,22.67-22.67A22.67,22.67,0,0,1,148.7,125.86Z"/></g></svg>
