<svg xmlns="http://www.w3.org/2000/svg" width="1920" height="1080" viewBox="0 0 1920 1080"><defs><style>.cls-1{fill:#595b5a;}.cls-2{fill:#0e3d2d;}.cls-3{fill:#8d8e8d;}.cls-4{fill:#666;}</style></defs><title>sewer-elements</title><g id="Layer_5" data-name="Layer 5"><path class="cls-1" d="M505,128c-161.27,0-292,130.73-292,292S343.73,712,505,712,797,581.27,797,420,666.27,128,505,128Zm-.5,541A249,249,0,0,1,255,419.5c0-135.2,107.54-245.29,241.75-249.38,143.31-4.37,261.5,113.82,257.13,257.13C749.79,561.46,639.7,669,504.5,669Z"/><circle cx="504.5" cy="420.5" r="249.5"/><path class="cls-2" d="M668,607s-44-42-85-27-52,24-80,20-63-12-90,1-59,57-57,95-8,72-8,95-7,95,8,129,9,75,28,48,61-28,55-78-4-107,15-68,61,159,64,104-7-151,27-128,37,3,39,55,61,86,61,86,45,37,34-85,7-205,7-205Z"/><circle cx="1192.5" cy="421.5" r="249.5"/><polygon class="cls-3" points="1013.22 621.04 966.72 605.22 966.72 547.07 948.31 496.36 948.31 448.91 961.87 351.22 991.91 223.75 1013.22 223.75 981.25 335.4 971.56 447.98 981.25 505.67 990.94 534.51 1013.22 621.04"/><polygon class="cls-3" points="1059.73 643.37 1038.41 643.37 1013.22 571.73 997.72 515.9 997.72 457.29 1004.5 370.76 1004.5 324.24 1013.22 286.09 1038.41 212.59 1059.73 212.59 1043.26 274 1021.94 332.61 1014.96 454.09 1012.82 525.85 1036.48 573.59 1059.73 643.37"/><polygon class="cls-3" points="1093.71 674.04 1070.39 675 1063.6 569.32 1036.48 519.37 1028.72 414.65 1036.48 341.63 1046.16 279.19 1070.32 186 1093.71 186 1062.63 270.54 1051.01 350.28 1041.32 415.61 1048.1 519.37 1081.04 568.36 1093.71 674.04"/><polygon class="cls-3" points="1154.25 668.43 1129.51 669.42 1090.78 581.62 1078.18 509.05 1061.67 418.21 1061.67 360.52 1088.79 267.48 1129.44 167 1154.25 167 1105.27 260.04 1093.64 324.24 1079.11 391.23 1100.42 506.6 1108.17 583.82 1154.25 668.43"/><polygon class="cls-3" points="1376.77 613 1423.81 597.35 1423.81 539.83 1442.42 489.67 1442.42 442.73 1428.7 346.09 1398.33 220 1376.77 220 1409.11 330.44 1418.91 441.81 1409.11 498.87 1399.31 527.4 1376.77 613"/><polygon class="cls-3" points="1336.74 651.68 1358.3 651.68 1383.77 576.24 1399.45 517.45 1399.45 455.71 1392.59 364.59 1392.59 315.6 1383.77 275.42 1358.3 198.01 1336.74 198.01 1353.4 262.68 1374.95 324.41 1382.02 452.35 1384.18 527.93 1360.26 578.2 1336.74 651.68"/><polygon class="cls-3" points="1302.38 684.02 1325.96 685 1332.82 577.22 1360.26 526.26 1368.09 419.46 1360.26 344.99 1350.46 281.3 1326.03 186.25 1302.38 186.25 1333.8 272.48 1345.56 353.81 1355.36 420.44 1348.5 526.26 1315.18 576.24 1302.38 684.02"/><polygon class="cls-3" points="1241.14 678.08 1266.16 679.12 1305.34 586.66 1318.08 510.23 1334.78 414.56 1334.78 353.81 1307.34 255.82 1266.23 150 1241.14 150 1290.69 247.99 1302.44 315.6 1317.14 386.14 1295.59 507.65 1287.75 588.97 1241.14 678.08"/><path class="cls-1" d="M1193,130c-161.27,0-292,130.73-292,292s130.73,292,292,292,292-130.73,292-292S1354.27,130,1193,130Zm-.5,541A249,249,0,0,1,943,421.5c0-135.2,107.54-245.29,241.75-249.38,143.31-4.37,261.5,113.82,257.13,257.13C1437.79,563.46,1327.7,671,1192.5,671Z"/><path class="cls-4" d="M1039.57,975.88c-54.72,0-115-1.78-208.07-6.13.26-108.26,88.41-196.25,196.73-196.25s196.47,88,196.73,196.26C1148,974.1,1094.28,975.88,1039.57,975.88Zm-17-182.51a158.18,158.18,0,0,0-58.15,13.46.49.49,0,0,0-.3.46v149a.5.5,0,0,0,.48.5c26.8.79,50.81,1.18,73.42,1.18,16.33,0,32.3-.2,48.85-.6a.49.49,0,0,0,.49-.5V804.65a.5.5,0,0,0-.31-.47,158.59,158.59,0,0,0-51.84-10.81h0a.48.48,0,0,0-.34.14.48.48,0,0,0-.16.36V956.5h-11.6V793.87a.5.5,0,0,0-.5-.5Zm76.9,16.38a.5.5,0,0,0-.5.5V956.53a.51.51,0,0,0,.15.36.5.5,0,0,0,.35.14h0c12.74-.38,25.93-.89,40.34-1.54a.5.5,0,0,0,.47-.5V838.89a.47.47,0,0,0-.15-.35,159.2,159.2,0,0,0-40.45-28.74A.59.59,0,0,0,1099.44,809.75ZM952,813.06a.54.54,0,0,0-.25.06A159.65,159.65,0,0,0,910,846.46a.5.5,0,0,0-.12.34V954.32a.5.5,0,0,0,.48.5c15.18.63,28.78,1.15,41.59,1.57h0a.48.48,0,0,0,.34-.14.48.48,0,0,0,.16-.36V813.56a.5.5,0,0,0-.25-.43A.47.47,0,0,0,952,813.06Zm200.38,39.17-.17,0a.51.51,0,0,0-.33.48V954.4a.51.51,0,0,0,.15.36.52.52,0,0,0,.35.14h0c11-.53,22.54-1.14,35.29-1.87a.49.49,0,0,0,.47-.5,159.7,159.7,0,0,0-35.39-100.11A.5.5,0,0,0,1152.37,852.23ZM897.79,862.37a.52.52,0,0,0-.41.21,158.46,158.46,0,0,0-27.81,89.94.5.5,0,0,0,.47.5c9.61.45,18.83.87,27.73,1.26h0a.5.5,0,0,0,.35-.14.48.48,0,0,0,.15-.36V862.87a.5.5,0,0,0-.35-.48A.39.39,0,0,0,897.79,862.37Z"/><path class="cls-4" d="M1028.23,774a196.07,196.07,0,0,1,196.23,195.29c-76.68,4.32-130.3,6.09-184.89,6.09s-114.81-1.77-207.57-6.1A196.07,196.07,0,0,1,1028.23,774m5.93,182h-10.6V793.87a1,1,0,0,0-.31-.72,1,1,0,0,0-.69-.28h0a158.64,158.64,0,0,0-58.34,13.5,1,1,0,0,0-.59.92v149a1,1,0,0,0,1,1c26.8.79,50.83,1.18,73.45,1.18,16.32,0,32.3-.2,48.85-.6a1,1,0,0,0,1-1V804.65a1,1,0,0,0-.63-.93,159,159,0,0,0-52-10.85h0a1,1,0,0,0-.69.28,1,1,0,0,0-.31.72V956m65.28,1.53h0c12.74-.38,25.94-.89,40.34-1.54a1,1,0,0,0,1-1V838.89a1,1,0,0,0-.3-.71,159.5,159.5,0,0,0-40.58-28.82,1,1,0,0,0-1,0,1,1,0,0,0-.47.85V956.53a1,1,0,0,0,1,1M952,956.89a1,1,0,0,0,.69-.28,1,1,0,0,0,.31-.72V813.56a1,1,0,0,0-1-1,1,1,0,0,0-.49.13,160.05,160.05,0,0,0-41.85,33.44,1,1,0,0,0-.25.67V954.32a1,1,0,0,0,1,1c15.18.63,28.79,1.15,41.6,1.57h0m200.38-1.49h.05c11-.53,22.52-1.15,35.29-1.87a1,1,0,0,0,.94-1,160.14,160.14,0,0,0-35.51-100.42,1,1,0,0,0-.77-.37,1,1,0,0,0-1,1V954.4a1,1,0,0,0,.31.72,1,1,0,0,0,.69.28m-254.58-.62a1,1,0,0,0,1-1V862.87a1,1,0,0,0-.7-1,1,1,0,0,0-.3,0,1,1,0,0,0-.82.43,158.92,158.92,0,0,0-27.9,90.22,1,1,0,0,0,.95,1c9.64.45,19,.88,27.73,1.26h0M1028.23,773C919.3,773,831,861.3,831,970.23c87.59,4.1,150,6.15,208.57,6.15s113.43-2,185.89-6.15c0-108.93-88.3-197.23-197.23-197.23Zm-5.67,184h12.6V793.87a158,158,0,0,1,51.67,10.78V956.87c-16.39.4-32.42.6-48.82.6-23.08,0-46.88-.39-73.42-1.18v-149a157.86,157.86,0,0,1,58-13.42V957Zm76.88-.47V810.25a159.3,159.3,0,0,1,40.32,28.64V955c-14,.63-27.33,1.15-40.32,1.54ZM952,955.89c-13.1-.43-26.89-1-41.59-1.57V846.8A159,159,0,0,1,952,813.56V955.89Zm200.38-1.49V852.73a158.11,158.11,0,0,1,35.28,99.79c-12.34.7-24.05,1.33-35.28,1.88Zm-254.58-.62c-8.89-.39-18.11-.81-27.72-1.26a158.08,158.08,0,0,1,27.72-89.65v90.91Z"/></g></svg>
