<svg xmlns="http://www.w3.org/2000/svg" width="510" height="520" viewBox="0 0 510 520"><defs><style>.cls-1{opacity:0.4;}.cls-2{fill:#1d7c18;}.cls-3{fill:#87dd80;}.cls-4{fill:#878484;}.cls-10,.cls-5{fill:none;stroke:#1d7c18;stroke-linecap:round;stroke-miterlimit:10;}.cls-5{stroke-width:23px;}.cls-6{fill:#195914;}.cls-7{fill:#184914;}.cls-8{fill:#fff;}.cls-9{fill:#32c956;}.cls-10{stroke-width:25px;}</style></defs><title>sick-bear</title><g id="Layer_4" data-name="Layer 4"><path class="cls-1" d="M361.6,461.07c0,36.47,26.92,58.46-106.54,58.46S13.41,490,13.41,453.49s110.64-91.49,241.65-66C379.78,411.7,361.6,424.6,361.6,461.07Z"/><path class="cls-2" d="M183.55,413.41c1-38.17-32.28-87-7.9-86.32s33.61,32.57,32.6,70.75c-.5,18.6,3.91,36,.57,50.18-4.61,19.6-24.35,17.64-36.85,17.31-10-.27-53.16,9.36-54.17-2.9-1-11.53,6.92-23.64,17.88-25.95C146.42,434.22,183.28,423.3,183.55,413.41Z"/><ellipse class="cls-2" cx="251.89" cy="256.44" rx="143.9" ry="130.89"/><ellipse class="cls-3" cx="224.49" cy="262.4" rx="83.05" ry="101.89"/><circle class="cls-2" cx="204.6" cy="347.38" r="5.48"/><path class="cls-4" d="M47.77,281.08c.55,2.9,9.48,3.67,19.95,1.71s14.19,16.43,13.65,13.53-5.14-26-15.61-24S47.23,278.18,47.77,281.08Z"/><path class="cls-4" d="M28.68,331.23c7.08-16.11,5.35-10.44,8.46-24.11s4.35-25,2.78-25.4-6.32,16.22-8.45,24.11C27.83,319.33,28.74,318.81,28.68,331.23Z"/><path class="cls-4" d="M50.46,333.27c.5-17.59,1-11.69-1.24-25.52s-5.38-24.85-7-24.59.24,17.41,1.24,25.53C45.19,322.56,45.84,321.74,50.46,333.27Z"/><path class="cls-4" d="M77.37,324.32C71.51,307.73,74.13,313,67,301s-14-21.25-15.35-20.44S58.18,296.67,62,303.88C68.6,316.22,68.91,315.22,77.37,324.32Z"/><path class="cls-4" d="M62.49,329.86c-2.1-17.47-.7-11.71-5-25.07S48.52,281,47,281.51s2.8,17.18,5,25.06C55.7,320,56.23,319.13,62.49,329.86Z"/><path class="cls-5" d="M157.88,175.51s-7.68-6.58-53.06-20.76c-50.76-15.87-82.83,13.83-90,45.56-8.63,38.36,30.27,87.32,30.27,87.32"/><path class="cls-2" d="M286.21,19.33c0,.86-1.23,4.45-1.33,5.27A21.61,21.61,0,1,1,263.41.47c1.51,0,2.12,1.67,3.54,2s1.79,4.91,3.14,5.51c1.1.48,4.12-3.4,5.11-2.75s-.86,2.75,0,3.53,7.36-3.16,3.93.79c-.67.77-2.09,4.22-1.57,5.11s10.27-5.79,5.81-.86c-1.49,1.64-3.72,4.47-3.45,5.57C280.31,21,286.21,17.57,286.21,19.33Z"/><circle class="cls-2" cx="200.85" cy="31.04" r="24.8"/><ellipse class="cls-6" cx="237.18" cy="91.31" rx="39.79" ry="66.04"/><ellipse class="cls-2" cx="235.3" cy="84.96" rx="37.91" ry="66.04"/><path class="cls-3" d="M276.74,133.43c-.41,22.83-85.7,21.28-85.29-1.55s19.85-41,43.4-40.56S277.16,110.6,276.74,133.43Z"/><path class="cls-7" d="M269.48,122.74c0,6.51-5.45,13.7-15,15.85-6.39,1.45-10.51-3.16-18.5-3.16-6.62,0-13.84,4.61-21.05,4.29-11.37-.5-18.17-9.72-18.17-17,0-6.77,4.81-14.15,15-12.69,8.07,1.15,15,.58,22.49.58s16.9-1.39,23.07-1.16C272.36,110.05,269.48,116,269.48,122.74Z"/><ellipse class="cls-8" cx="214.02" cy="74.24" rx="13.17" ry="18.48"/><circle cx="218.15" cy="86.82" r="4.33"/><path class="cls-7" d="M227.2,74.24s-5.71,4.72-13,4.72-13.37-3.54-13.37-4.72c0-13.37,5.9-18.48,13.17-18.48S227.2,64,227.2,74.24Z"/><ellipse class="cls-8" cx="244.69" cy="75.42" rx="13.17" ry="18.48"/><circle cx="242.53" cy="71.49" r="5.9"/><path class="cls-7" d="M257.87,74c1.57,2.56-5.7-8.45-13-8.45S230.34,75.42,231.52,74c0-9.45,5.9-17.1,13.17-17.1S257.87,64.59,257.87,74Z"/><path d="M243,98.51c0,3.19-4.06,8.66-8.36,8.66s-7.79-5.47-7.79-8.66,3.49-2.88,7.79-2.88S243,95.33,243,98.51Z"/><path class="cls-3" d="M215.92,23.24c4.86,7.86-23.6,25.45-28.45,17.59a16.72,16.72,0,0,1,28.45-17.59Z"/><path class="cls-3" d="M270.46,33.15c-4.15,5.7-24.81-9.32-20.66-15a12.77,12.77,0,0,1,20.66,15Z"/><path class="cls-9" d="M267.68,128.51c-.3-.33-2.43,2.34-6,2.46-3.06.1-3.72-1.83-6.74-1.64s-3,2-6,2.46c-3.93.54-5-2.46-8.23-1.64-3,.78-3.06,3.72-6,4.09-2.48.32-3.22-1.68-6-1.63-2.33,0-4,1.51-6,3.27A20.71,20.71,0,0,0,216,146.53c-.31,1.27-.21,4.66,0,11.46.15,5.11.32,7.32.75,7.37.7.07,1.53-5.81,2.24-5.73,1,.1.12,11.76,2.25,12.28,1.24.3,2.3-3.46,3.74-3.28,2.86.37,2.29,15.82,5.24,16.38,2.76.52,5.24-12.62,11.23-13.1,3.28-.27,5.47,3.43,6.73,2.46,2.17-1.69-3.62-13.16-1.49-14.74,1.26-.95,4.15,2.48,5.24,1.63,1.27-1-5.11-7.4-3.75-13.1.74-3.1,2.38-4.54,9.73-9C264.69,135.06,269.18,130.15,267.68,128.51Z"/><rect class="cls-3" x="205.57" y="52.61" width="19.66" height="5.9" transform="translate(30.07 -67.46) rotate(19.11)"/><rect class="cls-3" x="231.91" y="52.61" width="19.66" height="5.9" transform="translate(-1.99 101.61) rotate(-23.64)"/><path class="cls-4" d="M427.07,278.2c-.54,2.9-9.47,3.67-19.95,1.71s-14.18,16.43-13.64,13.52,5.14-26,15.61-24S427.61,275.3,427.07,278.2Z"/><path class="cls-4" d="M446.16,328.35c-7.07-16.11-5.35-10.44-8.45-24.11s-4.35-25.05-2.79-25.4,6.33,16.22,8.46,24.11C447,316.45,446.1,315.93,446.16,328.35Z"/><path class="cls-4" d="M424.39,330.38c-.5-17.58-1-11.68,1.23-25.52s5.39-24.84,7-24.58-.24,17.41-1.23,25.52C429.66,319.68,429,318.86,424.39,330.38Z"/><path class="cls-4" d="M397.48,321.43c5.86-16.59,3.24-11.27,10.33-23.37s14-21.24,15.34-20.43-6.48,16.16-10.33,23.37C406.25,313.34,405.93,312.34,397.48,321.43Z"/><path class="cls-4" d="M412.36,327c2.09-17.47.7-11.71,5-25.06s9-23.78,10.52-23.29-2.81,17.19-5,25.07C419.15,317.16,418.62,316.25,412.36,327Z"/><path class="cls-10" d="M317,172.62s28,7.26,73.35-6.92c50.75-15.86,97.25,40.37,104.38,72.1,8.64,38.36-65,46.95-65,46.95"/><path class="cls-2" d="M308.21,422.62c1.15-43.18-36.51-98.38-8.93-97.65s38,36.85,36.87,80c-.56,21.05,4.43,40.7.65,56.76-5.21,22.18-27.54,20-41.68,19.59-11.34-.3-60.14,10.59-61.28-3.28-1.08-13,7.83-26.75,20.22-29.35C266.21,446.16,307.92,433.8,308.21,422.62Z"/></g></svg>
