<svg xmlns="http://www.w3.org/2000/svg" width="1920" height="1080" viewBox="0 0 1920 1080"><defs><style>.cls-1{opacity:0.85;}.cls-2{fill:#23a018;opacity:0.7;}.cls-3{fill:#14440e;}.cls-4{fill:#36662d;}.cls-5{fill:#206616;}</style></defs><title>snot-klatter</title><g id="Layer_7" data-name="Layer 7"><g class="cls-1"><path class="cls-2" d="M1518.79,643.13s79.42,84.94,156.55,7.53,93.11-109.33,58.32-171.7-41.54-64.22-49-67.3c-67.64-27.88-51.38-35.8-86.75,29.17s-54.31,31.81-58,22.51c-27.49-69.49-64.51-78.79-93.32,7.68s-44.57,41.72-27.15,99.36-21.25,62.61,32.77,77.37S1518.79,643.13,1518.79,643.13Z"/><path class="cls-2" d="M658.67,398.33c-11,67,4.3,83.75,20.07,190.49S715.6,626.07,816.2,713.13,867.57,724,921.9,655.26s34.15-29.34,114.52-2.16,88.27-9.33,183-34.66,28.13-11.13,109.62-102.8,19-42.88-48.5-120.91-61.27-28.24-135.65-16.16S1080.18,317,999.12,254.08C929,199.68,859,383.32,830.15,380.9,818.23,379.9,668.75,336.89,658.67,398.33Z"/><path class="cls-3" d="M1530.71,563.35l-2.46-.87a11.32,11.32,0,0,1-1.47-.65l-8.53-4.58a10.58,10.58,0,0,0-5-1.25h-5.32a10.56,10.56,0,0,1-7.9-3.56l-2.28-2.58a10.55,10.55,0,0,1-2.23-9.91l3.94-13.62c.08-.29.18-.58.29-.87l1.7-4.4a10.53,10.53,0,0,1,6.24-6.12l15.34-5.57a10.53,10.53,0,0,1,9,.88l8.13,4.87A10.48,10.48,0,0,1,1544,519l4.55,8.19a10.54,10.54,0,0,1-1.15,11.92l-1.06,1.26a10.55,10.55,0,0,0-2,9.89h0A10.55,10.55,0,0,1,1530.71,563.35Z"/><path class="cls-4" d="M1596.15,605l-.22,3.17a11.61,11.61,0,0,1-.29,2L1593,621.64a13,13,0,0,0,.14,6.28l1.73,6.26a12.87,12.87,0,0,1-1.63,10.46l-2.3,3.52A12.87,12.87,0,0,1,1580,654l-17.31-.21-1.11-.06-5.74-.57a12.87,12.87,0,0,1-9.23-5.37l-11.53-16.25a12.88,12.88,0,0,1-1.9-10.9l3.1-11.15a12.81,12.81,0,0,1,3.38-5.74l8.17-8a12.87,12.87,0,0,1,14.4-2.51l1.83.84a12.88,12.88,0,0,0,12.3-.84h0A12.88,12.88,0,0,1,1596.15,605Z"/><path class="cls-3" d="M1679.92,482.59l-.12,1.78a8.19,8.19,0,0,1-.16,1.09l-1.47,6.44a7.31,7.31,0,0,0,.08,3.51l1,3.51a7.23,7.23,0,0,1-.91,5.85l-1.29,2a7.18,7.18,0,0,1-6.12,3.27l-9.68-.12c-.21,0-.42,0-.62,0l-3.21-.32a7.23,7.23,0,0,1-5.17-3l-6.44-9.09a7.2,7.2,0,0,1-1.07-6.1l1.74-6.24a7.29,7.29,0,0,1,1.89-3.21l4.57-4.48a7.2,7.2,0,0,1,8-1.4l1,.47a7.2,7.2,0,0,0,6.88-.47h0A7.2,7.2,0,0,1,1679.92,482.59Z"/><path class="cls-3" d="M1676.42,557.19l-.19,2.71a11.67,11.67,0,0,1-.25,1.66l-2.23,9.83a11.05,11.05,0,0,0,.12,5.36l1.47,5.34A11,11,0,0,1,1674,591l-2,3a11,11,0,0,1-9.34,5l-14.77-.18c-.32,0-.64,0-1-.05l-4.9-.49a11,11,0,0,1-7.87-4.58l-9.84-13.86a11,11,0,0,1-1.62-9.3l2.64-9.52a11.09,11.09,0,0,1,2.89-4.89l7-6.84a11,11,0,0,1,12.28-2.14l1.57.72a11,11,0,0,0,10.49-.72h0A11,11,0,0,1,1676.42,557.19Z"/><path class="cls-3" d="M761.58,521.45l-2.47-.87a10.39,10.39,0,0,1-1.49-.66l-8.6-4.61a10.6,10.6,0,0,0-5-1.27h-5.37a10.65,10.65,0,0,1-8-3.59l-2.29-2.6a10.63,10.63,0,0,1-2.25-10l4-13.73a9.06,9.06,0,0,1,.29-.88l1.71-4.44a10.66,10.66,0,0,1,6.3-6.17L753.86,467a10.61,10.61,0,0,1,9.09.88l8.2,4.91a10.6,10.6,0,0,1,3.82,4l4.59,8.26a10.64,10.64,0,0,1-1.16,12l-1.08,1.28a10.62,10.62,0,0,0-2,10h0A10.64,10.64,0,0,1,761.58,521.45Z"/><path class="cls-5" d="M836.58,571.59l-.16,2.34a9.81,9.81,0,0,1-.22,1.44l-1.93,8.52a9.59,9.59,0,0,0,.1,4.64l1.28,4.63a9.53,9.53,0,0,1-1.2,7.74l-1.7,2.59a9.52,9.52,0,0,1-8.09,4.32l-12.79-.15c-.28,0-.56,0-.83,0l-4.24-.42a9.53,9.53,0,0,1-6.83-4l-8.52-12a9.51,9.51,0,0,1-1.4-8.06l2.29-8.24a9.54,9.54,0,0,1,2.5-4.24l6-5.93a9.51,9.51,0,0,1,10.64-1.85l1.36.62a9.52,9.52,0,0,0,9.09-.62h0A9.52,9.52,0,0,1,836.58,571.59Z"/><path class="cls-5" d="M854.56,450.11l-.12,1.79a7,7,0,0,1-.17,1.1l-1.47,6.5a7.2,7.2,0,0,0,.08,3.54l1,3.53a7.24,7.24,0,0,1-.92,5.9l-1.29,2a7.27,7.27,0,0,1-6.17,3.29l-9.76-.11-.63,0-3.24-.32a7.24,7.24,0,0,1-5.2-3l-6.5-9.16a7.27,7.27,0,0,1-1.08-6.15l1.75-6.29a7.2,7.2,0,0,1,1.91-3.23l4.6-4.52a7.28,7.28,0,0,1,8.13-1.42l1,.48a7.27,7.27,0,0,0,6.94-.48h0A7.26,7.26,0,0,1,854.56,450.11Z"/><path class="cls-3" d="M1140.42,440.67l1.1-2.38a9.36,9.36,0,0,1,.79-1.42l5.4-8.14a10.57,10.57,0,0,0,1.72-4.88l.5-5.34a10.64,10.64,0,0,1,4.32-7.6l2.8-2.05a10.65,10.65,0,0,1,10.16-1.3l13.31,5.23c.28.11.56.24.84.37l4.26,2.12a10.65,10.65,0,0,1,5.56,6.85l4.14,15.92a10.65,10.65,0,0,1-1.72,9l-5.66,7.7a10.7,10.7,0,0,1-4.3,3.44L1175,462a10.61,10.61,0,0,1-11.85-2.28l-1.17-1.19a10.65,10.65,0,0,0-9.74-2.95h0A10.63,10.63,0,0,1,1140.42,440.67Z"/><path class="cls-3" d="M1059.77,512.28l-4-.66a15.65,15.65,0,0,1-2.43-.59l-14.27-4.68a16.37,16.37,0,0,0-7.95-.56l-8.13,1.44a16.36,16.36,0,0,1-13-3.3l-4.17-3.32a16.33,16.33,0,0,1-6.09-14.53l2.31-21.87c.05-.47.13-.94.22-1.4l1.4-7.19a16.34,16.34,0,0,1,7.88-11l21.92-12.65a16.31,16.31,0,0,1,14-1.12l13.74,5.24a16.39,16.39,0,0,1,6.85,5l9.17,11.27a16.36,16.36,0,0,1,1.47,18.51l-1.29,2.23a16.35,16.35,0,0,0-.39,15.65h0A16.36,16.36,0,0,1,1059.77,512.28Z"/><path class="cls-3" d="M1207.45,598.06l-1.77-.29a6.56,6.56,0,0,1-1.08-.27l-6.33-2.07a7.17,7.17,0,0,0-3.53-.25l-3.61.64a7.27,7.27,0,0,1-5.79-1.47l-1.85-1.47a7.26,7.26,0,0,1-2.71-6.45l1-9.71a6.17,6.17,0,0,1,.1-.62l.62-3.2a7.26,7.26,0,0,1,3.5-4.9l9.73-5.61a7.24,7.24,0,0,1,6.22-.5l6.1,2.33a7.17,7.17,0,0,1,3,2.2l4.07,5a7.27,7.27,0,0,1,.65,8.22l-.57,1a7.27,7.27,0,0,0-.17,7h0A7.27,7.27,0,0,1,1207.45,598.06Z"/><path class="cls-5" d="M1132.89,587.52l-2.7-.44a10.09,10.09,0,0,1-1.64-.41l-9.67-3.16a11,11,0,0,0-5.38-.38l-5.51,1a11.06,11.06,0,0,1-8.83-2.23l-2.82-2.25a11.08,11.08,0,0,1-4.13-9.84l1.57-14.81c0-.32.08-.64.14-1l.95-4.87a11.07,11.07,0,0,1,5.34-7.47l14.84-8.57a11.07,11.07,0,0,1,9.49-.76l9.31,3.55a11.17,11.17,0,0,1,4.64,3.36l6.21,7.64a11.07,11.07,0,0,1,1,12.53l-.87,1.51a11.11,11.11,0,0,0-.27,10.6h0A11.07,11.07,0,0,1,1132.89,587.52Z"/><path class="cls-3" d="M906.53,412.25l-.22-3.09a12.31,12.31,0,0,1,0-1.92l.92-11.49a12.51,12.51,0,0,0-1-6l-2.54-5.8a12.59,12.59,0,0,1,.11-10.32l1.72-3.71a12.58,12.58,0,0,1,9.75-7.17L932,360.5c.36,0,.73-.08,1.09-.09l5.61-.25a12.54,12.54,0,0,1,9.66,3.89l13.39,14.07a12.56,12.56,0,0,1,3.36,10.26l-1.44,11.19a12.56,12.56,0,0,1-2.47,6l-6.76,8.87a12.54,12.54,0,0,1-13.54,4.43l-1.89-.56a12.54,12.54,0,0,0-11.75,2.53h0A12.56,12.56,0,0,1,906.53,412.25Z"/><path class="cls-2" d="M271.26,1058.16c49.88.82,82.47-52.43,58.67-96.27C317,938,376.4,945.57,396.25,940.07c109.14-30.28-34.81-24,59.66-55.16,70.31-23.17-28.67-121.19-36.4-124.38-70.11-28.91-53.25-37.12-89.92,30.23s-74.85,71.42-78.67,61.78c-28.5-72-48.3-120.11-78.16-30.49S196.91,873.24,215,933s-100.14,101-44.15,116.34C192.23,1055.17,231.24,1057.51,271.26,1058.16Z"/><path class="cls-3" d="M349.46,837.49l-1.18-.42a6.36,6.36,0,0,1-.71-.31l-4.1-2.2a5,5,0,0,0-2.4-.61h-2.56a5.07,5.07,0,0,1-3.8-1.71L333.62,831a5.05,5.05,0,0,1-1.07-4.77l1.89-6.55c0-.14.09-.28.14-.41l.82-2.12a5,5,0,0,1,3-2.94l7.37-2.68a5.06,5.06,0,0,1,4.34.42L354,814.3a5,5,0,0,1,1.82,1.88l2.19,3.94a5.09,5.09,0,0,1-.55,5.73l-.51.61a5.05,5.05,0,0,0-1,4.75h0A5.08,5.08,0,0,1,349.46,837.49Z"/><path class="cls-5" d="M385.23,861.4l-.08,1.12a5.06,5.06,0,0,1-.1.68l-.93,4.07a4.59,4.59,0,0,0,.06,2.21l.6,2.21a4.51,4.51,0,0,1-.57,3.68l-.81,1.24a4.52,4.52,0,0,1-3.86,2.06l-6.1-.07-.39,0-2-.2a4.55,4.55,0,0,1-3.25-1.89l-4.07-5.73a4.58,4.58,0,0,1-.67-3.85l1.1-3.93a4.47,4.47,0,0,1,1.19-2l2.88-2.83a4.53,4.53,0,0,1,5.08-.88l.64.29a4.53,4.53,0,0,0,4.34-.29h0A4.54,4.54,0,0,1,385.23,861.4Z"/><path class="cls-5" d="M393.8,801.54l-.06.85a4.34,4.34,0,0,1-.07.52L393,806a3.54,3.54,0,0,0,0,1.68l.46,1.69a3.44,3.44,0,0,1-.43,2.81l-.62.95a3.48,3.48,0,0,1-2.94,1.57l-4.66-.06-.3,0-1.54-.15a3.46,3.46,0,0,1-2.49-1.44l-3.1-4.37a3.49,3.49,0,0,1-.51-2.94l.84-3a3.4,3.4,0,0,1,.91-1.55l2.19-2.15a3.47,3.47,0,0,1,3.88-.68l.49.23a3.45,3.45,0,0,0,3.31-.23h0A3.46,3.46,0,0,1,393.8,801.54Z"/><path class="cls-3" d="M439.61,835.9l-.15,2.2a8.92,8.92,0,0,1-.2,1.36l-1.82,8a8.94,8.94,0,0,0,.1,4.36l1.2,4.36a9,9,0,0,1-1.13,7.27L436,865.9A9,9,0,0,1,428.4,870l-12-.15c-.26,0-.52,0-.78,0l-4-.4a9,9,0,0,1-6.42-3.73l-8-11.3a9,9,0,0,1-1.32-7.58L398,839a9,9,0,0,1,2.35-4l5.68-5.57a8.94,8.94,0,0,1,10-1.74l1.27.58a9,9,0,0,0,8.55-.58h0A9,9,0,0,1,439.61,835.9Z"/><path class="cls-3" d="M265.63,935.81l.22-1.23a5,5,0,0,1,.19-.76l1.49-4.4a5.06,5.06,0,0,0,.2-2.47l-.43-2.52a5.08,5.08,0,0,1,1.06-4l1-1.29a5.11,5.11,0,0,1,4.53-1.85l6.77.78.43.07,2.23.46a5,5,0,0,1,3.4,2.47l3.86,6.83a5.07,5.07,0,0,1,.3,4.35l-1.66,4.24a5,5,0,0,1-1.56,2.11l-3.52,2.81a5.06,5.06,0,0,1-5.74.41l-.69-.41a5.06,5.06,0,0,0-4.85-.16h0A5.08,5.08,0,0,1,265.63,935.81Z"/><path class="cls-5" d="M248,975.05l-1.11.1a4.1,4.1,0,0,1-.7,0l-4.16-.24a4.51,4.51,0,0,0-2.17.42l-2.08,1a4.54,4.54,0,0,1-3.73.05l-1.36-.59A4.55,4.55,0,0,1,230,972.3l-.94-6c0-.13,0-.26,0-.39l-.14-2a4.54,4.54,0,0,1,1.33-3.52l5-5a4.56,4.56,0,0,1,3.68-1.3l4,.43a4.54,4.54,0,0,1,2.2.84l3.26,2.37a4.53,4.53,0,0,1,1.71,4.86l-.18.69a4.54,4.54,0,0,0,1,4.23h0A4.54,4.54,0,0,1,248,975.05Z"/><path class="cls-5" d="M308.43,973.58l-.85.08a3.11,3.11,0,0,1-.53,0l-3.17-.18a3.52,3.52,0,0,0-1.66.32l-1.58.74a3.46,3.46,0,0,1-2.85,0l-1-.45a3.45,3.45,0,0,1-2-2.64l-.72-4.6,0-.3-.11-1.55a3.51,3.51,0,0,1,1-2.69l3.79-3.78a3.48,3.48,0,0,1,2.81-1l3.1.33a3.4,3.4,0,0,1,1.67.64l2.49,1.81a3.47,3.47,0,0,1,1.31,3.7l-.15.53a3.49,3.49,0,0,0,.77,3.22h0A3.46,3.46,0,0,1,308.43,973.58Z"/><path class="cls-3" d="M282.14,1024.45l-2.2.21a7.82,7.82,0,0,1-1.37,0l-8.2-.46a8.83,8.83,0,0,0-4.29.82L262,1027a8.92,8.92,0,0,1-7.36.09l-2.67-1.17a8.94,8.94,0,0,1-5.27-6.83l-1.85-11.89c0-.25-.07-.51-.09-.77l-.27-4a9,9,0,0,1,2.62-7l9.81-9.77a9,9,0,0,1,7.26-2.56l8,.84a8.93,8.93,0,0,1,4.32,1.66l6.44,4.67a9,9,0,0,1,3.38,9.59l-.37,1.35a9,9,0,0,0,2,8.34h0A9,9,0,0,1,282.14,1024.45Z"/><path class="cls-2" d="M284.61,310.9c-149.24,40,2-170.7,97.57-172.36S340.59,8.45,493.53,51.76,726,95.38,736.79,157.3s-93-2.78-180.43,65.24-221.93,125.74-91.5,166.39c26.74,8.34,37.67,50.2-78.27,32.42C294.35,407.2,339.9,405,298.67,374.71s119.88-25.56,63.77-54.41C305.79,291.17,284.61,310.9,284.61,310.9Z"/><path class="cls-3" d="M397.38,211.14l1.51-.51a7,7,0,0,1,1-.24l6.18-1a5.14,5.14,0,0,0,2.74-1.27l2.1-2a6.28,6.28,0,0,1,5.31-1.27l2.49.38a11.86,11.86,0,0,1,7,3.88l6.85,8c.15.17.29.35.42.52l2.05,2.74a6,6,0,0,1,1.31,5.26L433.7,234a4.52,4.52,0,0,1-4.09,3l-6.21.73a9.34,9.34,0,0,1-3.92-.45L412.64,235a11,11,0,0,1-6.9-6.11l-.36-1a10.45,10.45,0,0,0-5.31-5.46h0C394,219.46,392.39,212.83,397.38,211.14Z"/><path class="cls-5" d="M407.16,281.36l-1-.89a6.72,6.72,0,0,1-.61-.58l-3.4-3.62a8,8,0,0,0-2.2-1.64l-2.54-1.31a7.36,7.36,0,0,1-3.25-3.13l-.71-1.42a3.13,3.13,0,0,1,.4-3.85l3.89-3.58a2.75,2.75,0,0,1,.26-.22l1.46-1.05a4.86,4.86,0,0,1,3.89-.51l8.15,1.92a8.19,8.19,0,0,1,4.18,2.5l3.16,3.63a5.46,5.46,0,0,1,1.24,2.24l1,3.84a2.88,2.88,0,0,1-2.31,3.7l-.69.16a2.83,2.83,0,0,0-2.42,2.8h0C415.57,283.74,410.64,284.33,407.16,281.36Z"/><path class="cls-3" d="M325.54,283.05l-2.7-2.3a20.35,20.35,0,0,1-1.57-1.5l-8.79-9.36a21,21,0,0,0-5.68-4.25l-6.57-3.38a19.2,19.2,0,0,1-8.4-8.09L290,250.51c-1.92-3.85-1.53-7.61,1-10l10.05-9.25a5.44,5.44,0,0,1,.69-.56l3.77-2.72c2.44-1.76,6.11-2.24,10-1.31l21.06,4.94a21,21,0,0,1,10.8,6.48l8.18,9.37a14.11,14.11,0,0,1,3.19,5.79l2.5,9.94c1.16,4.65-1.21,8.45-6,9.55l-1.8.41c-3.89.9-6.25,3.63-6.25,7.25h0C347.28,289.19,334.53,290.72,325.54,283.05Z"/><path class="cls-3" d="M613.88,105.92l1.5-.51a6.11,6.11,0,0,1,1-.25l6.19-1a5.23,5.23,0,0,0,2.74-1.28l2.09-2a6.26,6.26,0,0,1,5.31-1.27l2.49.37a11.84,11.84,0,0,1,7,3.89l6.85,8c.15.17.29.34.43.52l2,2.74a6,6,0,0,1,1.32,5.25l-2.62,8.41a4.5,4.5,0,0,1-4.09,3l-6.21.73A9.47,9.47,0,0,1,636,132l-6.85-2.2a10.91,10.91,0,0,1-6.89-6.11l-.36-1a10.54,10.54,0,0,0-5.31-5.47h0C610.46,114.24,608.88,107.61,613.88,105.92Z"/><path class="cls-5" d="M553.89,110.12,552.52,109c-.28-.25-.55-.5-.79-.76l-4.46-4.75a10.68,10.68,0,0,0-2.88-2.15l-3.33-1.72a9.68,9.68,0,0,1-4.26-4.1l-.93-1.86c-1-2-.78-3.86.52-5.05l5.1-4.69a3.37,3.37,0,0,1,.35-.29l1.91-1.37a6.27,6.27,0,0,1,5.09-.67l10.69,2.51A10.76,10.76,0,0,1,565,87.34l4.14,4.75A7.25,7.25,0,0,1,570.77,95l1.27,5a3.76,3.76,0,0,1-3,4.84l-.91.21a3.72,3.72,0,0,0-3.17,3.68h0C564.92,113.24,558.45,114,553.89,110.12Z"/><path class="cls-5" d="M623.66,176.14l-1-.89c-.21-.19-.42-.38-.61-.58L618.6,171a8.16,8.16,0,0,0-2.19-1.64l-2.55-1.31a7.47,7.47,0,0,1-3.25-3.13l-.7-1.41a3.13,3.13,0,0,1,.39-3.86l3.89-3.57a2,2,0,0,1,.27-.22l1.46-1.05a4.79,4.79,0,0,1,3.88-.51l8.15,1.91a8.17,8.17,0,0,1,4.18,2.51l3.17,3.62a5.61,5.61,0,0,1,1.23,2.24l1,3.85a2.86,2.86,0,0,1-2.31,3.69l-.7.16a2.86,2.86,0,0,0-2.42,2.81h0C632.07,178.51,627.13,179.1,623.66,176.14Z"/></g></g></svg>
