<svg xmlns="http://www.w3.org/2000/svg" xmlns:xlink="http://www.w3.org/1999/xlink" width="1920" height="1080" viewBox="0 0 1920 1080"><defs><style>.cls-1{fill:url(#linear-gradient);}.cls-2{fill:#cee7ef;}.cls-3{fill:#aabcc1;}.cls-4{fill:#1f2021;}.cls-5{fill:#2b2d2b;}.cls-6{fill:#484c48;}.cls-7{fill:#353329;}.cls-8{fill:#d3b72d;}.cls-9{fill:#212321;}.cls-10{fill:#302e23;}.cls-11{fill:#2d2c27;}.cls-12{fill:#2d2c25;}.cls-13{fill:#33312b;}.cls-14{fill:#3a372b;}.cls-15{fill:#3a372c;}.cls-16{fill:#353328;}.cls-17{fill:#333;}.cls-18{fill:#fff;}</style><linearGradient id="linear-gradient" x1="960" y1="-6" x2="960" y2="1074" gradientTransform="translate(1920 1068) rotate(180)" gradientUnits="userSpaceOnUse"><stop offset="0.3" stop-color="#000027"/><stop offset="1" stop-color="#0071bc"/></linearGradient></defs><title>startskærm-baggrund</title><g id="Layer_2" data-name="Layer 2"><rect class="cls-1" y="-6" width="1920" height="1080" transform="translate(1920 1068) rotate(-180)"/><circle class="cls-2" cx="971" cy="467" r="461"/><ellipse class="cls-3" cx="1149.11" cy="161.06" rx="64.96" ry="37.72"/><ellipse class="cls-3" cx="658.78" cy="567.58" rx="106.87" ry="146.68"/><ellipse class="cls-3" cx="1226.65" cy="643.02" rx="142.49" ry="163.45"/><ellipse class="cls-3" cx="759.36" cy="188.3" rx="90.1" ry="52.39"/><ellipse class="cls-3" cx="903.25" cy="663.27" rx="48.2" ry="60.77"/><ellipse class="cls-3" cx="864.13" cy="812.75" rx="102.68" ry="39.81"/><circle class="cls-3" cx="722.07" cy="308.02" r="35.62"/><ellipse class="cls-3" cx="1316.75" cy="349.65" rx="35.62" ry="71.25"/><rect class="cls-4" x="700" y="709" width="534" height="246"/><rect class="cls-4" x="468" y="772.41" width="534" height="244.59"/><rect class="cls-4" x="954" y="789.41" width="534" height="244.59"/><rect class="cls-4" x="6" y="758" width="703" height="322" transform="translate(715 1838) rotate(-180)"/><polygon class="cls-5" points="539 848 615 848 606.88 587.5 539 587.5 539 848"/><rect class="cls-4" x="1218" y="758" width="703" height="322"/><polygon class="cls-5" points="240 934 371 934 357 485 240 485 240 934"/><polygon class="cls-5" points="1220 798 1174.19 798 1179.09 641 1220 641 1220 798"/><polygon class="cls-6" points="757 791.19 819.21 767.46 821.69 661.24 752.38 638.14 757 791.19"/><polygon class="cls-7" points="761.51 672.17 770.58 668.71 770.94 653.22 760.84 649.85 761.51 672.17"/><polygon class="cls-7" points="762.54 700.23 771.61 696.76 771.98 681.27 761.87 677.9 762.54 700.23"/><polygon class="cls-8" points="763.78 727.45 772.85 723.99 773.21 708.5 763.11 705.13 763.78 727.45"/><polygon class="cls-7" points="764.61 753.03 773.68 749.57 774.04 734.08 763.93 730.71 764.61 753.03"/><polygon class="cls-7" points="776.3 675.5 784.7 672.3 785.03 657.96 775.67 654.85 776.3 675.5"/><polygon class="cls-7" points="777.25 701.47 785.65 698.27 785.99 683.93 776.63 680.81 777.25 701.47"/><polygon class="cls-7" points="778.4 725.64 786.8 722.44 787.13 708.1 777.77 704.98 778.4 725.64"/><polygon class="cls-7" points="779.16 749.32 787.56 746.12 787.89 731.78 778.54 728.66 779.16 749.32"/><polygon class="cls-8" points="789.87 678.46 797.56 675.53 797.87 662.4 789.3 659.55 789.87 678.46"/><polygon class="cls-7" points="790.75 702.23 798.43 699.29 798.74 686.17 790.18 683.32 790.75 702.23"/><polygon class="cls-7" points="791.8 724.76 799.48 721.83 799.79 708.71 791.23 705.85 791.8 724.76"/><polygon class="cls-7" points="792.5 746.02 800.18 743.09 800.49 729.96 791.92 727.11 792.5 746.02"/><polygon class="cls-7" points="804.07 681.4 811.18 678.68 811.47 666.53 803.53 663.88 804.07 681.4"/><polygon class="cls-8" points="804.87 703.41 811.99 700.69 812.28 688.54 804.35 685.89 804.87 703.41"/><polygon class="cls-7" points="805.85 724.28 812.96 721.57 813.25 709.41 805.32 706.77 805.85 724.28"/><polygon class="cls-7" points="806.49 743.97 813.61 741.25 813.89 729.1 805.96 726.46 806.49 743.97"/><polygon class="cls-9" points="787.91 780.26 799.76 775.74 800.24 755.51 787.03 751.11 787.91 780.26"/><polygon class="cls-5" points="712 795 757.81 795 752.91 638 712 638 712 795"/><polygon class="cls-6" points="1174.99 796.19 1112.79 772.46 1110.31 666.24 1179.62 643.14 1174.99 796.19"/><polygon class="cls-8" points="1170.49 677.17 1161.42 673.71 1161.06 658.22 1171.16 654.85 1170.49 677.17"/><polygon class="cls-10" points="1169.46 705.23 1160.39 701.76 1160.03 686.27 1170.13 682.9 1169.46 705.23"/><polygon class="cls-8" points="1168.22 732.45 1159.15 728.99 1158.79 713.5 1168.89 710.13 1168.22 732.45"/><polygon class="cls-10" points="1167.39 758.03 1158.32 754.57 1157.96 739.08 1168.07 735.71 1167.39 758.03"/><polygon class="cls-10" points="1155.7 680.5 1147.3 677.3 1146.97 662.96 1156.33 659.85 1155.7 680.5"/><polygon class="cls-10" points="1154.75 706.47 1146.35 703.27 1146.02 688.93 1155.37 685.81 1154.75 706.47"/><polygon class="cls-10" points="1153.6 730.64 1145.2 727.44 1144.87 713.1 1154.22 709.98 1153.6 730.64"/><polygon class="cls-10" points="1152.84 754.32 1144.44 751.12 1144.11 736.78 1153.46 733.66 1152.84 754.32"/><polygon class="cls-8" points="1142.13 683.46 1134.44 680.53 1134.13 667.4 1142.7 664.55 1142.13 683.46"/><polygon class="cls-10" points="1141.25 707.23 1133.57 704.29 1133.26 691.17 1141.82 688.32 1141.25 707.23"/><polygon class="cls-10" points="1140.2 729.76 1132.52 726.83 1132.21 713.71 1140.78 710.85 1140.2 729.76"/><polygon class="cls-8" points="1139.51 751.02 1131.82 748.09 1131.51 734.96 1140.08 732.11 1139.51 751.02"/><polygon class="cls-10" points="1127.93 686.4 1120.82 683.68 1120.53 671.53 1128.46 668.88 1127.93 686.4"/><polygon class="cls-8" points="1127.13 708.41 1120.01 705.69 1119.72 693.54 1127.65 690.89 1127.13 708.41"/><polygon class="cls-10" points="1126.15 729.28 1119.04 726.57 1118.75 714.41 1126.68 711.77 1126.15 729.28"/><polygon class="cls-8" points="1125.51 748.97 1118.39 746.25 1118.11 734.1 1126.04 731.46 1125.51 748.97"/><polygon class="cls-9" points="1144.09 785.26 1132.24 780.74 1131.77 760.51 1144.97 756.11 1144.09 785.26"/><polygon class="cls-6" points="2.42 1080 304 964.95 316 450 -20 338 2.42 1080"/><polygon class="cls-8" points="24.27 503 68.25 486.22 70 411.13 21 394.79 24.27 503"/><polygon class="cls-11" points="29.27 639 73.25 622.22 75 547.13 26 530.79 29.27 639"/><polygon class="cls-8" points="35.27 771 79.25 754.22 81 679.13 32 662.79 35.27 771"/><polygon class="cls-11" points="39.27 895 83.25 878.22 85 803.13 36 786.79 39.27 895"/><polygon class="cls-11" points="95.96 519.16 136.67 503.63 138.29 434.12 92.94 419 95.96 519.16"/><polygon class="cls-8" points="100.59 645.04 141.3 629.51 142.92 560 97.56 544.88 100.59 645.04"/><polygon class="cls-11" points="106.14 762.22 146.85 746.69 148.47 677.18 103.12 662.07 106.14 762.22"/><polygon class="cls-8" points="109.85 877 150.56 861.47 152.18 791.96 106.82 776.84 109.85 877"/><polygon class="cls-8" points="161.77 533.48 199.03 519.27 200.51 455.65 159 441.81 161.77 533.48"/><polygon class="cls-11" points="166.01 648.7 203.26 634.48 204.75 570.86 163.24 557.03 166.01 648.7"/><polygon class="cls-8" points="171.09 757.95 208.35 743.74 209.83 680.12 168.32 666.28 171.09 757.95"/><polygon class="cls-11" points="174.48 861 211.74 846.79 213.22 783.16 171.71 769.33 174.48 861"/><polygon class="cls-8" points="230.57 547.72 265.08 534.55 266.45 475.63 228 462.81 230.57 547.72"/><polygon class="cls-8" points="234.49 654.43 269 641.27 270.37 582.34 231.92 569.53 234.49 654.43"/><polygon class="cls-8" points="239.2 755.63 273.71 742.46 275.08 683.53 236.63 670.72 239.2 755.63"/><polygon class="cls-11" points="242.34 851.08 276.85 837.91 278.22 778.98 239.77 766.17 242.34 851.08"/><polygon class="cls-9" points="152.27 1027 209.71 1005.09 212 907 148 885.67 152.27 1027"/><polygon class="cls-6" points="370.56 934 552.97 864.41 560.23 552.95 357 485.21 370.56 934"/><polygon class="cls-12" points="383.78 585.01 410.38 574.86 411.44 529.44 381.8 519.56 383.78 585.01"/><polygon class="cls-8" points="386.8 667.26 413.4 657.12 414.46 611.7 384.82 601.82 386.8 667.26"/><polygon class="cls-8" points="390.43 747.1 417.03 736.96 418.09 691.53 388.45 681.65 390.43 747.1"/><polygon class="cls-8" points="392.85 822.11 419.45 811.96 420.51 766.53 390.87 756.66 392.85 822.11"/><polygon class="cls-12" points="427.14 594.78 451.76 585.39 452.74 543.35 425.31 534.2 427.14 594.78"/><polygon class="cls-12" points="429.94 670.92 454.56 661.53 455.54 619.48 428.11 610.34 429.94 670.92"/><polygon class="cls-12" points="433.3 741.8 457.92 732.4 458.9 690.36 431.47 681.22 433.3 741.8"/><polygon class="cls-12" points="435.54 811.22 460.16 801.82 461.14 759.78 433.71 750.64 435.54 811.22"/><polygon class="cls-12" points="466.94 603.44 489.48 594.85 490.37 556.37 465.27 548 466.94 603.44"/><polygon class="cls-12" points="469.5 673.13 492.04 664.53 492.94 626.05 467.83 617.68 469.5 673.13"/><polygon class="cls-12" points="472.58 739.21 495.11 730.61 496.01 692.13 470.9 683.76 472.58 739.21"/><polygon class="cls-12" points="474.63 801.54 497.16 792.94 498.06 754.46 472.95 746.09 474.63 801.54"/><polygon class="cls-8" points="508.55 612.05 529.42 604.09 530.26 568.45 507 560.7 508.55 612.05"/><polygon class="cls-12" points="510.93 676.6 531.8 668.64 532.63 633 509.37 625.25 510.93 676.6"/><polygon class="cls-8" points="513.77 737.81 534.65 729.84 535.48 694.2 512.22 686.45 513.77 737.81"/><polygon class="cls-12" points="515.67 795.54 536.54 787.57 537.38 751.93 514.12 744.18 515.67 795.54"/><polygon class="cls-9" points="461.2 901.94 495.94 888.69 497.32 829.36 458.61 816.46 461.2 901.94"/><polygon class="cls-6" points="613.67 842 716.89 802.62 721 626.38 606 588.04 613.67 842"/><polygon class="cls-13" points="621.15 644.51 636.2 638.77 636.8 613.07 620.03 607.48 621.15 644.51"/><polygon class="cls-13" points="622.86 691.06 637.92 685.32 638.51 659.62 621.74 654.03 622.86 691.06"/><polygon class="cls-8" points="624.92 736.24 639.97 730.5 640.57 704.8 623.8 699.21 624.92 736.24"/><polygon class="cls-8" points="626.29 778.68 641.34 772.94 641.94 747.24 625.17 741.65 626.29 778.68"/><polygon class="cls-13" points="645.69 650.05 659.62 644.73 660.18 620.94 644.65 615.76 645.69 650.05"/><polygon class="cls-13" points="647.27 693.13 661.21 687.82 661.76 664.02 646.24 658.85 647.27 693.13"/><polygon class="cls-13" points="649.17 733.24 663.11 727.92 663.66 704.13 648.14 698.96 649.17 733.24"/><polygon class="cls-8" points="650.44 772.52 664.37 767.21 664.93 743.41 649.4 738.24 650.44 772.52"/><polygon class="cls-8" points="668.21 654.95 680.97 650.08 681.47 628.31 667.26 623.57 668.21 654.95"/><polygon class="cls-8" points="669.66 694.38 682.41 689.52 682.92 667.74 668.71 663.01 669.66 694.38"/><polygon class="cls-13" points="671.4 731.77 684.15 726.91 684.66 705.13 670.45 700.4 671.4 731.77"/><polygon class="cls-13" points="672.56 767.04 685.31 762.18 685.82 740.4 671.61 735.67 672.56 767.04"/><polygon class="cls-13" points="691.76 659.82 703.57 655.31 704.04 635.15 690.88 630.76 691.76 659.82"/><polygon class="cls-8" points="693.1 696.35 704.91 691.84 705.38 671.67 692.22 667.28 693.1 696.35"/><polygon class="cls-13" points="694.71 730.98 706.52 726.47 707 706.3 693.84 701.92 694.71 730.98"/><polygon class="cls-13" points="695.79 763.65 707.6 759.14 708.07 738.97 694.91 734.59 695.79 763.65"/><polygon class="cls-9" points="664.96 823.86 684.62 816.36 685.4 782.79 663.5 775.49 664.96 823.86"/><polygon class="cls-5" points="1388 851 1311.99 851 1320.12 590.5 1388 590.5 1388 851"/><polygon class="cls-5" points="1687 934 1556 934 1570 485 1687 485 1687 934"/><polygon class="cls-6" points="1914.31 1080 1622.61 964.95 1611 450 1936 338 1914.31 1080"/><polygon class="cls-14" points="1893.18 503 1850.64 486.22 1848.95 411.13 1896.34 394.79 1893.18 503"/><polygon class="cls-14" points="1888.34 639 1845.8 622.22 1844.11 547.13 1891.51 530.79 1888.34 639"/><polygon class="cls-8" points="1882.54 771 1840 754.22 1838.31 679.13 1885.7 662.79 1882.54 771"/><polygon class="cls-8" points="1878.67 895 1836.13 878.22 1834.44 803.13 1881.83 786.79 1878.67 895"/><polygon class="cls-8" points="1823.83 519.16 1784.46 503.63 1782.89 434.12 1826.76 419 1823.83 519.16"/><polygon class="cls-14" points="1819.36 645.04 1779.98 629.51 1778.41 560 1822.29 544.88 1819.36 645.04"/><polygon class="cls-14" points="1813.98 762.22 1774.61 746.69 1773.04 677.18 1816.91 662.07 1813.98 762.22"/><polygon class="cls-8" points="1810.4 877 1771.03 861.47 1769.46 791.96 1813.33 776.84 1810.4 877"/><polygon class="cls-8" points="1760.18 533.48 1724.14 519.27 1722.71 455.65 1762.86 441.81 1760.18 533.48"/><polygon class="cls-8" points="1756.08 648.7 1720.04 634.48 1718.61 570.86 1758.76 557.03 1756.08 648.7"/><polygon class="cls-14" points="1751.17 757.95 1715.13 743.74 1713.69 680.12 1753.85 666.28 1751.17 757.95"/><polygon class="cls-14" points="1747.89 861 1711.85 846.79 1710.42 783.16 1750.57 769.33 1747.89 861"/><polygon class="cls-14" points="1693.64 547.72 1660.26 534.55 1658.93 475.63 1696.12 462.81 1693.64 547.72"/><polygon class="cls-14" points="1689.84 654.43 1656.46 641.27 1655.13 582.34 1692.32 569.53 1689.84 654.43"/><polygon class="cls-8" points="1685.29 755.63 1651.91 742.46 1650.58 683.53 1687.77 670.72 1685.29 755.63"/><polygon class="cls-8" points="1682.25 851.08 1648.87 837.91 1647.54 778.98 1684.73 766.17 1682.25 851.08"/><polygon class="cls-9" points="1769.37 1027 1713.81 1005.09 1711.6 907 1773.5 885.67 1769.37 1027"/><polygon class="cls-6" points="1556.44 939 1374.03 869.41 1366.77 557.95 1570 490.21 1556.44 939"/><polygon class="cls-8" points="1543.22 590.01 1516.62 579.86 1515.56 534.44 1545.2 524.56 1543.22 590.01"/><polygon class="cls-15" points="1540.2 672.26 1513.6 662.12 1512.54 616.7 1542.18 606.82 1540.2 672.26"/><polygon class="cls-8" points="1536.57 752.1 1509.97 741.96 1508.91 696.53 1538.55 686.65 1536.57 752.1"/><polygon class="cls-8" points="1534.15 827.11 1507.55 816.96 1506.49 771.53 1536.13 761.66 1534.15 827.11"/><polygon class="cls-15" points="1499.86 599.78 1475.24 590.39 1474.26 548.35 1501.69 539.2 1499.86 599.78"/><polygon class="cls-15" points="1497.06 675.92 1472.44 666.53 1471.46 624.48 1498.89 615.34 1497.06 675.92"/><polygon class="cls-15" points="1493.7 746.8 1469.08 737.4 1468.1 695.36 1495.53 686.22 1493.7 746.8"/><polygon class="cls-15" points="1491.46 816.22 1466.84 806.82 1465.86 764.78 1493.29 755.64 1491.46 816.22"/><polygon class="cls-8" points="1460.06 608.44 1437.52 599.85 1436.63 561.37 1461.73 553 1460.06 608.44"/><polygon class="cls-15" points="1457.5 678.13 1434.96 669.53 1434.06 631.05 1459.17 622.68 1457.5 678.13"/><polygon class="cls-15" points="1454.42 744.21 1431.89 735.61 1430.99 697.13 1456.1 688.76 1454.42 744.21"/><polygon class="cls-15" points="1452.37 806.54 1429.84 797.94 1428.94 759.46 1454.05 751.09 1452.37 806.54"/><polygon class="cls-15" points="1418.45 617.05 1397.57 609.09 1396.74 573.45 1420 565.7 1418.45 617.05"/><polygon class="cls-15" points="1416.07 681.6 1395.2 673.64 1394.37 638 1417.63 630.25 1416.07 681.6"/><polygon class="cls-8" points="1413.23 742.81 1392.35 734.84 1391.52 699.2 1414.78 691.45 1413.23 742.81"/><polygon class="cls-8" points="1411.33 800.54 1390.45 792.57 1389.63 756.93 1412.88 749.18 1411.33 800.54"/><polygon class="cls-9" points="1465.8 906.94 1431.06 893.69 1429.68 834.36 1468.39 821.46 1465.8 906.94"/><polygon class="cls-6" points="1313.33 846 1210.11 806.62 1206 630.38 1321 592.04 1313.33 846"/><polygon class="cls-8" points="1305.85 648.51 1290.8 642.77 1290.2 617.07 1306.97 611.48 1305.85 648.51"/><polygon class="cls-16" points="1304.14 695.06 1289.08 689.32 1288.48 663.62 1305.26 658.03 1304.14 695.06"/><polygon class="cls-8" points="1302.08 740.24 1287.03 734.5 1286.43 708.8 1303.2 703.21 1302.08 740.24"/><polygon class="cls-16" points="1300.71 782.68 1285.66 776.94 1285.06 751.24 1301.83 745.65 1300.71 782.68"/><polygon class="cls-8" points="1281.31 654.05 1267.38 648.73 1266.82 624.94 1282.35 619.76 1281.31 654.05"/><polygon class="cls-8" points="1279.73 697.13 1265.79 691.82 1265.24 668.02 1280.76 662.85 1279.73 697.13"/><polygon class="cls-16" points="1277.83 737.24 1263.89 731.92 1263.34 708.13 1278.86 702.96 1277.83 737.24"/><polygon class="cls-16" points="1276.56 776.52 1262.63 771.21 1262.07 747.41 1277.59 742.24 1276.56 776.52"/><polygon class="cls-16" points="1258.79 658.95 1246.03 654.08 1245.53 632.31 1259.73 627.57 1258.79 658.95"/><polygon class="cls-16" points="1257.34 698.38 1244.59 693.52 1244.08 671.74 1258.29 667.01 1257.34 698.38"/><polygon class="cls-16" points="1255.6 735.77 1242.85 730.91 1242.34 709.13 1256.55 704.4 1255.6 735.77"/><polygon class="cls-16" points="1254.44 771.04 1241.68 766.18 1241.18 744.4 1255.39 739.67 1254.44 771.04"/><polygon class="cls-16" points="1235.24 663.82 1223.43 659.31 1222.96 639.15 1236.12 634.76 1235.24 663.82"/><polygon class="cls-8" points="1233.9 700.35 1222.09 695.84 1221.62 675.67 1234.78 671.28 1233.9 700.35"/><polygon class="cls-16" points="1232.29 734.98 1220.47 730.47 1220.01 710.3 1233.16 705.92 1232.29 734.98"/><polygon class="cls-8" points="1231.21 767.65 1219.4 763.14 1218.93 742.97 1232.09 738.59 1231.21 767.65"/><polygon class="cls-9" points="1262.04 827.86 1242.38 820.36 1241.6 786.79 1263.5 779.49 1262.04 827.86"/><polygon class="cls-17" points="961 709 -7 1080 1920 1080 961 709"/><rect class="cls-18" x="950" y="1049.78" width="19" height="61.22" transform="translate(1919 2160.78) rotate(-180)"/><rect class="cls-18" x="954" y="936.15" width="14" height="39.63" transform="translate(1922 1911.93) rotate(-180)"/><rect class="cls-18" x="957" y="874.3" width="9" height="25.47" transform="translate(1923 1774.08) rotate(-180)"/><rect class="cls-18" x="959" y="832.8" width="6" height="16.98" transform="translate(1924 1682.57) rotate(-180)"/><rect class="cls-18" x="960" y="798" width="4" height="14.78" transform="translate(1924 1610.78) rotate(-180)"/><rect class="cls-18" x="960" y="770" width="3" height="10.78" transform="translate(1923 1550.78) rotate(-180)"/><rect class="cls-18" x="961" y="752.59" width="2" height="7.19" transform="translate(1924 1512.37) rotate(-180)"/><rect class="cls-18" x="961" y="729.59" width="2" height="7.19" transform="translate(1924 1466.37) rotate(-180)"/><rect class="cls-18" x="961" y="717.19" width="1" height="3.59" transform="translate(1923 1437.96) rotate(-180)"/></g></svg>
