<svg xmlns="http://www.w3.org/2000/svg" width="650" height="140" viewBox="0 0 650 140"><defs><style>.cls-1{fill:#ce8817;}.cls-2{fill:#e8e1d6;}.cls-3{fill:#b52828;}.cls-4{fill:#b53030;}.cls-5{fill:#eddb3b;}.cls-6{fill:#c42d2d;}.cls-7{fill:#c1972f;}</style></defs><title>time-bar</title><g id="Layer_6" data-name="Layer 6"><path class="cls-1" d="M585.8,74.7c-14.73,0-27.1,9.78-30.56,23H64.42c-3.46-13.22-15.83-23-30.57-23-17.41,0-31.52,13.65-31.52,30.5s14.11,30.5,31.52,30.5c14.74,0,27.11-9.79,30.57-23H555.24c3.46,13.21,15.83,23,30.56,23,17.42,0,56.53,5,61.53-31C652.21,69.52,603.22,74.7,585.8,74.7Z"/><rect class="cls-2" x="565.33" y="34.7" width="72" height="72"/><polygon class="cls-3" points="601.33 3.7 637.33 34.7 565.33 34.7 601.33 3.7"/><rect class="cls-4" x="570.33" y="52.7" width="16" height="25"/><rect class="cls-5" x="571.33" y="53.7" width="6" height="11"/><rect class="cls-5" x="579.33" y="53.7" width="6" height="11"/><rect class="cls-5" x="571.33" y="65.7" width="6" height="11"/><rect class="cls-5" x="579.33" y="65.7" width="6" height="11"/><rect class="cls-4" x="616.33" y="52.7" width="16" height="25"/><rect class="cls-5" x="617.33" y="53.7" width="6" height="11"/><rect class="cls-5" x="625.33" y="53.7" width="6" height="11"/><rect class="cls-5" x="617.33" y="65.7" width="6" height="11"/><rect class="cls-5" x="625.33" y="65.7" width="6" height="11"/><rect class="cls-6" x="592.33" y="75.7" width="16" height="31"/><circle class="cls-7" cx="605.33" cy="91.7" r="1"/></g></svg>
