<svg xmlns="http://www.w3.org/2000/svg" width="120" height="160" viewBox="0 0 120 160"><defs><style>.cls-1,.cls-5{fill:#efd1ac;}.cls-2{fill:#a50f2c;}.cls-3{fill:#620f2c;}.cls-4{fill:#fff;}.cls-5{stroke:#918173;}.cls-12,.cls-5,.cls-6{stroke-miterlimit:10;}.cls-12,.cls-6{fill:none;}.cls-6{stroke:#548e54;stroke-width:5px;}.cls-7{fill:#f2e96d;}.cls-8{fill:#548e54;}.cls-9{fill:#2e4c2e;}.cls-10{fill:#3481ce;}.cls-11{fill:#21527a;}.cls-12{stroke:#3481ce;stroke-linecap:round;stroke-width:3px;}.cls-13{fill:#36ccbe;}.cls-14{fill:#222e38;}.cls-15{fill:#afa651;}</style></defs><title>time-bar-man</title><g id="Layer_6" data-name="Layer 6"><path class="cls-1" d="M57.23,35.16c-4.79,13.38-4.71,24.08,3.22,27.28.56.22,1.41,2,2.06,2.16,1.05.25,1.8-1.35,2.76-1.56C71.34,61.7,75.37,51.58,75,37.47c0-1.68-1.18-2.81-1.07-4.36.14-1.85,2.36-8.57,2.32-10.29-.21-10.11-1.55-11.36-6.39-12.09-4.52-.68-6.45,1.13-9.65,9.66-.66,1.76.65,7.27.14,9.26S58,33.15,57.23,35.16Z"/><ellipse class="cls-2" cx="64.43" cy="47.05" rx="15.13" ry="9.02" transform="translate(8.3 103.75) rotate(-81.43)"/><path class="cls-3" d="M58.15,47.4c-.83,5.49,1,10.33,4.14,10.8s6.32-3.61,7.14-9.1c.57-3.77-.09-7.22-1.56-9.17-.34-.45-2.17,1.39-2.07,2.2.46,3.62-.9,4.14-1.39,4.07s-1.57-1.84-.32-3.37c2.26-2.77-1.09-4.08-1.54-3.78C60.48,40.45,58.72,43.58,58.15,47.4Z"/><ellipse class="cls-4" cx="71.15" cy="23.44" rx="5.04" ry="1.87" transform="matrix(0.15, -0.99, 0.99, 0.15, 37.36, 90.3)"/><ellipse class="cls-4" cx="66.53" cy="22.67" rx="5.04" ry="1.87" transform="translate(34.19 85.08) rotate(-81.43)"/><path class="cls-5" d="M68.84,31.12c2.39.58,4.42.62,4.55.1s-1.71-1.42-4.09-2"/><path d="M70.84,26.56c-.18-.09-.55-1.1-.29-2.84s.92-2.59,1.13-2.62.54,1.08.28,2.83S71.05,26.51,70.84,26.56Z"/><path d="M71.51,22.14a6.45,6.45,0,0,1-.05,1.72A6.23,6.23,0,0,1,71,25.51a7.14,7.14,0,0,1,.51-3.37m.16-1.54c-.64,0-1.35,1.33-1.61,3s0,3.3.71,3.4h.07c.64,0,1.35-1.33,1.61-3s0-3.31-.71-3.41Z"/><path d="M66.66,25.67c-.18-.09-.55-1.1-.28-2.84s.91-2.59,1.12-2.62.54,1.09.28,2.84S66.87,25.63,66.66,25.67Z"/><path d="M67.33,21.25a6.84,6.84,0,0,1-.51,3.38,7.15,7.15,0,0,1,.51-3.38m.17-1.54c-.65,0-1.36,1.33-1.62,3.05s.05,3.31.71,3.4h.07c.64,0,1.36-1.33,1.61-3.05s0-3.31-.71-3.41Z"/><path class="cls-6" d="M45.75,108.44s-2,8.75-7.13,14.77c-10.47,12.26-18.95-5.49-27.55-5.08"/><rect class="cls-7" x="70.13" y="16.92" width="3.58" height="1.16" transform="translate(138.82 49.17) rotate(-168.34)"/><rect class="cls-7" x="65.29" y="16.23" width="3.58" height="1.14" transform="matrix(-1, -0.07, 0.07, -1, 132.78, 38.34)"/><rect class="cls-8" x="41.6" y="99.62" width="28.09" height="11.88" rx="5.94" transform="matrix(0.99, 0.15, -0.15, 0.99, 16.36, -7.12)"/><path class="cls-9" d="M54,108.42l2.51.38c8.86,1.34,16.35-5.22,17.69-14.09l1.29-8.07c1.33-8.86-4.07-16.66-12.93-18l-2.51-.38c-8.86-1.34-13.9,5-15.23,13.86l-3.55,7.75C39.94,98.73,45.14,107.09,54,108.42Z"/><rect class="cls-10" x="40.79" y="67.25" width="35" height="40.62" rx="17.5" transform="matrix(-0.99, -0.15, 0.15, -0.99, 102.87, 182.84)"/><rect class="cls-11" x="65.22" y="69.14" width="0.45" height="12.95" transform="translate(145.57 135.44) rotate(167.62)"/><ellipse class="cls-11" cx="62.07" cy="68.71" rx="1.01" ry="2.76" transform="translate(-12.77 123.23) rotate(-83.98)"/><rect class="cls-1" x="61.71" y="62.72" width="1.79" height="5.41" transform="translate(114.75 139.45) rotate(-171.43)"/><ellipse class="cls-1" cx="62.06" cy="68.66" rx="0.81" ry="2.28" transform="translate(-15.08 119.79) rotate(-81.43)"/><circle class="cls-11" cx="63.34" cy="71.18" r="0.39"/><circle class="cls-11" cx="65.1" cy="79.66" r="0.39"/><circle class="cls-11" cx="64.63" cy="77.54" r="0.39"/><circle class="cls-11" cx="64.14" cy="75.53" r="0.39"/><circle class="cls-11" cx="63.8" cy="73.31" r="0.39"/><rect class="cls-1" x="108.4" y="80.98" width="1.79" height="5.41" transform="translate(151.29 -47.4) rotate(70.32)"/><path class="cls-1" d="M111.84,85.58l1.88-.93a1,1,0,0,0,.4-.37l1.68-2.75a1,1,0,0,0,.11-.76l-.36-1.4a1,1,0,0,0-1.32-.68l-4.51,1.81a1,1,0,0,0-.55,1.29l1.31,3.27A1,1,0,0,0,111.84,85.58Z"/><rect class="cls-1" x="110.55" y="84.03" width="4.51" height="1.54" rx="0.77" transform="translate(245.43 133.05) rotate(163.06)"/><rect class="cls-1" x="113.51" y="82.53" width="3.57" height="1.3" rx="0.65" transform="translate(244.23 23.3) rotate(119.28)"/><path class="cls-12" d="M107.56,84.15a51.78,51.78,0,0,1-13.19,1.77c-13.71-.2-17.21-4.52-23.81-8.59"/><rect class="cls-1" x="12.02" y="84.58" width="1.79" height="5.41" transform="translate(-31.21 163.69) rotate(-141.57)"/><path class="cls-1" d="M9.76,87,8.65,88.8a1,1,0,0,0-.15.53l0,3.22a1.05,1.05,0,0,0,.31.71l1,1a1,1,0,0,0,1.49-.13l2.87-3.92A1,1,0,0,0,14,88.83l-2.85-2.09A1,1,0,0,0,9.76,87Z"/><rect class="cls-1" x="7.09" y="87.42" width="4.51" height="1.54" rx="0.77" transform="translate(-63.2 37.18) rotate(-48.84)"/><rect class="cls-1" x="6.3" y="90.23" width="3.57" height="1.3" rx="0.65" transform="translate(-82.33 103.11) rotate(-92.62)"/><path class="cls-12" d="M14.14,86A51.41,51.41,0,0,1,24.4,77.51c11.75-7.08,17-5.26,24.76-5.3"/><path class="cls-6" d="M65.5,110.31s9,2.83,14.79,9.18c11.84,13-7.53,21.89-7.91,32"/><path class="cls-13" d="M8.5,112.67,4.09,126.58c2.71,1.73,5.9,0,7.11-3.83.42-1.31,2.74-6.65,1.9-7.27A53.06,53.06,0,0,0,8.5,112.67Z"/><polygon class="cls-14" points="3.5 126.35 7.97 112.15 8.73 112.63 4.26 126.83 3.5 126.35"/><path class="cls-13" d="M67.68,155.75l15.41,1.9c.69-3.21-2.2-6.24-6.45-6.77-1.45-.18-7.59-1.56-7.89-.55A50.05,50.05,0,0,0,67.68,155.75Z"/><polygon class="cls-14" points="83.08 158.31 67.36 156.41 67.55 155.52 83.27 157.42 83.08 158.31"/><path class="cls-7" d="M68,13.8C67,16,71.84,16,76.5,18.08c3.11,1.36,4.38,5.13,6.35,4.59a4.83,4.83,0,0,0,1.21-1.93,2.73,2.73,0,0,0,.34-2.39c-1.05-1.72-3.84-2.6-6.61-4.16C73.06,12,69,11.61,68,13.8Z"/><path class="cls-7" d="M67.39,13.06c-.13,2.39,4.38.75,9.46,1,3.39.18,5.91,3.27,7.57,2.07a4.92,4.92,0,0,0,.45-2.23,2.74,2.74,0,0,0-.52-2.36c-1.59-1.24-4.51-1.08-7.65-1.57C71.5,9.6,67.52,10.68,67.39,13.06Z"/><path class="cls-7" d="M67.09,12.53c.63,2,3.82-.73,8-2C78,9.59,81,11.35,82,9.86a4.51,4.51,0,0,0-.31-2c-.24-.74-.31-1.28-1.15-1.77-1.68-.53-4,.49-6.74,1C69.4,8.44,66.47,10.54,67.09,12.53Z"/><path class="cls-7" d="M66.27,12.39c1.28,1.64,3.32-2,6.82-4.75,2.34-1.82,5.76-1.23,6.17-3a4.3,4.3,0,0,0-1-1.73c-.47-.61-.73-1.09-1.69-1.25-1.76.09-3.59,1.86-6,3.34C67,7.75,65,10.74,66.27,12.39Z"/><path class="cls-15" d="M68.32,13.07c1,1.72-3,2.14-6.63,4.19-2.45,1.36-3.18,4.55-4.85,4.27A4.21,4.21,0,0,1,55.7,20a2.25,2.25,0,0,1-.47-1.93c.72-1.49,2.94-2.44,5.09-3.94C64,12,67.36,11.36,68.32,13.07Z"/><path class="cls-15" d="M68.75,12.42c.3,1.94-3.53,1-7.67,1.59-2.77.42-4.58,3.15-6,2.3a4.14,4.14,0,0,1-.55-1.79,2.28,2.28,0,0,1,.24-2c1.2-1.14,3.61-1.25,6.15-1.9C65.11,9.91,68.46,10.48,68.75,12.42Z"/><path class="cls-15" d="M68.91,12.07c-.35,1.68-3.18-.29-6.76-1-2.39-.5-4.71,1.18-5.64.05a3.73,3.73,0,0,1,.09-1.64,2,2,0,0,1,.8-1.54c1.34-.57,3.34.08,5.61.32C66.69,8.91,69.26,10.39,68.91,12.07Z"/><path class="cls-15" d="M69.57,11.89c-.92,1.45-2.88-1.39-6-3.34-2.06-1.31-4.82-.55-5.29-2A3.68,3.68,0,0,1,59,5.11c.35-.54.52-1,1.29-1.17,1.45-.06,3.1,1.25,5.14,2.27C68.61,8.15,70.49,10.44,69.57,11.89Z"/><path class="cls-7" d="M69.14,13c1,1.72-3,2.15-6.63,4.19-2.44,1.36-3.18,4.56-4.85,4.27A4.28,4.28,0,0,1,56.52,20,2.28,2.28,0,0,1,56.05,18c.72-1.49,2.94-2.43,5.09-3.94C64.84,11.9,68.18,11.26,69.14,13Z"/><path class="cls-7" d="M69.26,12.47c.29,1.94-3.54,1-7.68,1.59-2.76.42-4.57,3.15-6,2.3A4,4,0,0,1,55,14.57a2.25,2.25,0,0,1,.24-2c1.2-1.14,3.61-1.25,6.14-1.9C65.61,10,69,10.53,69.26,12.47Z"/><path class="cls-7" d="M69.73,12c-.35,1.67-3.18-.3-6.76-1-2.39-.51-4.71,1.18-5.64,0a3.57,3.57,0,0,1,.1-1.64,2,2,0,0,1,.79-1.54c1.34-.57,3.34.08,5.61.32C67.51,8.81,70.08,10.3,69.73,12Z"/><path class="cls-7" d="M70.08,11.94c-.92,1.45-2.88-1.39-6-3.34-2.06-1.31-4.82-.55-5.3-1.94a3.54,3.54,0,0,1,.67-1.5c.34-.54.51-1,1.29-1.17,1.45-.06,3.09,1.25,5.14,2.27C69.11,8.2,71,10.49,70.08,11.94Z"/></g></svg>
